<svg width="1076" height="175" viewBox="0 0 1076 175" fill="none" xmlns="http://www.w3.org/2000/svg">
<path d="M997.549 8.69727C1010.55 7.54532 1018.08 5.70903 1029.51 6.59832C1040.94 7.48761 1044.72 5.57306 1053.62 5.79071C1075.61 6.32912 1076 13.9997 1076 13.9997L0.142989 14C0.142989 14 -3.37574 3.43593 24.4995 3.99961C52.3748 4.56329 160.26 -0.506459 176.101 0.0414976C195.248 0.703796 360.821 0.328104 394.163 3.56317C427.93 6.83955 593.753 2.85871 639.876 5.00307C670.263 6.41585 715.904 1.26638 776.663 5.00307C814.92 7.35587 956.701 12.3152 997.549 8.69727Z" fill="#1E0645"/>
<rect width="1076" height="137" transform="translate(0 14)" fill="#1E0645"/>
<path d="M117.809 168.032C104.541 168.658 73.012 171.006 53.3278 169.519C33.6554 168.033 30.2042 168.033 14.5833 168.033H14.5551C-2.8667 168.033 0.209595 151.001 0.209595 151.001L1076 151C1076 151 1076 172.494 1063.24 172.494C1050.49 172.493 926.553 178.133 889.849 172.493C858.841 167.728 696.397 176.517 662.667 171.997C633.204 168.049 461.274 172.818 421.562 168.527C384.859 164.562 339.715 173.188 278.545 171.301C198.177 168.823 170.266 165.553 117.809 168.032Z" fill="#1E0645"/>
</svg>
