<svg width="1076" height="90" viewBox="0 0 1076 90" fill="none" xmlns="http://www.w3.org/2000/svg">
<path d="M145.134 9.28978C131.919 8.23513 54.2174 1.79869 42.7859 3.4504C31.3544 5.1021 23.5908 5.95127 14.9933 7.5C-1.66052 10.5 0.0496826 25.9995 0.0496826 25.9995L1075.99 26C1075.99 26 1077.28 6.72379 1049.41 7.77072C1021.53 8.81766 915.861 -0.943213 900.019 0.0745219C880.87 1.30463 715.284 0.606843 681.94 6.61542C648.17 12.7007 482.335 5.307 436.208 9.28978C405.818 11.9138 360.635 5.74384 299.41 9.28978C252.614 12 185.361 12.5 145.134 9.28978Z" fill="#19043C"/>
<rect width="1076" height="40" transform="translate(0 26)" fill="#19043C"/>
<path d="M958.191 83.5629C971.459 84.2092 1002.99 86.6296 1022.67 85.0962C1042.34 83.5638 1045.8 83.5638 1061.42 83.5638H1061.45C1078.87 83.5638 1075.79 66.0005 1075.79 66.0005L0 66C0 66 0.00167349 88.1644 12.7578 88.164C25.5139 88.1635 145.185 92.2955 186.151 88.1636C217.496 85.0021 379.603 92.3131 413.333 87.6519C442.796 83.5804 614.727 88.4981 654.438 84.074C691.141 79.985 736.285 88.8797 797.455 86.9344C877.823 84.3786 905.734 81.0072 958.191 83.5629Z" fill="#19043C"/>
</svg>
