<svg width="1440" height="308" fill="none" xmlns="http://www.w3.org/2000/svg"><path fill="#19043C" d="M0 21h1440v287H0z"/><path d="M0 .478v21.128h1440v-14.5c-58.19 0-174.69-4.17-307.55-4.171-52.96 0-64.03-.368-97.77.983C992.5 5.606 962.067-1.43 903 .606c-71.287 2.456-85.838.671-122.5 1.5-23.423.53-24.746 3.777-100.217 3.777-47.783 0-40.735-3.931-134.427-3.931-61.103 0-55.028 3.128-100.856 1.654-97.81-3.146-108.786-.204-148.649-.672-41.851-.49-53.975-3.439-84.526-.49C181.273 5.39 190.644 6.755 155 4.605c-24.441-1.474-28.414 1.027-71.492-.689C46.5 2.443 17.652-1.323 0 .477Z" fill="#19043C"/></svg>