<svg width="768" height="274" fill="none" xmlns="http://www.w3.org/2000/svg"><path fill="#19043C" d="M0 11h768v263H0zM0 .243V11h768V3.618c-31.036 0-93.168-2.124-164.028-2.124-28.244 0-34.147-.187-52.142.5-22.497.86-38.728-2.722-70.23-1.686-38.02 1.251-45.78.342-65.333.764-12.492.27-13.198 1.923-53.449 1.923-25.484 0-21.726-2.001-71.695-2.001-32.588 0-29.348 1.593-53.789.842-52.166-1.602-58.02-.104-79.28-.342-22.321-.25-28.787-1.751-45.081-.25-16.294 1.5-11.296 2.196-30.306 1.101-13.036-.75-15.155.523-38.13-.35C24.8 1.243 9.414-.675 0 .242Z"/></svg>