<svg width="360" height="439" fill="none" xmlns="http://www.w3.org/2000/svg"><g clip-path="url(#a)" fill="#19043C"><path d="M0 .487V22h360V7.236c-14.548 0-43.672-4.247-76.888-4.248-13.239 0-16.007-.374-24.442 1.001-10.545 1.72-18.153-5.445-32.92-3.372-17.822 2.501-21.459.683-30.625 1.528-5.856.54-6.187 3.845-25.054 3.845-11.946 0-10.184-4.002-33.607-4.002-15.276 0-13.757 3.185-25.214 1.684C86.797.47 84.053 3.465 74.088 2.988c-10.463-.5-13.494-3.502-21.132-.5-7.638 3.001-5.295 4.391-14.206 2.202-6.11-1.5-7.104 1.045-17.873-.701C11.625 2.488 4.413-1.348 0 .487ZM0 22h360v417H0z"/></g><defs><clipPath id="a"><path fill="#fff" d="M0 0h360v439H0z"/></clipPath></defs></svg>