<svg width="242" height="82" fill="none" xmlns="http://www.w3.org/2000/svg"><g clip-path="url(#a)" fill="#fff"><path d="M55.068 39.867c-.05-5.432 4.577-8.075 4.789-8.198-2.62-3.713-6.683-4.22-8.11-4.261-3.412-.349-6.721 1.984-8.459 1.984-1.773 0-4.449-1.95-7.333-1.893-3.712.056-7.184 2.144-9.089 5.387-3.93 6.612-.999 16.33 2.767 21.674 1.883 2.617 4.084 5.54 6.965 5.437 2.819-.113 3.871-1.746 7.273-1.746 3.37 0 4.358 1.746 7.296 1.68 3.025-.047 4.93-2.629 6.747-5.27 2.177-3 3.051-5.955 3.086-6.107-.071-.023-5.874-2.176-5.932-8.687ZM49.518 23.892c1.516-1.842 2.553-4.349 2.265-6.892-2.194.094-4.938 1.475-6.518 3.277-1.398 1.587-2.647 4.19-2.324 6.637 2.465.179 4.995-1.208 6.577-3.022ZM88 23.236c0 1.948-.591 3.415-1.772 4.4-1.093.909-2.648 1.364-4.66 1.364-.999 0-1.853-.043-2.568-.13V18.226A19.161 19.161 0 0 1 82.023 18c1.918 0 3.363.412 4.337 1.237 1.092.932 1.64 2.264 1.64 3.999Zm-1.85.048c0-1.263-.339-2.232-1.016-2.907-.676-.674-1.664-1.011-2.965-1.011-.553 0-1.024.036-1.414.112v8.093c.216.034.611.048 1.186.048 1.343 0 2.38-.369 3.11-1.107s1.098-1.814 1.098-3.228ZM99 25.928c0 1.18-.359 2.146-1.076 2.904-.752.78-1.748 1.168-2.992 1.168-1.2 0-2.154-.373-2.866-1.121-.71-.747-1.066-1.689-1.066-2.825 0-1.187.366-2.162 1.1-2.918.735-.757 1.723-1.136 2.967-1.136 1.199 0 2.162.373 2.892 1.12.693.725 1.041 1.662 1.041 2.808Zm-1.883.055c0-.708-.163-1.315-.487-1.82-.382-.613-.924-.918-1.63-.918-.729 0-1.283.305-1.664.917-.326.506-.487 1.123-.487 1.852 0 .708.163 1.314.487 1.82.393.612.94.918 1.648.918.693 0 1.237-.31 1.628-.934.336-.516.505-1.127.505-1.835ZM112 22l-2.592 8h-1.686l-1.074-3.474a25.576 25.576 0 0 1-.666-2.584h-.033a18.36 18.36 0 0 1-.666 2.584L104.143 30h-1.706L100 22h1.892l.937 3.803c.226.9.413 1.757.562 2.568h.033c.137-.669.364-1.52.684-2.55l1.175-3.82h1.501l1.126 3.738c.272.911.494 1.788.664 2.633h.051c.125-.823.313-1.7.562-2.633l1.005-3.737H112V22ZM122 30h-1.775v-4.488c0-1.383-.536-2.074-1.61-2.074-.527 0-.952.19-1.282.57a2 2 0 0 0-.493 1.343v4.647h-1.776v-5.595c0-.688-.022-1.434-.064-2.242h1.56l.083 1.225h.049a2.54 2.54 0 0 1 .92-.945 3.044 3.044 0 0 1 1.61-.441c.745 0 1.365.236 1.858.71.613.58.92 1.446.92 2.596V30ZM127.001 30H125V18h2.001v12ZM137 25.928c0 1.18-.359 2.146-1.076 2.904-.752.78-1.75 1.168-2.992 1.168-1.201 0-2.156-.373-2.866-1.121-.711-.747-1.066-1.689-1.066-2.825 0-1.187.366-2.162 1.1-2.918.735-.757 1.723-1.136 2.965-1.136 1.201 0 2.162.373 2.894 1.12.693.725 1.041 1.662 1.041 2.808Zm-1.885.055c0-.708-.163-1.315-.487-1.82-.38-.613-.924-.918-1.627-.918-.731 0-1.286.305-1.665.917-.326.506-.487 1.123-.487 1.852 0 .708.163 1.314.487 1.82.393.612.941.918 1.648.918.693 0 1.235-.31 1.627-.934.337-.516.504-1.127.504-1.835ZM147 29.826h-1.702l-.141-.884h-.053c-.582.705-1.412 1.058-2.49 1.058-.805 0-1.456-.233-1.947-.695a2.063 2.063 0 0 1-.667-1.562c0-.937.434-1.651 1.308-2.146.872-.494 2.098-.737 3.677-.725v-.143c0-1.01-.59-1.515-1.771-1.515-.841 0-1.582.19-2.223.568l-.385-1.12c.792-.44 1.771-.662 2.925-.662 2.228 0 3.346 1.058 3.346 3.173v2.824c0 .767.042 1.377.123 1.829Zm-1.968-2.636v-1.183c-2.091-.032-3.136.483-3.136 1.546 0 .4.119.7.363.9.244.2.555.3.926.3a2.06 2.06 0 0 0 1.16-.356c.356-.237.575-.538.656-.907.02-.083.031-.184.031-.3ZM157 29.816h-1.653l-.087-1.3h-.052c-.528.99-1.428 1.484-2.692 1.484-1.009 0-1.85-.383-2.517-1.15-.667-.766-.999-1.76-.999-2.982 0-1.311.361-2.373 1.086-3.184.702-.756 1.563-1.134 2.587-1.134 1.125 0 1.913.366 2.361 1.1h.035V18h1.865v9.634c0 .789.022 1.515.066 2.182Zm-1.931-3.416v-1.35c0-.234-.017-.423-.051-.567a2.04 2.04 0 0 0-.674-1.091 1.868 1.868 0 0 0-1.246-.442c-.695 0-1.239.267-1.639.8-.397.535-.598 1.217-.598 2.05 0 .801.191 1.45.573 1.95.403.534.947.8 1.628.8.612 0 1.101-.222 1.472-.667.359-.41.535-.905.535-1.483ZM172 25.928c0 1.18-.359 2.146-1.076 2.904-.752.78-1.747 1.168-2.992 1.168-1.198 0-2.152-.373-2.866-1.121-.711-.747-1.066-1.689-1.066-2.825 0-1.187.366-2.162 1.1-2.918.735-.757 1.723-1.136 2.968-1.136 1.198 0 2.163.373 2.891 1.12.693.725 1.041 1.662 1.041 2.808Zm-1.882.055c0-.708-.163-1.315-.487-1.82-.383-.613-.923-.918-1.63-.918-.728 0-1.282.305-1.665.917-.326.506-.487 1.123-.487 1.852 0 .708.163 1.314.487 1.82.393.612.941.918 1.648.918.693 0 1.238-.31 1.63-.934.334-.516.504-1.127.504-1.835ZM182 30h-1.774v-4.488c0-1.383-.536-2.074-1.612-2.074-.527 0-.952.19-1.281.57-.328.38-.493.83-.493 1.343v4.647h-1.777v-5.595c0-.688-.021-1.434-.063-2.242h1.559l.083 1.225h.049a2.57 2.57 0 0 1 .92-.945 3.051 3.051 0 0 1 1.612-.441c.744 0 1.364.236 1.857.71.615.58.92 1.446.92 2.596V30ZM194 23.273h-2.01V27.1c0 .973.357 1.46 1.064 1.46.328 0 .599-.028.814-.083l.047 1.329c-.361.13-.835.195-1.418.195-.721 0-1.282-.21-1.688-.632-.407-.42-.609-1.13-.609-2.123v-3.972H189v-1.311h1.2v-1.444l1.789-.518v1.96h2.009v1.313H194ZM204 30h-1.794v-4.677c0-1.474-.54-2.212-1.622-2.212-.831 0-1.399.427-1.71 1.282-.053.18-.084.4-.084.658v4.947H197V18h1.79v4.957h.034c.565-.902 1.373-1.352 2.421-1.352.743 0 1.356.248 1.844.745.607.62.911 1.54.911 2.759V30ZM214 25.65c0 .307-.023.564-.065.775h-5.25c.024.76.274 1.338.76 1.74.445.358 1.017.537 1.719.537.777 0 1.485-.12 2.123-.363l.274 1.187c-.747.316-1.625.474-2.643.474-1.219 0-2.179-.35-2.874-1.052-.698-.7-1.044-1.641-1.044-2.822 0-1.159.322-2.124.972-2.893.678-.822 1.595-1.233 2.753-1.233 1.132 0 1.992.41 2.574 1.233.469.652.701 1.459.701 2.417Zm-1.67-.441c.013-.508-.102-.944-.339-1.313-.304-.474-.767-.712-1.393-.712-.572 0-1.038.231-1.393.696-.291.37-.463.812-.52 1.329h3.645ZM97 61h-4.043l-2.214-6.756h-7.698L80.935 61H77l7.626-23h4.71L97 61Zm-6.925-9.59-2.002-6.006c-.212-.614-.61-2.058-1.195-4.333h-.071c-.233.978-.609 2.423-1.125 4.333l-1.967 6.006h6.36ZM116 52.542c0 2.858-.764 5.117-2.291 6.776-1.367 1.477-3.066 2.214-5.093 2.214-2.189 0-3.761-.795-4.719-2.385h-.069V68h-3.691V49.878c0-1.797-.047-3.641-.137-5.533h3.246l.206 2.664h.07c1.231-2.007 3.099-3.009 5.606-3.009 1.96 0 3.596.783 4.905 2.35 1.313 1.57 1.967 3.633 1.967 6.192Zm-3.761.136c0-1.636-.363-2.984-1.094-4.045-.798-1.107-1.87-1.66-3.213-1.66-.911 0-1.739.307-2.478.915-.741.613-1.226 1.414-1.453 2.405-.114.462-.171.84-.171 1.138v2.803c0 1.222.37 2.254 1.111 3.096.742.843 1.704 1.263 2.888 1.263 1.391 0 2.473-.543 3.247-1.625.776-1.085 1.163-2.514 1.163-4.29ZM135 52.542c0 2.858-.764 5.117-2.293 6.776-1.366 1.477-3.065 2.214-5.092 2.214-2.189 0-3.761-.795-4.717-2.385h-.069V68h-3.692V49.878c0-1.797-.047-3.641-.137-5.533h3.247l.206 2.664h.069c1.23-2.007 3.098-3.009 5.607-3.009 1.958 0 3.595.783 4.907 2.35 1.308 1.57 1.964 3.633 1.964 6.192Zm-3.761.136c0-1.636-.365-2.984-1.096-4.045-.798-1.107-1.867-1.66-3.212-1.66-.913 0-1.739.307-2.48.915-.741.613-1.224 1.414-1.451 2.405-.113.462-.171.84-.171 1.138v2.803c0 1.222.37 2.254 1.108 3.096.741.84 1.704 1.263 2.892 1.263 1.39 0 2.472-.543 3.246-1.625.776-1.085 1.164-2.514 1.164-4.29ZM157 55.117c0 1.983-.666 3.597-2.004 4.842-1.471 1.361-3.517 2.041-6.147 2.041-2.429 0-4.375-.483-5.849-1.452l.838-3.113a9.67 9.67 0 0 0 5.226 1.489c1.362 0 2.421-.319 3.183-.953.758-.634 1.136-1.486 1.136-2.547 0-.946-.312-1.743-.938-2.39-.622-.646-1.662-1.247-3.113-1.803-3.951-1.522-5.925-3.752-5.925-6.684 0-1.917.692-3.488 2.077-4.711 1.381-1.225 3.222-1.836 5.525-1.836 2.053 0 3.759.37 5.121 1.107l-.904 3.045c-1.272-.715-2.71-1.072-4.319-1.072-1.272 0-2.265.324-2.977.968a2.81 2.81 0 0 0-.904 2.111c0 .922.344 1.684 1.036 2.283.602.554 1.696 1.153 3.283 1.8 1.941.807 3.367 1.751 4.285 2.834.914 1.079 1.37 2.43 1.37 4.041ZM169 47.88h-4.021v8.03c0 2.043.708 3.063 2.128 3.063.652 0 1.193-.057 1.621-.17l.101 2.79c-.719.27-1.665.407-2.837.407-1.441 0-2.567-.443-3.38-1.327-.809-.886-1.216-2.372-1.216-4.46v-8.337H159v-2.758h2.396v-3.029L164.979 41v4.118H169v2.761ZM189 52.348c0 2.505-.763 4.562-2.286 6.17-1.597 1.657-3.717 2.482-6.36 2.482-2.546 0-4.574-.793-6.086-2.38-1.512-1.586-2.268-3.588-2.268-6.002 0-2.526.778-4.594 2.339-6.203 1.557-1.61 3.659-2.415 6.301-2.415 2.547 0 4.596.793 6.143 2.381 1.479 1.54 2.217 3.53 2.217 5.967Zm-4.001.117c0-1.503-.342-2.792-1.034-3.867-.809-1.301-1.965-1.95-3.462-1.95-1.55 0-2.728.65-3.536 1.95-.693 1.077-1.035 2.386-1.035 3.935 0 1.503.342 2.792 1.035 3.866.834 1.3 1.998 1.95 3.501 1.95 1.473 0 2.628-.663 3.462-1.984.711-1.096 1.069-2.398 1.069-3.9ZM200 47.597a6.55 6.55 0 0 0-1.178-.103c-1.315 0-2.332.492-3.047 1.476-.622.868-.934 1.965-.934 3.29V61h-3.736l.035-11.412c0-1.92-.047-3.668-.14-5.244h3.255l.137 3.187h.104c.394-1.096 1.016-1.977 1.868-2.639.833-.595 1.732-.892 2.702-.892.345 0 .657.024.934.068v3.529ZM217 51.759c0 .65-.044 1.198-.137 1.645h-11.25c.044 1.614.587 2.848 1.632 3.699.948.76 2.174 1.142 3.68 1.142 1.665 0 3.185-.257 4.552-.773l.587 2.519c-1.597.674-3.482 1.009-5.658 1.009-2.617 0-4.672-.745-6.167-2.235-1.491-1.489-2.239-3.488-2.239-5.997 0-2.463.695-4.513 2.086-6.149 1.456-1.746 3.425-2.619 5.901-2.619 2.433 0 4.274.873 5.525 2.62.99 1.386 1.488 3.102 1.488 5.139Zm-3.576-.941c.025-1.076-.22-2.005-.728-2.79-.649-1.009-1.646-1.513-2.988-1.513-1.226 0-2.224.492-2.985 1.48-.625.784-.996 1.725-1.11 2.821h7.811v.002Z"/></g><defs><clipPath id="a"><path fill="#fff" d="M0 0h242v82H0z"/></clipPath></defs></svg>