<svg width="54" height="54" fill="none" xmlns="http://www.w3.org/2000/svg"><path fill-rule="evenodd" clip-rule="evenodd" d="M19.271 34.28c-.293-.293-.335-.726-.094-.967l13.976-13.976c.241-.24.674-.199.967.094.293.293.335.726.094.967L20.238 34.374c-.241.241-.674.2-.967-.094Z" fill="#fff"/><path fill-rule="evenodd" clip-rule="evenodd" d="M34.271 33.97c-.293.293-.726.334-.967.093L19.328 20.087c-.241-.24-.2-.674.094-.967.293-.293.726-.334.967-.093l13.976 13.976c.24.24.199.674-.094.967Z" fill="#fff"/></svg>