<svg width="242" height="82" fill="none" xmlns="http://www.w3.org/2000/svg"><g clip-path="url(#a)"><path d="M86 25.389c0 1.332-.412 2.398-1.224 3.194-.934.943-2.15 1.417-3.64 1.417-1.424 0-2.64-.483-3.638-1.433-1-.965-1.498-2.15-1.498-3.567 0-1.418.499-2.602 1.498-3.559.998-.958 2.214-1.441 3.638-1.441.709 0 1.385.142 2.03.405.643.265 1.167.624 1.546 1.066l-.862.842c-.661-.756-1.562-1.129-2.714-1.129-1.039 0-1.94.351-2.704 1.059-.756.71-1.136 1.629-1.136 2.757 0 1.128.38 2.055 1.136 2.765.765.7 1.665 1.059 2.704 1.059 1.103 0 2.03-.36 2.762-1.067.482-.468.756-1.114.828-1.94h-3.59v-1.152h4.79c.058.25.074.49.074.724ZM95 21.228h-4.676v3.17h4.215v1.205h-4.215v3.169H95V30h-6V20h6v1.228ZM100.749 30h-1.5v-8.772H96V20h8v1.228h-3.251V30ZM109 30V20h1v10h-1ZM115.743 30h-1.486v-8.772H111V20h8v1.228h-3.257V30ZM132.424 28.55c-1.055.967-2.361 1.45-3.92 1.45-1.567 0-2.873-.483-3.928-1.45C123.524 27.587 123 26.402 123 25c0-1.401.524-2.586 1.576-3.55 1.055-.967 2.361-1.45 3.928-1.45 1.55 0 2.856.483 3.911 1.457C133.476 22.43 134 23.607 134 25c0 1.401-.524 2.586-1.576 3.55Zm-6.829-.8c.794.715 1.759 1.074 2.909 1.074 1.142 0 2.116-.36 2.901-1.075.791-.715 1.193-1.635 1.193-2.749s-.402-2.034-1.193-2.75c-.785-.715-1.759-1.074-2.901-1.074-1.15 0-2.115.36-2.909 1.075-.791.715-1.193 1.635-1.193 2.749s.402 2.034 1.193 2.75ZM136 30V20h1.622l5.044 7.777h.058l-.058-1.922V20H144v10h-1.393l-5.281-8.161h-.059l.059 1.93V30H136Z" fill="#fff" stroke="#fff" stroke-width=".16" stroke-miterlimit="10"/><path d="M120.702 47.737c-3.962 0-7.198 2.939-7.198 6.994 0 4.021 3.236 6.99 7.198 6.99 3.97 0 7.206-2.969 7.206-6.99 0-4.055-3.236-6.994-7.206-6.994Zm0 11.231c-2.174 0-4.044-1.749-4.044-4.237 0-2.522 1.87-4.24 4.044-4.24 2.173 0 4.052 1.718 4.052 4.24 0 2.488-1.879 4.237-4.052 4.237Zm-15.706-11.23c-3.97 0-7.198 2.938-7.198 6.993 0 4.021 3.228 6.99 7.198 6.99 3.968 0 7.198-2.969 7.198-6.99 0-4.055-3.23-6.994-7.198-6.994Zm0 11.23c-2.176 0-4.052-1.749-4.052-4.237 0-2.522 1.876-4.24 4.052-4.24 2.174 0 4.044 1.718 4.044 4.24 0 2.488-1.87 4.237-4.044 4.237Zm-18.689-9.087v2.971h7.28c-.212 1.66-.782 2.881-1.654 3.732-1.063 1.028-2.718 2.168-5.626 2.168-4.48 0-7.988-3.524-7.988-7.891s3.508-7.892 7.988-7.892c2.423 0 4.186.923 5.486 2.12l2.149-2.095C92.122 41.301 89.702 40 86.307 40 80.163 40 75 44.873 75 50.86c0 5.99 5.163 10.862 11.307 10.862 3.321 0 5.815-1.06 7.776-3.05 2.01-1.958 2.636-4.712 2.636-6.936 0-.69-.06-1.325-.165-1.855H86.307Zm76.421 2.303c-.592-1.563-2.42-4.447-6.144-4.447-3.689 0-6.761 2.834-6.761 6.994 0 3.916 3.04 6.99 7.116 6.99 3.295 0 5.197-1.958 5.979-3.098l-2.446-1.589c-.816 1.163-1.927 1.934-3.533 1.934-1.596 0-2.741-.713-3.475-2.119l9.595-3.87-.331-.795Zm-9.783 2.329c-.082-2.697 2.149-4.078 3.747-4.078 1.252 0 2.315.61 2.669 1.484l-6.416 2.594Zm-7.799 6.783h3.155v-20.55h-3.155v20.55Zm-5.165-12.001h-.106c-.708-.818-2.059-1.558-3.772-1.558-3.592 0-6.877 3.075-6.877 7.016 0 3.92 3.285 6.969 6.877 6.969 1.713 0 3.064-.746 3.772-1.589h.106v1.003c0 2.674-1.466 4.11-3.829 4.11-1.927 0-3.123-1.356-3.616-2.497l-2.743 1.116c.791 1.854 2.884 4.135 6.359 4.135 3.698 0 6.819-2.12 6.819-7.281V48.163h-2.99v1.132Zm-3.608 9.673c-2.173 0-3.993-1.773-3.993-4.215 0-2.464 1.82-4.262 3.993-4.262 2.142 0 3.831 1.798 3.831 4.262 0 2.442-1.689 4.215-3.831 4.215Zm41.123-18.222h-7.544v20.55h3.145V53.51h4.399c3.493 0 6.919-2.464 6.919-6.383 0-3.917-3.434-6.381-6.919-6.381Zm.082 9.905h-4.481v-7.046h4.481c2.349 0 3.689 1.9 3.689 3.522 0 1.59-1.34 3.524-3.689 3.524Zm19.446-2.953c-2.273 0-4.637.978-5.609 3.146l2.792 1.141c.601-1.14 1.705-1.51 2.873-1.51 1.632 0 3.287.955 3.313 2.642v.216c-.57-.32-1.788-.795-3.287-.795-3.007 0-6.07 1.613-6.07 4.624 0 2.754 2.462 4.527 5.231 4.527 2.116 0 3.285-.931 4.018-2.014h.108v1.589h3.038V53.38c0-3.643-2.792-5.682-6.407-5.682Zm-.38 11.262c-1.029 0-2.463-.498-2.463-1.74 0-1.591 1.788-2.202 3.336-2.202 1.385 0 2.035.298 2.876.69-.247 1.904-1.927 3.252-3.749 3.252ZM214.5 48.148l-3.616 8.909h-.107l-3.739-8.909h-3.392l5.617 12.45-3.205 6.927h3.287L218 48.148h-3.5Zm-28.356 13.148h3.154v-20.55h-3.154v20.55Z" fill="#fff"/><path fill-rule="evenodd" clip-rule="evenodd" d="M25.771 20.642c-.489.51-.771 1.287-.771 2.305V59.05c0 1.018.282 1.796.788 2.285l.13.11 20.936-20.228v-.452L25.902 20.533l-.13.11Z" fill="url(#b)"/><path fill-rule="evenodd" clip-rule="evenodd" d="m53.816 47.981-6.983-6.747v-.472l6.983-6.747.151.09 8.26 4.536c2.364 1.286 2.364 3.412 0 4.715l-8.26 4.536-.151.09Z" fill="url(#c)"/><path fill-rule="evenodd" clip-rule="evenodd" d="m53.97 47.89-7.135-6.892-21.066 20.354c.771.798 2.065.887 3.51.11L53.97 47.89Z" fill="url(#d)"/><path fill-rule="evenodd" clip-rule="evenodd" d="m53.97 34.105-24.69-13.55c-1.446-.799-2.744-.689-3.511.11l21.066 20.333 7.134-6.893Z" fill="url(#e)"/><path opacity=".2" fill-rule="evenodd" clip-rule="evenodd" d="m53.814 47.744-24.522 13.46c-1.37.762-2.591.71-3.38.017l-.13.126.13.11c.789.688 2.01.745 3.38-.016l24.69-13.55-.168-.147Z" fill="#000"/><path opacity=".12" fill-rule="evenodd" clip-rule="evenodd" d="m62.225 43.119-8.433 4.625.152.147 8.26-4.536c1.184-.651 1.765-1.506 1.765-2.357-.071.781-.674 1.522-1.744 2.12Z" fill="#000"/><path opacity=".25" fill-rule="evenodd" clip-rule="evenodd" d="m29.282 20.79 32.95 18.086c1.07.582 1.672 1.344 1.765 2.121 0-.85-.582-1.706-1.766-2.357l-32.95-18.087C26.918 19.247 25 20.338 25 22.948v.236c0-2.614 1.917-3.685 4.282-2.394Z" fill="#fff"/></g><defs><linearGradient id="b" x1="44.976" y1="22.558" x2="11.599" y2="31.762" gradientUnits="userSpaceOnUse"><stop stop-color="#00A0FF"/><stop offset=".007" stop-color="#00A1FF"/><stop offset=".26" stop-color="#00BEFF"/><stop offset=".512" stop-color="#00D2FF"/><stop offset=".76" stop-color="#00DFFF"/><stop offset="1" stop-color="#00E3FF"/></linearGradient><linearGradient id="c" x1="65.31" y1="40.998" x2="24.421" y2="40.998" gradientUnits="userSpaceOnUse"><stop stop-color="#FFE000"/><stop offset=".409" stop-color="#FFBD00"/><stop offset=".775" stop-color="orange"/><stop offset="1" stop-color="#FF9C00"/></linearGradient><linearGradient id="d" x1="50.09" y1="44.748" x2="24.513" y2="89.301" gradientUnits="userSpaceOnUse"><stop stop-color="#FF3A44"/><stop offset="1" stop-color="#C31162"/></linearGradient><linearGradient id="e" x1="20.464" y1="8.636" x2="31.875" y2="28.533" gradientUnits="userSpaceOnUse"><stop stop-color="#32A071"/><stop offset=".069" stop-color="#2DA771"/><stop offset=".476" stop-color="#15CF74"/><stop offset=".801" stop-color="#06E775"/><stop offset="1" stop-color="#00F076"/></linearGradient><clipPath id="a"><path fill="#fff" transform="matrix(1 0 0 -1 0 82)" d="M0 0h242v82H0z"/></clipPath></defs></svg>