<svg width="16" height="12" fill="none" xmlns="http://www.w3.org/2000/svg"><path fill-rule="evenodd" clip-rule="evenodd" d="M15.352 5.684c0-.349-.297-.631-.663-.631H.666c-.366 0-.663.282-.663.631 0 .35.297.632.663.632h14.023c.366 0 .663-.283.663-.632Z" fill="#fff"/><path fill-rule="evenodd" clip-rule="evenodd" d="M9.86.126a.613.613 0 0 0-.132.885c1.204 1.53 3.17 3.119 4.649 4.19.38.276.395.817.054 1.102-1.392 1.159-3.221 2.803-4.703 4.686-.219.28-.16.675.133.885.292.209.708.152.927-.127 1.4-1.779 3.147-3.355 4.514-4.493.992-.826.905-2.313-.124-3.059-1.46-1.057-3.302-2.558-4.39-3.942a.684.684 0 0 0-.927-.127Z" fill="#fff"/></svg>