<svg width="35" height="27" fill="none" xmlns="http://www.w3.org/2000/svg"><path d="M22.23 2.258h-9.464v16.609h9.464V2.257Z" fill="#FB8205"/><path d="M13.368 10.568a10.34 10.34 0 0 1 1.085-4.619 10.596 10.596 0 0 1 3.046-3.687 10.96 10.96 0 0 0-5.53-2.198 11.043 11.043 0 0 0-5.88 1.002 10.732 10.732 0 0 0-4.441 3.897A10.38 10.38 0 0 0 0 10.566c0 1.982.57 3.924 1.648 5.603a10.732 10.732 0 0 0 4.44 3.897 11.043 11.043 0 0 0 5.881 1.002 10.96 10.96 0 0 0 5.53-2.198 10.597 10.597 0 0 1-3.045-3.686 10.34 10.34 0 0 1-1.086-4.616Z" fill="#EA001B"/><path d="M35 10.565a10.38 10.38 0 0 1-1.647 5.604 10.733 10.733 0 0 1-4.442 3.896 11.043 11.043 0 0 1-5.881 1.001 10.959 10.959 0 0 1-5.53-2.198 10.613 10.613 0 0 0 3.045-3.688 10.358 10.358 0 0 0 1.088-4.617c0-1.6-.372-3.178-1.088-4.616A10.613 10.613 0 0 0 17.5 2.259 10.96 10.96 0 0 1 23.03.06a11.044 11.044 0 0 1 5.881 1.002 10.733 10.733 0 0 1 4.442 3.896A10.38 10.38 0 0 1 35 10.562v.003Z" fill="#FFB533"/><path d="M6.341 26.391v-1.815c0-.694-.42-1.149-1.142-1.149-.36 0-.753.12-1.022.515-.21-.332-.512-.515-.964-.515-.3 0-.602.092-.84.423v-.363h-.63v2.904h.63v-1.603c0-.515.27-.758.69-.758.42 0 .63.271.63.758v1.603h.63v-1.603c0-.515.302-.758.69-.758.421 0 .631.271.631.758v1.603h.697Zm9.353-2.904H14.67v-.878h-.63v.878h-.571v.574h.57v1.333c0 .666.27 1.057.992 1.057.27 0 .57-.092.78-.211l-.181-.547c-.182.12-.393.152-.543.152-.301 0-.42-.183-.42-.483v-1.3h1.022v-.575h.004Zm5.352-.063a.853.853 0 0 0-.753.422v-.363h-.63v2.905h.63v-1.636c0-.483.21-.758.602-.758.12 0 .27.032.393.06l.182-.606c-.126-.024-.305-.024-.424-.024Zm-8.088.303c-.301-.212-.721-.303-1.173-.303-.722 0-1.202.363-1.202.937 0 .483.361.758.992.846l.3.032c.33.06.512.151.512.303 0 .211-.242.363-.662.363-.42 0-.753-.152-.963-.303l-.301.482c.329.244.78.364 1.233.364.84 0 1.324-.395 1.324-.938 0-.515-.393-.786-.992-.878l-.3-.031c-.27-.032-.48-.092-.48-.272 0-.211.21-.331.542-.331.361 0 .722.151.904.243l.266-.514Zm16.775-.303a.853.853 0 0 0-.753.422v-.363h-.63v2.905h.63v-1.636c0-.483.21-.758.602-.758.12 0 .27.032.393.06l.182-.599c-.123-.031-.301-.031-.424-.031Zm-8.056 1.515c0 .878.602 1.512 1.534 1.512.42 0 .721-.092 1.023-.331l-.302-.515c-.241.183-.48.272-.753.272-.511 0-.872-.363-.872-.938 0-.546.36-.91.872-.938.27 0 .512.092.753.272l.302-.515c-.302-.243-.603-.331-1.023-.331-.932-.003-1.534.634-1.534 1.512Zm5.832 0v-1.452h-.63v.363c-.21-.272-.512-.423-.904-.423-.813 0-1.444.634-1.444 1.512s.63 1.512 1.444 1.512c.42 0 .721-.152.903-.423v.363h.63V24.94Zm-2.316 0c0-.515.33-.938.873-.938.511 0 .872.395.872.938 0 .515-.36.938-.872.938-.54-.032-.873-.427-.873-.938Zm-7.545-1.515c-.84 0-1.443.606-1.443 1.512 0 .909.603 1.512 1.475 1.512.42 0 .84-.12 1.173-.395l-.3-.455a1.426 1.426 0 0 1-.841.303c-.393 0-.782-.183-.873-.694h2.134v-.243c.027-.934-.515-1.54-1.325-1.54Zm0 .546c.393 0 .662.243.722.694h-1.503c.06-.391.33-.694.781-.694Zm15.665.969v-2.601h-.63v1.512c-.21-.272-.512-.423-.904-.423-.813 0-1.443.634-1.443 1.512s.63 1.512 1.443 1.512c.42 0 .721-.152.903-.423v.363h.63V24.94Zm-2.315 0c0-.515.329-.938.872-.938.511 0 .872.395.872.938 0 .515-.36.938-.872.938-.543-.032-.872-.427-.872-.938Zm-21.108 0v-1.452h-.63v.363c-.211-.272-.512-.423-.905-.423-.812 0-1.443.634-1.443 1.512s.63 1.512 1.443 1.512c.42 0 .722-.152.904-.423v.363h.63V24.94Zm-2.344 0c0-.515.33-.938.873-.938.51 0 .872.395.872.938 0 .515-.361.938-.872.938-.543-.032-.873-.427-.873-.938Z" fill="#F2F3F7"/></svg>