<svg width="72" height="21" fill="none" xmlns="http://www.w3.org/2000/svg"><g clip-path="url(#a)"><g clip-path="url(#b)" fill-rule="evenodd" clip-rule="evenodd"><path d="M19.803.875v.008c-.008 0-2.743-.008-3.473 2.522-.668 2.32-2.552 8.726-2.604 8.902h-.521S11.277 5.76 10.6 3.397C9.87.867 7.127.875 7.127.875H.875v19.25h6.252V8.693h.52l3.647 11.432h4.342l3.646-11.424h.521v11.424h6.252V.875h-6.252ZM42.64.875s-1.833.16-2.692 2.017l-4.428 9.415h-.521V.875h-6.252v19.25h5.904s1.92-.168 2.779-2.017l4.341-9.415h.521v11.432h6.252V.875H42.64ZM51.322 9.617v10.508h6.252v-6.136h6.773c2.952 0 5.453-1.825 6.382-4.372H51.322Z" fill="#0FB94E"/><path d="M64.347.875H50.445c.695 3.665 3.534 6.607 7.207 7.566a10.3 10.3 0 0 0 2.614.336H70.98c.096-.437.14-.883.14-1.345 0-3.623-3.031-6.557-6.773-6.557Z" fill="#05A4F0"/></g></g><defs><clipPath id="a"><path fill="#fff" d="M0 0h72v21H0z"/></clipPath><clipPath id="b"><path fill="#fff" transform="translate(.875 .875)" d="M0 0h70.244v19.25H0z"/></clipPath></defs></svg>