<svg width="71" height="23" fill="none" xmlns="http://www.w3.org/2000/svg"><g clip-path="url(#a)"><path d="M25.23 8.258c-.069-.07-.11-.135-.167-.224l-.098-.148c.1-.114.183-.247.247-.393l.254-.578-.626-.09a5.348 5.348 0 0 1-.474-.112c-.384-.1-.877-.23-1.414-.286a.955.955 0 0 0 .449-.42l.103-.186s-.028-.26-.129-.34c.039-.081.069-.17.09-.266l.084-.414-.4-.137a1.08 1.08 0 0 0-.186-.046 1.316 1.316 0 0 0-.102-.24l-.237-.435-.428.25a1.137 1.137 0 0 0-.27.214 1.102 1.102 0 0 0-.203-.018s-.245-.027-.515.07l-.345-.357-.409-.435a1.26 1.26 0 0 0-1.427-.328c-.201-.2-.516-.367-1.003-.367-.166 0-.31.02-.396.031 0 0-.671.122-1.049.48l-.458-.218a1.63 1.63 0 0 1-.831.635 1.15 1.15 0 0 0-.185-.393l.03-.17c0-.005.103-.58.417-1.068l.547-.85-.775.088a2.123 2.123 0 0 0-.012-.275l-.07-.66-.606.274c-.067.03-.123.06-.176.087l-.12-.255-.278.144a2.237 2.237 0 0 0-.112-.236L13.63 0l-.455.49c-.047.05-.086.096-.12.14L12.78.356l-.278.275a2.163 2.163 0 0 0-.12-.14L11.922 0l-.32.588c-.05.09-.085.167-.112.235l-.277-.144-.12.255c-.053-.027-.109-.057-.176-.088l-.609-.273-.067.662a2.08 2.08 0 0 0-.012.273l-.776-.087.548.849c.316.487.416 1.062.416 1.067l.029.17c-.088.122-.15.253-.185.394 0 0-.496-.211-.828-.636l-.467.223c-.534-.36-.865-.5-1.44-.516-.488-.013-.802.166-1.003.367-.529-.2-1.045-.079-1.426.33 0 0-.251.27-.41.434a2.1 2.1 0 0 1-.391.302s-.332-.074-.674.003a1.16 1.16 0 0 0-.272-.215l-.429-.25-.236.437a1.172 1.172 0 0 0-.1.238c-.06.01-.123.025-.185.046l-.398.14.082.41c.02.1.05.188.09.268-.024.045-.044.091-.06.14l-.068.2.102.186c.108.194.262.34.447.42-.538.057-1.03.186-1.414.286-.198.052-.368.097-.474.113l-.628.09.143.324.114.257c.064.143.15.276.248.39-.037.053-.196.301-.266.372L0 8.58l.304.335c.039.04.38.398.933.4.151 0 .3-.027.45-.08.147.23.322.464.481.578a3.235 3.235 0 0 1-1.104.87l-.398.189.172.453c.111.274.328.574.748.69-.09.267-.133.52-.172.746-.09.538-.128.76-.601.926l-.426.149.122.433c.099.352.246.586.406.74l-.283.31s.67.503 1.329.564c.01.001.57.037.822-.283.1.363.26.698.405 1.002.298.624.456.994.257 1.331l-.45.76.884-.036c.386-.016.744-.04 1.054-.116 0 .016 0 .032-.002.047l-.072.654.774-.163c.082-.024.159-.056.228-.093.48.56 1.295.996 2.393.996h.063l-1.262.516.92.478c.605.314 1.277.577 2.044.801l-.106.367.461.135a9.036 9.036 0 0 0 2.4.333 9.045 9.045 0 0 0 2.402-.333l.46-.135-.107-.366c.768-.223 1.441-.487 2.046-.801l.92-.477-1.264-.517h.064c1.098 0 1.912-.437 2.391-.996.07.037.146.07.228.093l.774.163-.07-.652c-.002-.016-.003-.032-.003-.05.31.077.669.1 1.054.117l.883.037-.447-.76c-.2-.337-.04-.706.255-1.33.145-.305.305-.64.405-1.003.17.13.354.207.536.248 0 0 .142.041.277.045.39.012.586-.1.855-.268l.487-.306-.285-.311c.16-.153.307-.386.405-.738l.124-.434-.427-.148c-.475-.167-.512-.39-.602-.926-.038-.226-.08-.48-.171-.748.42-.116.635-.416.747-.688l.17-.455-.398-.189a3.25 3.25 0 0 1-1.105-.87c.16-.114.335-.347.484-.577.148.053.297.078.45.079.552 0 .895-.358.932-.398l.305-.335-.318-.326Z" fill="#fff"/><path fill-rule="evenodd" clip-rule="evenodd" d="M8.88 14.151v-3.648c0-.34-.098-.68-.216-.991h2.837c.26.356.733.595 1.274.595.54 0 1.012-.239 1.273-.595h2.837c-.12.313-.216.652-.216.991v3.648h-7.79Zm3.894 4.985c-.396-.393-.68-.437-1.749-.437-1.277 0-2.145-.747-2.145-1.942v-2.392h7.787v2.392c0 1.195-.866 1.942-2.147 1.942-1.067 0-1.35.043-1.746.437Z" fill="#FFDD2D"/><path d="M9.33 19.59v.728l-.635.255c.536.243 1.201.484 1.983.662l.36-1.168a10.574 10.574 0 0 1-1.709-.477ZM12.77 20.577c-.75 0-1.38-.078-1.632-.136l-.38 1.226a8.602 8.602 0 0 0 2.011.254c.713 0 1.412-.107 2.011-.254l-.38-1.226c-.252.059-.88.136-1.63.136ZM16.216 19.59c-.408.157-.941.32-1.708.478l.36 1.169c.783-.178 1.446-.42 1.982-.663l-.633-.255v-.73h-.001ZM8.004 7.839c.992-.535 3.418-1.712 1.774-2.98-.224-.173-.471-.328-.679-.52-.256.197.096.687.185.866 0 0-.548.055-.678.055-.847-.003-1.734-.503-1.284-1.461-.337.07-.378.392-.48.668-.216-.145-.592-.459-.88-.415.234.75 1.223 1.426 1.99 1.58-.775.42-2.213.733-2.97-.173-.53 1.025.209 1.453.934 1.99-2.76 1.257-2.353 2.667-4.164 3.777.235.11 1.282-.111 1.376-.124-.393.508-.577.723-.692.97-.11.233-.16.495-.268 1.06-.085.445-.241.89-.785 1.186.213.385.687.083.884.032-.026.04-.093.505-.27.728.93-.06.5-2.016 1.43-1.545.262.132.341.44.22.693-.611 1.258.778 2.367.702 3.47.342-.003.696-.013.919-.473.116.23.296.552.396.863l.278-.472c.172.782.903 1.505 1.89 1.569-.47-.744.094-1.76-1.05-2.84.142-.114.472-.335.59-.486-1.406.165-2.872-.944-2.206-1.47.435-.343.625.37 1.297.25l-.263-.226c.092-.09.198-.21.307-.299-.285-.035-.597-.216-.597-.216l.17-.282c-1.646-.002-1.688-1.258-1.019-1.308.314-.023.72.555 1.734.434-.13-.155-.181-.39-.243-.564.245-.023.533-.02.764-.133-.495-.063-.62-.23-1.032-.54l.478-.175c-.694-.346-.652-.948-.673-1.574.363.208.79.53 1.245.381.108-.036.177-.086.18-.198-.65-.26-1.067-1.258.49-2.098Zm-1.185.098c-.87.927-.493 1.482-.318 1.653-.324-.07-.807-.48-.697-.88-.103.124-.208.258-.316.395-.216.288-.409.569-.58.841-.264.783.22 1.59 1.041 1.947a1.54 1.54 0 0 1-1.32-1.461c-.437.823-.645 1.574-.626 2.204.008.235.029.453.06.66.21.397.546.543 1.147.616-.545.035-.834.01-1.072-.239.372 1.594 2.11 2.975 2.817 4.156-.708-.918-2.174-2.287-2.687-3.276-.04.358.056 1.274.502 1.837-.657-.644-.708-1.62-.665-2.192a3.958 3.958 0 0 1-.287-1.393c-.013-.481.02-.898.094-1.273-.415.589-1.014.816-1.309 1.712.058-1.156.922-1.174 1.569-2.576.25-.614.615-1.144 1.018-1.744-.512.167-.896.287-1.488.934.42-.993 2.852-2.109 3.965-3.189-.334.07-1.7.106-2.266-.272 1.027.277 3.313-.04 4.176-.628-.596.855-1.893.904-3.472 2.605.202-.16.47-.322.714-.437ZM23.387 13.129c-.109-.564-.157-.826-.267-1.059-.114-.247-.299-.462-.693-.97.093.013 1.143.234 1.377.124-1.81-1.11-1.403-2.52-4.165-3.777.725-.537 1.465-.965.934-1.992-.757.908-2.195.595-2.97.173.768-.153 1.755-.828 1.99-1.58-.29-.043-.665.27-.88.415-.104-.277-.143-.6-.48-.67.45.96-.439 1.46-1.286 1.463-.13 0-.676-.055-.676-.055.087-.18.44-.67.182-.867-.207.193-.452.348-.677.52-1.646 1.269.782 2.447 1.775 2.98 1.555.84 1.141 1.839.49 2.094.003.113.072.163.181.199.453.15.882-.172 1.243-.382-.02.627.023 1.23-.671 1.575l.477.174c-.412.311-.536.477-1.03.54.23.113.52.11.763.133-.063.174-.117.41-.244.565 1.014.12 1.422-.457 1.734-.434.666.05.627 1.306-1.02 1.308l.17.281s-.312.182-.598.217c.109.088.215.208.308.299l-.263.226c.67.12.862-.593 1.297-.25.665.526-.8 1.635-2.205 1.47.118.15.448.373.59.488-1.145 1.078-.582 2.095-1.05 2.84.985-.066 1.716-.788 1.89-1.57l.278.472c.1-.31.281-.634.395-.863.222.46.578.47.92.472-.077-1.102 1.31-2.211.702-3.47a.512.512 0 0 1 .22-.692c.932-.471.5 1.486 1.43 1.545-.178-.223-.244-.687-.27-.728.197.051.67.353.883-.034-.54-.289-.697-.734-.784-1.18Zm-1.742-1.6c.074.375.11.791.094 1.272-.016.523-.12.982-.287 1.394.042.571-.008 1.547-.665 2.192.445-.565.542-1.48.503-1.837-.516.989-1.98 2.357-2.69 3.276.708-1.182 2.446-2.563 2.819-4.156-.24.247-.526.273-1.073.239.6-.073.936-.22 1.146-.616.031-.206.052-.426.06-.66.02-.63-.19-1.382-.626-2.205a1.538 1.538 0 0 1-1.32 1.462c.82-.359 1.303-1.166 1.041-1.947a10.88 10.88 0 0 0-.898-1.236c.11.399-.372.81-.696.88.176-.172.551-.727-.317-1.653.244.114.512.276.715.434-1.579-1.701-2.875-1.749-3.473-2.605.865.588 3.15.906 4.176.628-.565.378-1.932.343-2.266.272C19 7.743 21.434 8.86 21.854 9.852c-.592-.647-.977-.767-1.486-.934.404.601.766 1.13 1.016 1.744.649 1.403 1.514 1.42 1.57 2.576-.294-.894-.893-1.12-1.309-1.71Z" fill="#fff"/><path d="M14.052 9.512c-.26.356-.734.595-1.272.595-.126 0-.247-.014-.362-.036a.757.757 0 0 0 .265.43c-.064.427.12.826.58.93.05.218.183.382.411.46l-.32.368a.473.473 0 0 1-.413.17l-1.43-.162c.063-.157-.102-.34-.555-.263l.56-1.567-.341-.726-.649.553-.047 1.643-.28-.135c-.36-.155-.466.499-.123.501l.138.001c-.01.068.012.142.066.166-.065.026-.084.147-.004.19-.082.04-.094.163-.028.217-.07.121-.083.383.167.449.206.054.336-.166.378-.294l2.223.686c.313.09.538.04.8-.189l.58-.506c-.074.332.045.63.298.729 0 0-.04.303-.024.429l.778.001h1.225v-3.648c0-.34.097-.679.217-.992h-2.838ZM10.716 15.65l.043.053c.06.075.096.057.164.017l.101-.054c.064-.047.477.11.5-.233.045.256-.26.796-.076 1.097l.248.405-.81.012a.171.171 0 0 0-.16.102l-.211.439c-.055.116-.052.236.018.316l.143.161s.118-.1.156-.23l-.063-.065c-.053-.05-.053-.098-.024-.16l.13-.27c.05-.107.102-.13.217-.102l.656.14c.048.013.126.035.173-.045.08-.142.221-.152.365-.129.36.054 1.19.14 1.487-.206.347.46 1.027.46.982.702l-.143.792h.215l.132-.81c.014-.094.073-.223-.029-.296-.042-.033-.06-.05-.155-.212-.124-.215-.118-.538-.237-.817.113-.133.235-.178.342-.153.24.059.304.471.645.808-.039-.15-.055-.314-.136-.456 0 0 .237.183.298.397.038.134.078.232.199.294.08.029.176-.01.272-.124 0 0-.224-.319-.389-.526-.225-.286-.526-.573-.936-.54a.895.895 0 0 0-.373.14c-.466-.26-.828.016-.972.016l-.872-.052c-.172-.01-.307-.21-.307-.21-.022-.736-.615-1.029-.82-1.029 0 0 .02-.133-.035-.18l-.182.23-.506-.185.397.324-.43.499c-.045.049-.039.113-.017.14Z" fill="#fff"/><path d="M10.15 16.684c-.122.095-.116.226-.043.373l.073.137.19-.145-.042-.093c-.031-.066-.03-.133.024-.175l.273-.206c.077-.056.1-.062.182-.05l.577.12s-.088-.126-.117-.255l-.543-.072c-.076-.01-.123.023-.19.074l-.384.292ZM13.836 18.39h.218l.35-.86c.012-.03.029-.043.042-.068a2.538 2.538 0 0 1-.38-.18c.088.116.156.167.12.276l-.35.832ZM14.025 6.76l.404-2.317-1.53.52V7.35l1.126-.591Zm-.868-1.563 1.016-.373s-.198.16-.434.321c-.21.145-.582.3-.582.3v-.248Zm0 .56.93-.33s-.112.117-.347.278c-.21.144-.582.298-.582.298v-.245Zm0 .596.818-.313s0 .1-.236.26c-.21.144-.582.299-.582.299v-.246Z" fill="#fff"/><path d="m11.294 8.81.034.054h.315l.004.055a.672.672 0 0 0 .033.161.94.94 0 0 0 .303.433c.18.146.442.251.79.251.753 0 1.094-.487 1.126-.845l.003-.055h.316l.034-.054c.297-.464.66-.98 1.082-1.054l-1.15-.666-1.412.765-1.412-.765-1.15.666c.423.073.786.59 1.084 1.054Z" fill="#fff"/><path d="M12.653 7.35V4.963l-1.528-.519.402 2.317 1.126.59Zm-.258-.75s-.371-.155-.58-.298c-.237-.16-.237-.26-.237-.26l.819.313V6.6h-.002Zm0-1.403v.247s-.371-.154-.58-.299a7.565 7.565 0 0 1-.437-.321l1.018.373Zm0 .56v.247s-.371-.154-.58-.298c-.238-.161-.348-.278-.348-.278l.928.33ZM12.774 3.424c-.874 0-1.53.286-1.672.62l1.672.66 1.67-.66c-.142-.334-.797-.62-1.67-.62ZM12.771 2.467c.644 0 1.288.195 1.722.447.071-.233.147-.4.25-.59l-.396.061-.32-.681-.598.317-.658-.65-.66.65-.596-.317-.322.681-.396-.06c.103.19.177.356.25.589a3.599 3.599 0 0 1 1.724-.447ZM23.684 7.717c.215-.028.39-.1.601-.257-.456-.121-1.413-.467-2.23-.311-.269.036-.419.145-.323.207.439.29.98.964 1.375 1.75.346-.43.201-.993.128-1.155.69.415.872.618 1.192.539-.172-.262-.413-.498-.743-.773ZM2.437 9.103c.394-.786.936-1.459 1.376-1.75.098-.062-.054-.17-.321-.207-.818-.154-1.777.19-2.233.311.214.158.384.23.603.258-.332.276-.573.51-.745.772.323.08.502-.123 1.192-.538-.071.163-.217.725.128 1.154Z" fill="#fff"/><path fill-rule="evenodd" clip-rule="evenodd" d="M7.226 16.396c.317-.251.58-.377.568-.986-.477.244-1.83.231-2.396-.546-.16-.221.01-.333.165-.158.387.438 1.104.24 1.365.114a1.037 1.037 0 0 0-.255-.43c.098-.097.375-.24.431-.487-.147-.08-.721-.137-.721-.137.092-.088.207-.212.138-.54-.586.179-1.312-.065-1.476-.282-.162-.213.004-.412.14-.271.293.306 1.734.656 2.27.124-.2-.055-.419-.232-.458-.342.496-.05.891-.342.924-.706-.275 0-.793-.02-.97-.151.237-.088.388-.174.464-.44-.907-.054-.98-.726-.984-.838.59.34 1.631.19 1.361-.648-.491-.026-.986-.82.365-1.548 1.228-.663 2.625-1.379 2.501-2.557-.08-.753-1.323-1.267-1.481-1.649-.52.246-.623.532-.39 1.012 0 0-1.156.115-1.247-.596-.04-.318.173-.616.402-.844-.13 0-1-.233-1.263.475-.488-.333-.906-.32-1.235.03.525.312.85 1.379 1.718 1.693-.617.334-1.616.194-2.198-.832-.552.829-.87 1.65.314 2.526-2.152.977-2.136 2.845-4.008 3.735.189.508.59.508 1.1.43-.81 1.048-.12 2.146-1.401 2.595.12.428.36.77.833.644-.134.21-.223.205-.432.434.7.44 1.53.122 1.72-1.29.033-.252.38-.095.26.153-.798 1.647 1.22 2.886.506 4.094.63-.026 1.11-.075 1.371-.287.129.253.207.505.178.752.347-.07.474-.275.498-.512.228.664 1.043 1.373 2.347 1.373-.691-.985-.048-1.984-1.024-3.107ZM5.938 17.61l-.278.472c-.1-.31-.28-.634-.397-.863-.224.46-.577.47-.918.472.076-1.102-1.313-2.211-.702-3.47a.513.513 0 0 0-.22-.692c-.932-.471-.5 1.486-1.43 1.545.177-.223.244-.687.27-.728-.198.052-.671.353-.884-.032.544-.296.7-.74.785-1.187.108-.564.158-.826.267-1.058.115-.248.299-.463.692-.971-.094.013-1.14.234-1.376.124 1.81-1.11 1.403-2.52 4.164-3.777-.724-.537-1.464-.965-.934-1.99.756.907 2.193.593 2.97.172-.767-.153-1.756-.827-1.99-1.579.29-.044.664.27.879.415.104-.277.145-.599.482-.668-.45.958.437 1.458 1.284 1.461.131 0 .678-.055.678-.055-.088-.179-.441-.67-.185-.867.208.194.455.348.679.52C11.42 6.125 8.992 7.303 8 7.837c-1.557.84-1.14 1.84-.49 2.094-.003.113-.072.163-.18.199-.456.15-.882-.173-1.246-.382.022.627-.021 1.23.674 1.574l-.478.174c.411.312.537.477 1.032.542-.231.112-.518.11-.764.132.063.174.113.41.242.565-1.012.12-1.419-.457-1.733-.434-.669.05-.627 1.306 1.019 1.308l-.17.281s.311.182.598.217c-.11.088-.215.208-.307.299l.263.226c-.673.12-.862-.594-1.298-.25-.666.526.8 1.635 2.205 1.47-.117.15-.448.373-.59.488 1.145 1.078.58 2.095 1.051 2.84-.987-.064-1.718-.788-1.89-1.569Z" fill="#12181C"/><path fill-rule="evenodd" clip-rule="evenodd" d="M4.136 13.673c.238.248.526.274 1.071.24-.6-.074-.937-.22-1.147-.617a6.088 6.088 0 0 1-.058-.66c-.02-.63.189-1.381.625-2.204a1.541 1.541 0 0 0 1.321 1.461c-.822-.358-1.305-1.166-1.041-1.947.17-.272.364-.555.58-.84.108-.138.213-.272.316-.395-.11.398.373.81.697.879-.176-.171-.552-.725.317-1.652-.242.115-.51.277-.714.434 1.577-1.7 2.875-1.748 3.471-2.604-.863.588-3.149.906-4.176.627.567.378 1.932.344 2.267.273C6.552 7.748 4.12 8.864 3.7 9.857c.592-.649.975-.767 1.488-.933-.404.601-.767 1.13-1.017 1.744-.648 1.401-1.513 1.42-1.57 2.575.295-.896.895-1.123 1.31-1.712a5.776 5.776 0 0 0-.095 1.273c.014.522.12.982.286 1.393-.042.572.009 1.548.665 2.192-.445-.563-.541-1.48-.502-1.837.514.99 1.98 2.358 2.689 3.276-.709-1.18-2.445-2.56-2.818-4.155ZM20.358 8.923c.51.167.894.286 1.486.934-.42-.993-2.854-2.109-3.966-3.189.334.07 1.701.105 2.267-.273-1.026.28-3.312-.039-4.176-.627.597.856 1.894.904 3.472 2.605a4.018 4.018 0 0 0-.714-.435c.867.927.492 1.482.316 1.653.324-.07.807-.48.697-.879.104.123.21.257.317.395.217.287.409.568.58.84.264.783-.22 1.59-1.04 1.948a1.537 1.537 0 0 0 1.32-1.462c.437.823.646 1.574.627 2.204a5.836 5.836 0 0 1-.06.66c-.211.398-.548.544-1.148.617.547.033.834.008 1.073-.24-.373 1.595-2.11 2.975-2.819 4.157.71-.919 2.173-2.287 2.69-3.276.04.357-.056 1.273-.503 1.837.657-.645.708-1.62.666-2.192.165-.412.27-.871.286-1.394a5.708 5.708 0 0 0-.093-1.272c.416.588 1.014.815 1.31 1.711-.056-1.156-.922-1.174-1.57-2.576-.252-.617-.614-1.146-1.018-1.746Z" fill="#12181C"/><path fill-rule="evenodd" clip-rule="evenodd" d="M23.172 11.545c.51.08.91.08 1.1-.428-1.871-.89-1.856-2.757-4.007-3.735 1.183-.876.864-1.697.314-2.526-.582 1.026-1.584 1.166-2.199.832.866-.314 1.193-1.381 1.718-1.692-.328-.352-.748-.364-1.236-.031-.263-.708-1.134-.475-1.264-.475.228.227.443.525.402.844-.09.71-1.246.596-1.246.596.234-.48.13-.766-.39-1.012-.158.382-1.4.896-1.481 1.65-.125 1.177 1.274 1.893 2.501 2.556 1.351.729.856 1.523.366 1.548-.272.837.768.988 1.36.648-.002.111-.078.784-.985.839.077.265.227.351.464.439-.177.132-.695.151-.968.151.032.364.429.657.925.706-.04.11-.26.287-.458.342.536.532 1.976.182 2.269-.124.134-.141.298.058.138.271-.166.218-.89.462-1.477.281-.067.328.046.453.138.541 0 0-.574.057-.723.137.056.247.334.39.432.486-.099.084-.215.28-.257.43.264.127.98.325 1.365-.113.156-.173.326-.063.167.158-.566.777-1.92.79-2.397.546-.013.61.25.735.568.986-.978 1.123-.332 2.122-1.024 3.105 1.303 0 2.118-.71 2.346-1.373.026.235.151.441.497.512-.026-.248.05-.5.178-.753.264.212.744.261 1.373.287-.713-1.207 1.306-2.447.505-4.093-.119-.248.229-.406.262-.154.188 1.413 1.02 1.731 1.72 1.291-.21-.23-.298-.225-.432-.434.472.125.712-.217.833-.645-1.275-.447-.586-1.545-1.396-2.594Zm.108 2.803c.025.041.091.505.27.729-.931-.06-.5-2.017-1.431-1.545-.263.131-.34.44-.22.692.61 1.258-.779 2.367-.7 3.47-.344-.003-.7-.012-.921-.473-.114.23-.297.553-.397.864l-.278-.473c-.173.783-.904 1.505-1.89 1.57.47-.743-.094-1.76 1.052-2.84-.144-.115-.473-.337-.592-.488 1.406.165 2.87-.943 2.205-1.47-.435-.343-.626.37-1.297.25l.263-.226c-.092-.09-.199-.21-.308-.299.287-.034.598-.216.598-.216l-.17-.281c1.646-.003 1.685-1.258 1.02-1.309-.313-.022-.72.555-1.733.434.128-.155.18-.39.243-.564-.244-.023-.533-.02-.764-.133.496-.063.62-.23 1.031-.54l-.477-.175c.694-.346.65-.947.672-1.574-.363.208-.792.531-1.243.382-.108-.036-.179-.087-.181-.199.65-.256 1.065-1.255-.49-2.094-.992-.535-3.42-1.712-1.776-2.98.226-.173.47-.328.676-.52.258.196-.095.687-.182.866 0 0 .547.055.676.055.848-.003 1.736-.503 1.286-1.463.337.07.377.394.48.67.215-.146.59-.458.88-.414-.236.75-1.222 1.426-1.99 1.58.775.42 2.213.733 2.97-.173.53 1.025-.209 1.453-.934 1.99 2.762 1.256 2.353 2.667 4.165 3.777-.233.11-1.283-.111-1.377-.124.396.508.58.723.693.97.11.233.158.494.267 1.06.086.445.243.89.785 1.186-.212.381-.684.08-.88.028ZM10.14 17.434l.394-.333-.06-.12c-.043-.086-.02-.09.025-.124l.209-.154c.048-.04.098-.035.157-.02l.624.145h-.66c-.151.01-.196.068-.25.18l-.046.093-.17.347c-.057.12-.087.278.064.458l.12.142-.242.49h.204l.168-.34c.013-.012.26-.239.314-.472-.072-.058-.123-.1-.083-.18l.075-.163c.026-.054.034-.075.106-.062l.654.14c.082.024.202.06.29-.072.089-.136.101-.122.31-.102l.334.036c.457.043.913-.07 1.09-.212.063.142.187.25.244.36.022.041-.014.099-.042.17l-.375.895h.579l.327-.816a.484.484 0 0 1 .108-.17l-.188.987h.562l.149-.977c.032-.218.013-.287-.091-.377-.234-.197-.23-.61-.305-.862a.22.22 0 0 1 .141-.028c.123.011.215.323.359.524.288.403.68.848 1.129.221a1.315 1.315 0 0 0-.145-.198l-.126-.147c-.073-.082-.42-.479-.566-.62-.33-.332-.835-.282-1.036-.12-.457-.24-.939.011-1.053.002l-.786-.048a.155.155 0 0 1-.128-.075l.146-.048c-.137-.568-.48-1.043-1.081-1.126 0 0-.035-.179-.127-.214l-.18.21a.644.644 0 0 0-.151.043l-.767-.285.575.58s-.298.422-.384.508c-.056.08-.051.14.012.216l.112.146c.057.075.121.073.213.026l.126-.066c.055-.045.24.044.319-.027-.05.165-.076.324-.088.45l-.516-.063c-.113-.015-.164 0-.233.054l-.44.338c-.145.11-.189.3-.1.486l.18.374Zm4.267.097-.35.861h-.219l.35-.833c.036-.108-.032-.158-.12-.275.13.073.223.12.38.18-.013.024-.03.037-.041.067Zm-3.376-1.864-.1.052c-.069.04-.103.058-.163-.016l-.044-.055c-.021-.027-.028-.09.016-.14l.43-.5-.396-.323.503.185.185-.23c.053.046.034.179.034.179.204 0 .797.294.82 1.03 0 0 .134.198.306.209l.874.052c.145 0 .507-.275.972-.015a.943.943 0 0 1 .373-.141c.41-.03.712.255.936.541.164.209.39.527.39.527-.098.115-.193.153-.273.124-.121-.062-.16-.159-.199-.294-.061-.214-.297-.397-.297-.397.08.143.097.306.135.456-.341-.338-.406-.75-.645-.807-.105-.026-.229.02-.342.151.12.279.114.602.237.818.093.162.114.176.156.212.1.072.044.202.029.296l-.13.81h-.218l.144-.792c.044-.241-.635-.241-.983-.702-.296.346-1.127.26-1.486.206-.145-.021-.287-.012-.366.13-.047.08-.125.057-.173.045l-.655-.141c-.115-.027-.166-.004-.216.101l-.13.27c-.03.064-.028.11.024.162l.063.066c-.037.129-.156.228-.156.228l-.143-.16c-.069-.081-.073-.199-.018-.313l.213-.443c.025-.049.07-.102.159-.102l.81-.012-.248-.403c-.184-.302.122-.842.076-1.096-.026.34-.439.185-.504.232Zm-.88 1.016.384-.292c.068-.051.114-.084.192-.075l.542.072c.03.13.116.256.116.256l-.577-.121c-.081-.01-.105-.006-.182.05l-.273.205c-.054.042-.056.109-.025.174l.044.095-.19.143-.074-.136c-.074-.145-.079-.277.043-.37ZM11.816 6.302c.21.145.58.3.58.3v-.247l-.818-.312s0 .1.238.26ZM12.398 6.005V5.76l-.93-.331s.111.117.348.278c.21.144.582.3.582.3ZM12.393 5.445v-.248l-1.018-.373s.199.16.436.322c.21.145.582.299.582.299Z" fill="#12181C"/><path fill-rule="evenodd" clip-rule="evenodd" d="M15.25 8.81h1.04c-.043-.15-.205-.302-.508-.302a.585.585 0 0 0-.532.302ZM14.172 4.824l-1.016.373v.248s.372-.154.582-.299c.236-.162.434-.322.434-.322ZM13.974 6.043l-.818.313v.247s.372-.156.582-.3c.236-.16.236-.26.236-.26ZM14.085 5.428l-.929.331v.246s.373-.154.582-.297c.237-.163.347-.28.347-.28ZM9.758 8.508c-.303 0-.465.152-.508.302h1.042a.588.588 0 0 0-.534-.302Z" fill="#12181C"/><path fill-rule="evenodd" clip-rule="evenodd" d="M14.84 4.16c0-.585-.982-1.107-2.067-1.107-1.085 0-2.068.522-2.068 1.106l.023.144.432 2.479-2.05 1.192c-.218.128-.491.48-.526.834h.374c.062-.354.341-.746.865-.722.474.025.754.312 1.032.722l.072.108.103.161H8.016c.221.444.431.915.431 1.426v6.254c0 1.608 1.238 2.375 2.58 2.375 1.035 0 1.175-.047 1.747.524.57-.57.71-.524 1.748-.524 1.34 0 2.58-.767 2.58-2.375v-6.253c0-.51.209-.982.43-1.426h-3.016l.104-.161.072-.108c.277-.41.558-.697 1.032-.722.521-.024.803.368.864.722h.373c-.034-.354-.308-.707-.525-.834l-2.05-1.192.433-2.48.022-.144Zm-3.715.284 1.53.519V7.35l-1.127-.59-.403-2.317ZM11.5 9.51c.202.275.528.479.914.558a.782.782 0 0 0 .264.431c-.063.427.12.825.58.93a.6.6 0 0 0 .41.46l-.32.368a.47.47 0 0 1-.413.17l-1.429-.161c.063-.158-.103-.341-.555-.263l.562-1.567-.342-.726-.65.553-.048 1.643-.276-.135c-.363-.156-.468.498-.123.5l.136.002c-.008.067.012.141.065.164-.065.027-.084.15-.002.192-.083.039-.094.163-.028.217-.072.12-.082.383.168.448.205.054.333-.166.375-.294l2.222.687c.316.09.539.04.8-.19l.58-.505c-.073.331.047.629.3.728 0 0-.036.298-.025.43H8.88v-3.647c0-.34-.098-.68-.216-.993h2.837Zm2.39 1.384a.746.746 0 0 0 .034.744l-.096.093c-.417-.051-.581-.672-.581-.672a.964.964 0 0 0-.012.165c-.244-.09-.397-.305-.385-.6a.965.965 0 0 0 .305.106l.03-.182a.632.632 0 0 1-.527-.447c-.014-.001-.026-.005-.04-.006.052.004.104.008.156.008.173 0 .337-.026.49-.071a.802.802 0 0 0 .552.319c-.035.143-.018.322.074.543Zm.618 1.64a.628.628 0 0 0-.098.192l-.232.213c.047-.34-.182-.74-.39-.904l.246-.242.05.05c-.084.217.078.642.424.692Zm-1.124-.105.192-.188c.194.17.45.549.37.91l-.208.191a.71.71 0 0 1-.133.1c.13-.322-.036-.817-.22-1.013Zm-.412.159h.006c.07.01.144-.002.211-.03.146.209.26.683.085.978a.96.96 0 0 1-.287-.042l-.072-.021c.147-.229.127-.633.057-.886Zm-.483-.06.27.033c.043.224.014.61-.128.83l-.315-.09c.138-.187.203-.571.173-.773Zm-.562-.069.327.039c.032.18-.029.56-.152.742l-.333-.095c.133-.176.18-.486.158-.686Zm-1.325-.087c-.152.05-.219-.06-.213-.154.298-.109.432-.038.52.017.08.05.146.194.254.283a2.33 2.33 0 0 1-.1.418c-.305-.078-.32-.347-.207-.511-.063-.074-.13-.093-.254-.053Zm-.213.595s.091.038.206.046c-.013.064-.062.123-.14.107-.065-.015-.093-.094-.066-.153Zm-.3-.873c-.076-.05-.043-.16.041-.16.092.002.215.106.336.157 0 0-.318.043-.378.003Zm.31.633c.066.064.263.04.263.04l.008.04c-.087.114-.326.063-.271-.08Zm.266-.13c-.142.056-.287-.02-.242-.111.066.06.249.03.249.03l-.007.081Zm.208-1.642-.27.984.092-1.588.42-.358.213.468-.54 1.543.143-1.038c.013-.074-.046-.083-.058-.011Zm.02 1.194s.301-.015.387.018c.062.026.02.131-.062.12-.085-.012-.325-.138-.325-.138Zm.473.239.328.04c.025.18-.021.484-.139.653l-.317-.092c.084-.2.104-.387.128-.601Zm5.301 4.369c0 .76-.352 1.338-.938 1.659l.21-.426h-.204l-.27.545c-.279.105-.595.164-.945.164-1.07 0-1.353.043-1.748.437-.397-.394-.68-.437-1.748-.437-.347 0-.664-.056-.942-.161h.008l.27-.548h-.204l-.236.48a1.937 1.937 0 0 1-.164-.087l.194-.393H9.75l-.144.293c-.458-.336-.727-.862-.727-1.526v-2.392h7.787v2.392h.002Zm.217-7.247c-.12.314-.218.653-.218.993v3.648h-.425c-.193-.187-.356-.809-.356-.809-.106.224.015.677.128.809h-.548c-.135-.183-.253-.832-.253-.832-.164.187-.06.69.042.832h-.364c-.023-.26.051-.542.051-.542-.19-.035-.393-.135-.392-.346.096.09.136.089.269.086l.155-.122c-.513.017-.537-.545-.13-.808-.406.013-.71-.229-.562-.66-.289-.149-.39-.637-.177-.85-.155-.168-.18-.497-.082-.72-.205 0-.435-.082-.563-.222-.01.005-.022.008-.033.012.257-.104.474-.267.62-.468h2.838Zm-1.55-1.756c-.423.073-.786.589-1.083 1.054l-.034.054h-.317l-.001.055c-.033.359-.374.846-1.127.846-.348 0-.61-.107-.79-.252a.93.93 0 0 1-.302-.433.718.718 0 0 1-.034-.161l-.002-.055h-.315l-.034-.054c-.298-.464-.661-.98-1.082-1.054l1.15-.666 1.411.766 1.41-.766 1.15.666Zm-1.317-.995-1.125.591V4.963l1.53-.52-.405 2.317Zm-1.244-2.058-1.672-.659c.141-.335.797-.62 1.672-.62.874 0 1.528.285 1.67.62l-1.67.659Z" fill="#12181C"/><path fill-rule="evenodd" clip-rule="evenodd" d="m16.497 11.87.004-.184c-.562-.013-.692-.674-.692-.674-.164.486.265.85.688.857ZM15.78 12.991l-.057-.173c-.48.122-.727-.636-.727-.636-.154.551.38.94.784.81ZM16.115 12.287c-.573.09-.808-.574-.808-.574-.063.362.172.73.552.768-.087.472.353.715.734.546l-.055-.165c-.33.111-.641-.215-.423-.575ZM15.778 10.387l.005-.183c-.756-.156-.693-.675-.693-.675-.163.49.266.85.688.858ZM10.974 17.992l-.27.548h.203l.27-.548h-.203ZM11.387 17.992l-.27.548h.205l.268-.548h-.203ZM13.02 17.992l-.27.548h.203l.27-.548h-.203ZM13.436 17.992l-.272.548h.205l.268-.548h-.2ZM12.615 17.992l-.271.548h.204l.27-.548h-.203ZM15.008 18.54h.204l.27-.548h-.204l-.27.548ZM11.801 17.992l-.27.548h.204l.27-.548H11.8ZM12.207 17.992l-.27.548h.206l.27-.548h-.206ZM11.28 15.045c-.037 0-.07.036-.07.082 0 .046.033.083.07.083.039 0 .072-.037.072-.083 0-.046-.033-.082-.072-.082ZM12.777 2.684c.84 0 1.512.278 1.882.576 0 0 .111-.665.487-1.249l-.676.075-.354-.75-.68.352-.659-.653-.66.653-.681-.353-.354.751-.676-.075c.377.584.487 1.249.487 1.249.371-.298 1.045-.576 1.884-.576Zm-1.579-.299.323-.681.597.317.66-.65.658.65.597-.317.32.681.396-.06c-.102.19-.179.356-.25.59a3.597 3.597 0 0 0-1.722-.448c-.646 0-1.29.195-1.723.447a3.015 3.015 0 0 0-.251-.59l.395.061Z" fill="#12181C"/><path fill-rule="evenodd" clip-rule="evenodd" d="M13.46 1.34a.18.18 0 0 0 .194-.163c.01-.098-.135-.359-.135-.359s-.214.231-.221.33a.18.18 0 0 0 .162.192ZM14.571 1.742a.178.178 0 0 0 .241-.075c.048-.086.017-.382.017-.382s-.285.128-.332.215a.18.18 0 0 0 .074.242ZM12.083 1.34a.18.18 0 0 0 .164-.193c-.01-.098-.222-.329-.222-.329s-.142.262-.134.36a.178.178 0 0 0 .192.162ZM10.978 1.742a.18.18 0 0 0 .074-.242c-.045-.087-.332-.215-.332-.215s-.03.296.018.382a.176.176 0 0 0 .24.075ZM24.26 7.817c.235-.084.418-.309.509-.517-.6-.086-2.196-.754-3.507-.21.491-.465.932-.525.974-1.195.204.146.548.229.742-.12-.135-.398-.477-.075-.525-.185-.067-.153.43.047.537-.471-.387-.133-.502.183-.572.11-.063-.07.246-.202.018-.62-.402.236-.193.5-.278.53-.103.04-.021-.283-.467-.268-.045.477.418.493.343.568-.093.092-.213-.274-.55-.088.007.385.32.597.642.506-.053.732-.727.595-1.228 1.42 1.062.544 1.543 1.49 2.196 2.146.216-.153.585-.832.585-.832.707.546 1.205.002 1.205.002-.244-.249-.253-.437-.625-.776Zm-1.031.133c.073.161.218.725-.129 1.154-.394-.786-.936-1.46-1.375-1.75-.095-.062.053-.17.324-.207.816-.154 1.774.19 2.23.311a1.18 1.18 0 0 1-.602.256c.33.278.573.512.743.773-.32.08-.501-.122-1.191-.537ZM16.413 20.166v-.895c-.693.317-1.574.575-2.708.676l-.051.32a5.6 5.6 0 0 0 .381.035c-.42.058-.963.085-1.26.085-.298 0-.84-.027-1.26-.085.161-.01.283-.022.38-.035l-.052-.32c-1.134-.101-2.016-.359-2.708-.675v.894l-.94.385c.697.362 1.497.656 2.423.894l-.11.374c.53.155 1.377.313 2.265.313.888 0 1.734-.159 2.265-.313l-.109-.374c.924-.238 1.727-.532 2.424-.894l-.94-.385Zm-7.715.405.634-.254v-.729c.407.157.942.32 1.709.479l-.36 1.168a10.505 10.505 0 0 1-1.983-.663Zm4.076 1.347a8.539 8.539 0 0 1-2.011-.253l.38-1.226c.251.058.882.135 1.631.135.75 0 1.377-.078 1.63-.135l.381 1.226c-.599.147-1.297.253-2.011.253Zm2.094-.683-.36-1.168a10.737 10.737 0 0 0 1.71-.479v.729l.633.255c-.536.242-1.2.484-1.983.663ZM1.86 8.59s.37.68.585.833c.654-.654 1.136-1.601 2.197-2.145-.503-.826-1.176-.687-1.227-1.421.323.09.635-.122.642-.506-.338-.186-.458.183-.55.088-.075-.077.387-.09.344-.568-.446-.014-.365.309-.47.268-.083-.03.127-.295-.277-.53-.227.419.084.55.019.62-.068.073-.186-.242-.572-.11.105.518.604.318.537.471-.048.11-.388-.213-.522.185.191.35.537.267.74.121.042.671.482.727.975 1.194-1.313-.544-2.908.124-3.51.212.091.206.274.431.51.513-.372.342-.381.53-.625.778 0 0 .496.544 1.205-.002Zm-.742-.102c.171-.26.412-.496.745-.773-.218-.027-.39-.099-.603-.257.457-.12 1.416-.466 2.233-.31.269.035.42.144.322.206-.44.29-.982.964-1.376 1.75-.346-.43-.2-.992-.129-1.153-.689.414-.869.616-1.192.537ZM12.203 8.092v.393c.136-.164.4-.131.4-.131v.568s-.01.28-.109.4h.569c-.1-.12-.108-.4-.108-.4v-.567s.262-.032.398.131v-.393h-1.15v-.001Z" fill="#12181C"/><path d="M33.684 14.524v-3.8h2.249V9.34h-6.136v1.383h2.249v3.8h1.638Zm4.542-5.183h-1.638v5.183h1.638V9.34Zm1.199 0v5.183h1.506V11.66l2.806 2.864h1.398V9.34h-1.507v2.842l-2.74-2.842h-1.463Zm8.929 3.223 1.888 1.96h2.108l-2.632-2.7 2.533-2.483h-1.987l-1.91 1.949h-.437V9.34h-1.583v5.184h1.583v-1.96h.437Zm7.253-3.365c-2.129 0-3.406 1.198-3.406 2.744 0 1.546 1.277 2.744 3.406 2.744 2.118 0 3.396-1.198 3.396-2.744 0-1.546-1.278-2.744-3.396-2.744Zm0 4.225c-1.059 0-1.736-.632-1.736-1.48 0-.85.677-1.47 1.736-1.47 1.048 0 1.736.62 1.736 1.47 0 .848-.688 1.48-1.736 1.48Zm9.4-4.083h-5.252v5.183h1.583v-1.808h3.44v-1.143h-3.44v-.915h3.668V9.341Zm5.96 0h-5.252v5.183h1.583v-1.808h3.44v-1.143h-3.44v-.915h3.669V9.341Z" fill="#fff"/></g><defs><clipPath id="a"><path fill="#fff" d="M0 0h71v23H0z"/></clipPath></defs></svg>