<svg width="44" height="54" fill="none" xmlns="http://www.w3.org/2000/svg"><path fill-rule="evenodd" clip-rule="evenodd" d="M12.36 26.587c0-.458.389-.83.869-.83h18.405c.48 0 .869.372.869.83 0 .457-.39.829-.87.829H13.23c-.48 0-.87-.372-.87-.83Z" fill="#B492FF"/><path fill-rule="evenodd" clip-rule="evenodd" d="M19.557 19.29a.804.804 0 0 1 .174 1.161c-1.58 2.01-4.16 4.094-6.1 5.5-.5.363-.52 1.073-.072 1.446 1.828 1.521 4.228 3.679 6.172 6.151a.804.804 0 0 1-.174 1.16.897.897 0 0 1-1.217-.165c-1.836-2.335-4.13-4.404-5.924-5.897-1.302-1.084-1.188-3.036.163-4.015 1.915-1.387 4.333-3.358 5.761-5.174a.897.897 0 0 1 1.217-.166Z" fill="#B492FF"/></svg>