<svg width="36" height="29" fill="none" xmlns="http://www.w3.org/2000/svg"><path d="M22.867 2.426h-9.734v17.839h9.734V2.425Z" fill="#7673C0"/><path d="M13.75 11.35a11.512 11.512 0 0 1 1.116-4.96 11.287 11.287 0 0 1 3.133-3.961 11.008 11.008 0 0 0-5.688-2.36 10.937 10.937 0 0 0-6.049 1.076c-1.877.93-3.46 2.38-4.567 4.185A11.51 11.51 0 0 0 0 11.348c0 2.129.587 4.215 1.695 6.019a11.202 11.202 0 0 0 4.567 4.185 10.937 10.937 0 0 0 6.05 1.076 11.009 11.009 0 0 0 5.687-2.36 11.287 11.287 0 0 1-3.132-3.96 11.512 11.512 0 0 1-1.117-4.958Z" fill="#EB001B"/><path d="M36 11.347a11.51 11.51 0 0 1-1.694 6.02 11.204 11.204 0 0 1-4.569 4.184 10.937 10.937 0 0 1-6.05 1.076A11.008 11.008 0 0 1 18 20.265a11.306 11.306 0 0 0 3.132-3.96 11.53 11.53 0 0 0 1.119-4.96 11.53 11.53 0 0 0-1.12-4.958A11.306 11.306 0 0 0 18 2.427 11.008 11.008 0 0 1 23.688.064a10.937 10.937 0 0 1 6.05 1.076c1.877.93 3.46 2.38 4.568 4.184A11.51 11.51 0 0 1 36 11.345v.002Z" fill="#00A1DF"/><path d="M11.119 28.175v-1.93a1.196 1.196 0 0 0-.066-.478 1.154 1.154 0 0 0-.248-.407 1.09 1.09 0 0 0-.386-.264 1.05 1.05 0 0 0-.455-.074 1.095 1.095 0 0 0-.588.126 1.158 1.158 0 0 0-.445.42 1.102 1.102 0 0 0-.413-.412 1.04 1.04 0 0 0-.558-.134.935.935 0 0 0-.488.109c-.15.08-.279.2-.372.348v-.38h-.64v3.076h.646V26.47a.752.752 0 0 1 .175-.587.687.687 0 0 1 .248-.179.659.659 0 0 1 .296-.051c.424 0 .64.29.64.81v1.712h.644V26.47a.758.758 0 0 1 .178-.584.694.694 0 0 1 .246-.18.664.664 0 0 1 .295-.053c.437 0 .646.29.646.81v1.712h.645Zm3.6-1.538v-1.538h-.638v.373a1.126 1.126 0 0 0-.412-.343 1.071 1.071 0 0 0-.516-.107c-.396.02-.77.2-1.043.5-.273.3-.426.7-.426 1.115 0 .415.153.815.426 1.115.273.3.647.48 1.043.5.178.008.355-.028.516-.107.161-.078.303-.196.412-.343v.373h.639v-1.538Zm-2.377 0a.96.96 0 0 1 .173-.502.894.894 0 0 1 .41-.32.851.851 0 0 1 .508-.031.88.88 0 0 1 .442.266c.12.132.2.297.23.476.03.18.01.364-.058.53a.923.923 0 0 1-.326.41.86.86 0 0 1-.843.083.882.882 0 0 1-.297-.215.963.963 0 0 1-.24-.697Zm16.053-1.619c.215-.002.43.04.63.124a1.533 1.533 0 0 1 .833.853c.16.412.16.872 0 1.284a1.53 1.53 0 0 1-.833.853 1.667 1.667 0 0 1-1.26 0 1.516 1.516 0 0 1-.83-.853 1.784 1.784 0 0 1 0-1.284 1.518 1.518 0 0 1 .83-.853c.2-.084.414-.126.63-.124Zm0 .633a.918.918 0 0 0-.366.072.862.862 0 0 0-.29.203.95.95 0 0 0-.194.311 1.168 1.168 0 0 0 0 .8c.044.116.11.222.193.312a.862.862 0 0 0 .291.202.957.957 0 0 0 .73 0 .878.878 0 0 0 .293-.202.939.939 0 0 0 .195-.312 1.17 1.17 0 0 0 0-.8.88.88 0 0 0-.488-.514.917.917 0 0 0-.364-.072Zm-10.198.986c-.006-.959-.571-1.615-1.395-1.615a1.516 1.516 0 0 0-1.046.51 1.66 1.66 0 0 0-.416 1.127c.005.418.165.817.446 1.114.28.297.66.47 1.06.48.438.015.866-.138 1.204-.432l-.314-.495a1.361 1.361 0 0 1-.854.321.791.791 0 0 1-.585-.19.866.866 0 0 1-.294-.563h2.182c.006-.083.012-.167.012-.257Zm-2.187-.27c.01-.207.099-.4.245-.54a.737.737 0 0 1 .535-.207.712.712 0 0 1 .52.213c.139.14.22.332.224.534H16.01Zm4.879-.483a1.829 1.829 0 0 0-.916-.264c-.35 0-.56.136-.56.36 0 .207.222.264.499.303l.3.045c.64.097 1.027.38 1.027.92 0 .586-.492 1.004-1.34 1.004-.454.014-.9-.126-1.272-.399l.301-.52c.282.218.627.331.977.32.437 0 .67-.134.67-.372 0-.174-.166-.27-.516-.322l-.301-.045c-.657-.097-1.014-.406-1.014-.908 0-.61.48-.984 1.223-.984.42-.015.836.096 1.198.322l-.276.54Zm3.07-.174h-1.044v1.39c0 .31.104.515.424.515.2-.007.394-.066.565-.173l.184.572c-.24.157-.516.24-.798.238-.756 0-1.02-.424-1.02-1.139V25.71h-.596v-.61h.596v-.934h.645v.933h1.044v.611Zm2.212-.688c.155 0 .309.029.455.084l-.197.63a1 1 0 0 0-.4-.077c-.417 0-.626.283-.626.791v1.725h-.639V25.1h.633v.373a.886.886 0 0 1 .328-.336.835.835 0 0 1 .446-.114Zm4.425 2.705a.298.298 0 0 1 .274.187.313.313 0 0 1-.064.335.306.306 0 0 1-.095.066.288.288 0 0 1-.28-.026.308.308 0 0 1-.112-.374.292.292 0 0 1 .276-.187Zm0 .545a.21.21 0 0 0 .088-.019.242.242 0 0 0 .134-.265.245.245 0 0 0-.046-.104.229.229 0 0 0-.088-.07.22.22 0 0 0-.25.05.246.246 0 0 0 .073.39.222.222 0 0 0 .088.018Zm.017-.382a.119.119 0 0 1 .08.025.085.085 0 0 1 .028.066.08.08 0 0 1-.022.058.105.105 0 0 1-.064.028l.089.107h-.07l-.082-.106h-.027v.106h-.058v-.284h.126Zm-.068.053v.076h.067a.063.063 0 0 0 .037-.01.033.033 0 0 0 .014-.029c0-.005-.002-.01-.004-.015a.032.032 0 0 0-.01-.012.065.065 0 0 0-.037-.01h-.067Z" fill="#F2F3F7"/></svg>