<svg width="127" height="52" fill="none" xmlns="http://www.w3.org/2000/svg"><g filter="url(#a)"><path d="M21.35 20.524c-.253-.57-1.094-.581-1.353-.013a80.4 80.4 0 0 1-2.92 5.797.718.718 0 0 0 .036.757c.561.818 1.936 2.904 3.034 5.254.273.584 1.173.582 1.425-.011.643-1.513 1.656-3.7 2.722-5.224a.735.735 0 0 0 .037-.795 60.305 60.305 0 0 1-2.98-5.765Z" fill="url(#b)"/></g><g filter="url(#c)"><path d="M33.216 44.809a.696.696 0 0 0-.556 1l.68 1.383c.244.495.747.808 1.298.808h15.853c.496 0 .958-.254 1.223-.674L53 45.291c-5.896-2.239-12.053-15.94-12.173-16.21l-.008-.016L28.554 4.263a.696.696 0 0 0-1.248 0l-3.14 6.366a3.72 3.72 0 0 0 .025 3.347c2.826 5.517 9.072 17.895 11.558 22.92 3.043 6.156-.456 7.525-2.01 7.862l-.523.05Z" fill="url(#d)"/></g><g filter="url(#e)"><path d="M14.874 35.537c-.264-.555-1.096-.557-1.369-.006C12.21 38.15 9.158 43.474 5 45.29L6.142 48h14.39c.614 0 1.16-.388 1.364-.967l.612-1.742c-1.056-.465-4.131-2.381-7.634-9.754Z" fill="url(#f)"/></g><path d="M88.245 34.255v.473l.329 9.943c.293.22.563.329.812.329.249 0 .388-.226.417-.678 0-.137-.007-.459-.022-.966 0-.52-.007-1.13-.022-1.828 0-.699-.007-1.445-.022-2.24l-.044-2.239c-.014-.698-.03-1.3-.044-1.808-.014-.52-.022-.849-.022-.986l.022-.438-.022-.37v-.61c-.043-.37-.073-.773-.087-1.212-.015-.451-.022-.91-.022-1.376l.043-1.418c.015-.479.037-.931.066-1.355a.595.595 0 0 0-.263-.33.729.729 0 0 0-.439-.143.742.742 0 0 0-.439.103.585.585 0 0 0-.285.39l.044 5.814V34.255ZM79.598 43.336c-.395-.014-.731-.123-1.01-.329-.409.15-.606.363-.592.637.015.26.19.527.527.801.307.083.71.09 1.207.02a8.763 8.763 0 0 0 1.624-.39c.585-.191 1.17-.43 1.756-.719.585-.3 1.112-.63 1.58-.986.483-.37.877-.76 1.185-1.17.307-.425.468-.864.483-1.316-.03-.712-.183-1.198-.461-1.458-.278-.274-.63-.425-1.054-.452a4.782 4.782 0 0 0-1.426.103c-.527.095-1.046.164-1.558.205-.498.041-.973 0-1.427-.123-.439-.137-.797-.452-1.075-.945-.132-.425-.102-.898.088-1.418.19-.52.512-.986.965-1.397.454-.425 1.025-.753 1.712-.986.688-.233 1.463-.267 2.326-.103.249.027.447-.02.593-.144a.68.68 0 0 0 .241-.493c.015-.164-.007-.287-.066-.37a.41.41 0 0 0-.22-.184.937.937 0 0 0-.35-.062 17.345 17.345 0 0 0-.395-.041 5.906 5.906 0 0 0-2.173.287 6.737 6.737 0 0 0-1.931 1.007 5.743 5.743 0 0 0-1.426 1.603 4.379 4.379 0 0 0-.615 1.992c-.03.74.14 1.288.505 1.644.366.356.841.582 1.426.678.6.096 1.273.096 2.02 0a25.521 25.521 0 0 0 2.238-.39c.41.137.673.321.79.554.117.233.124.493.022.781-.103.274-.3.568-.593.883a6.07 6.07 0 0 1-1.01.863c-.38.274-.804.528-1.272.76a7.88 7.88 0 0 1-1.36.514 4.61 4.61 0 0 1-1.274.144Z" fill="#fff"/><path fill-rule="evenodd" clip-rule="evenodd" d="M99.525 44.28c-.205-.287-.337-.663-.395-1.129a22.511 22.511 0 0 1-.088-1.459v-1.52c.014-.507-.022-.938-.11-1.294-.688 1.41-1.338 2.513-1.953 3.307-.6.781-1.156 1.343-1.668 1.685-.497.329-.95.48-1.36.452a1.966 1.966 0 0 1-1.054-.41 2.706 2.706 0 0 1-.658-.884 2.769 2.769 0 0 1-.264-1.007c-.102-.52-.11-1.144-.021-1.87.102-.74.27-1.5.504-2.28.249-.78.556-1.54.922-2.28a9.763 9.763 0 0 1 1.273-1.952c.483-.548.995-.952 1.536-1.212a2.196 2.196 0 0 1 1.69-.144c.292-.028.534-.014.724.041a.88.88 0 0 1 .505.288c.131.15.226.363.285.636a7 7 0 0 1 .132 1.007c-.03 1.329.007 2.459.11 3.39.116.931.248 1.753.394 2.465.147.713.286 1.356.417 1.932.147.575.234 1.17.264 1.787 0 .22-.059.39-.176.514a.782.782 0 0 1-.395.205.62.62 0 0 1-.417-.02c-.117-.055-.183-.137-.197-.247Zm-1.273-10.374c-.351-.438-.732-.623-1.141-.555-.41.069-.82.308-1.23.72-.394.397-.775.924-1.14 1.581a13.85 13.85 0 0 0-1.536 4.294c-.118.726-.14 1.37-.066 1.931.204.617.453.986.746 1.11.292.123.607.082.943-.124.337-.219.68-.561 1.032-1.027.35-.465.687-.965 1.01-1.5.321-.547.606-1.088.855-1.623a41.47 41.47 0 0 0 .637-1.376l-.11-3.431Z" fill="#fff"/><path d="M101.719 39.289c.029 1.314.066 2.917.11 4.807.058.15.161.267.307.35a.946.946 0 0 0 .461.082.81.81 0 0 0 .417-.103.44.44 0 0 0 .219-.35c.015-.452.008-.979-.022-1.581a43.436 43.436 0 0 1 0-1.911c.03-.671.096-1.342.198-2.014a6.995 6.995 0 0 1 .636-1.951 5.05 5.05 0 0 1 .834-1.212 5.7 5.7 0 0 1 1.251-.986c.483-.288 1.01-.5 1.58-.637a5.955 5.955 0 0 1 1.866-.165.669.669 0 0 0 .307-.246.524.524 0 0 0 .11-.37.53.53 0 0 0-.154-.37c-.088-.11-.227-.185-.417-.226-.571-.096-1.192-.089-1.865.02-.659.11-1.295.35-1.91.72-.614.356-1.17.849-1.667 1.479-.483.63-.834 1.418-1.054 2.363l-.066-4.726a.524.524 0 0 0-.285-.267.72.72 0 0 0-.417-.04.781.781 0 0 0-.373.143.434.434 0 0 0-.198.308v.514c.015.233.022.596.022 1.089.015.479.03 1.15.044 2.013.015.863.037 1.952.066 3.267Z" fill="#fff"/><path d="M116.116 17.57c-.969-2.49-13.422.296-27.814 6.223C73.909 29.718 63.027 36.54 63.996 39.03" stroke="url(#g)" stroke-width="2.627"/><path d="M91.68 12.507c1.006-.662 2.442-2.094 3.173-4.446h2.163v4.367h3.089v1.31h-3.09v8.588c0 1.048.122 1.776.366 2.183.243.389.608.582 1.095.582.524 0 1.048-.126 1.572-.378.206-.116.422-.252.646-.408l.393.816a6.972 6.972 0 0 1-.87.64c-.786.427-1.713.64-2.78.64-1.292 0-2.293-.358-3.005-1.077-.711-.737-1.067-1.795-1.067-3.173v-8.413H91.68v-1.23Z" fill="#fff"/><path fill-rule="evenodd" clip-rule="evenodd" d="M77.408 26.227c-1.18 0-2.246-.252-3.201-.757-.955-.524-1.732-1.533-2.33-3.028l-.647-1.63h-7.47l-2.302 5.298h-1.46l8.284-19.214h1.264l6.29 15.546c.711 1.805 1.685 2.776 2.92 2.912v.727c-.337.097-.786.146-1.348.146ZM64.35 19.502h6.347l-3.09-7.598-3.257 7.598Z" fill="#fff"/><path d="M84.385 26.402c-2.19 0-3.697-.398-4.52-1.194-.3-.291-.487-.699-.562-1.223-.075-.543-.113-1.29-.113-2.241h.983c.169 1.009.552 1.824 1.151 2.445.6.602 1.433.902 2.5.902 1.872 0 2.808-.66 2.808-1.98 0-.504-.206-.921-.618-1.251-.393-.33-1.03-.699-1.91-1.106l-1.46-.64c-1.198-.544-2.096-1.136-2.695-1.777-.6-.64-.899-1.416-.899-2.329 0-1.222.487-2.173 1.46-2.853.992-.679 2.284-1.018 3.875-1.018 2.19 0 3.698.397 4.521 1.193.3.291.487.699.562 1.223.075.524.112 1.271.112 2.241h-.982c-.169-1.009-.553-1.814-1.152-2.416-.599-.62-1.432-.931-2.499-.931-.805 0-1.404.184-1.797.553-.393.349-.59.825-.59 1.426 0 .485.16.893.477 1.223.337.31.843.621 1.517.931l1.685.728c1.385.602 2.377 1.213 2.976 1.834.618.602.927 1.398.927 2.388 0 1.242-.533 2.203-1.6 2.882-1.049.66-2.434.99-4.157.99ZM111.717 12.719c.337.252.58.534.73.844.15.291.224.446.224.466l-1.432 1.135a4.41 4.41 0 0 0-.505-.553 2.025 2.025 0 0 0-1.432-.582c-1.086 0-1.919.3-2.5.902l.057.437c.037.35.056.67.056.96v9.782h-3.651v-9.898c0-.99-.131-1.717-.393-2.183-.243-.485-.758-.728-1.544-.728h-.281v-.873h2.78c.636 0 1.132.087 1.488.262.375.155.665.427.871.815 1.011-.912 2.19-1.369 3.538-1.369.805 0 1.469.195 1.994.583Z" fill="#fff"/><path fill-rule="evenodd" clip-rule="evenodd" d="M116.664 25.47c1.03.621 2.228.932 3.594.932 1.367 0 2.556-.31 3.567-.932a6.372 6.372 0 0 0 2.359-2.562c.542-1.087.814-2.3.814-3.639 0-1.34-.272-2.542-.814-3.61a6.133 6.133 0 0 0-2.359-2.562c-1.011-.64-2.2-.96-3.567-.96-1.366 0-2.564.32-3.594.96a6.186 6.186 0 0 0-2.331 2.562c-.543 1.068-.814 2.27-.814 3.61 0 1.34.271 2.552.814 3.64a6.431 6.431 0 0 0 2.331 2.561Zm5.785-1.98c-.506 1.068-1.236 1.602-2.191 1.602-.954 0-1.684-.534-2.19-1.602-.505-1.067-.758-2.474-.758-4.221 0-1.747.253-3.154.758-4.221.506-1.068 1.236-1.601 2.19-1.601.955 0 1.685.533 2.191 1.6.505 1.068.758 2.475.758 4.222 0 1.747-.253 3.154-.758 4.221Z" fill="#fff"/><path d="M116.116 17.57c.969 2.49-9.913 9.312-24.306 15.238-14.392 5.927-26.845 8.712-27.814 6.223" stroke="#fff" stroke-width="2.627"/><defs><linearGradient id="b" x1="20.716" y1="18.948" x2="20.716" y2="34.042" gradientUnits="userSpaceOnUse"><stop stop-color="#45DEFF"/><stop offset="1" stop-color="#fff"/></linearGradient><linearGradient id="d" x1="38.143" y1="3" x2="45.774" y2="50.031" gradientUnits="userSpaceOnUse"><stop stop-color="#00FDFE"/><stop offset="1" stop-color="#0266EF"/></linearGradient><linearGradient id="f" x1="13.739" y1="34.042" x2="15.007" y2="48.906" gradientUnits="userSpaceOnUse"><stop stop-color="#00FDFE"/><stop offset="1" stop-color="#0266EF"/></linearGradient><linearGradient id="g" x1="90.148" y1="29.284" x2="87.334" y2="22.216" gradientUnits="userSpaceOnUse"><stop stop-color="#fff"/><stop offset="1" stop-color="#fff" stop-opacity="0"/></linearGradient><filter id="a" x="4.462" y="8.031" width="32.491" height="37.711" filterUnits="userSpaceOnUse" color-interpolation-filters="sRGB"><feFlood flood-opacity="0" result="BackgroundImageFix"/><feColorMatrix in="SourceAlpha" values="0 0 0 0 0 0 0 0 0 0 0 0 0 0 0 0 0 0 127 0" result="hardAlpha"/><feOffset dy=".464"/><feGaussianBlur stdDeviation="6.262"/><feComposite in2="hardAlpha" operator="out"/><feColorMatrix values="0 0 0 0 0 0 0 0 0 1 0 0 0 0 0.64 0 0 0 0.7 0"/><feBlend in2="BackgroundImageFix" result="effect1_dropShadow_2015_713"/><feBlend in="SourceGraphic" in2="effect1_dropShadow_2015_713" result="shape"/></filter><filter id="c" x="19.606" y=".397" width="35.713" height="50.618" filterUnits="userSpaceOnUse" color-interpolation-filters="sRGB"><feFlood flood-opacity="0" result="BackgroundImageFix"/><feColorMatrix in="SourceAlpha" values="0 0 0 0 0 0 0 0 0 0 0 0 0 0 0 0 0 0 127 0" result="hardAlpha"/><feOffset dx="-.928" dy="-.232"/><feGaussianBlur stdDeviation="1.623"/><feComposite in2="hardAlpha" operator="out"/><feColorMatrix values="0 0 0 0 0.368627 0 0 0 0 0.266667 0 0 0 0 0.988235 0 0 0 0.4 0"/><feBlend in2="BackgroundImageFix" result="effect1_dropShadow_2015_713"/><feBlend in="SourceGraphic" in2="effect1_dropShadow_2015_713" result="shape"/></filter><filter id="e" x=".826" y="31.641" width="24.002" height="19.374" filterUnits="userSpaceOnUse" color-interpolation-filters="sRGB"><feFlood flood-opacity="0" result="BackgroundImageFix"/><feColorMatrix in="SourceAlpha" values="0 0 0 0 0 0 0 0 0 0 0 0 0 0 0 0 0 0 127 0" result="hardAlpha"/><feOffset dx="-.928" dy="-.232"/><feGaussianBlur stdDeviation="1.623"/><feComposite in2="hardAlpha" operator="out"/><feColorMatrix values="0 0 0 0 0.368627 0 0 0 0 0.266667 0 0 0 0 0.988235 0 0 0 0.4 0"/><feBlend in2="BackgroundImageFix" result="effect1_dropShadow_2015_713"/><feBlend in="SourceGraphic" in2="effect1_dropShadow_2015_713" result="shape"/></filter></defs></svg>