<svg width="768" height="72" fill="none" xmlns="http://www.w3.org/2000/svg"><g filter="url(#a)"><path fill-rule="evenodd" clip-rule="evenodd" d="M768 0H0v71.757c5.905.575 14.16.035 24.365-.633 6.064-.397 12.816-.839 20.172-1.118 12.322-.469 18.645-.32 23.87-.197 4.518.107 8.215.194 14.26-.154 13.758-.792 14.941-.647 20.722.063 2.206.27 5.083.624 9.584 1.038 10.434.961 16.838.692 25.955.307 5.121-.215 11.098-.467 19.126-.557 7.134-.08 12.533.036 18.53.164 11.873.254 26.088.558 60.749-.506 12.84-.394 18.04-.142 24.808.186 6.116.297 13.512.656 28.982.656 29.151 0 40.017-.68 49.07-1.248 6.466-.406 12.007-.753 22.625-.753 27.217 0 36.353.756 43.278 1.329 3.316.274 6.126.506 10.171.594 7.341.158 13.02.129 19.263.097 10.383-.053 22.325-.115 46.07.667 16.859.554 29.344-.214 40.757-.916 9.913-.61 19.016-1.17 29.473-.77 14.411.55 21.067.54 37.653.514 4.125-.007 8.864-.014 14.489-.014 42.639 0 82.118-.77 113.563-1.382 20.812-.405 38.104-.742 50.465-.742V0Z" fill="#19043C" fill-opacity=".6"/></g><defs><filter id="a" x="-30" y="-30" width="828" height="132" filterUnits="userSpaceOnUse" color-interpolation-filters="sRGB"><feFlood flood-opacity="0" result="BackgroundImageFix"/><feGaussianBlur in="BackgroundImageFix" stdDeviation="15"/><feComposite in2="SourceAlpha" operator="in" result="effect1_backgroundBlur_6046_6834"/><feBlend in="SourceGraphic" in2="effect1_backgroundBlur_6046_6834" result="shape"/></filter></defs></svg>