<svg width="360" height="65" fill="none" xmlns="http://www.w3.org/2000/svg"><g filter="url(#a)"><path fill-rule="evenodd" clip-rule="evenodd" d="M360 0H0v64.757c2.768.575 6.638.035 11.421-.633 2.843-.397 6.008-.839 9.456-1.118 5.776-.469 8.74-.32 11.189-.197 2.117.107 3.85.194 6.684-.154 6.45-.792 7.004-.647 9.714.063 1.034.27 2.382.624 4.492 1.038 4.891.961 7.893.692 12.166.307 2.401-.215 5.203-.467 8.966-.557 3.344-.08 5.875.036 8.686.164 5.565.254 12.229.558 28.476-.506 6.018-.394 8.456-.142 11.629.186 2.867.297 6.334.656 13.585.656 13.664 0 18.758-.68 23.002-1.248 3.03-.406 5.628-.753 10.605-.753 12.758 0 17.04.756 20.286 1.328 1.555.275 2.872.507 4.768.595 3.441.158 6.103.129 9.03.097 4.867-.053 10.465-.115 21.595.667 7.903.554 13.755-.214 19.105-.916 4.646-.61 8.914-1.17 13.815-.77 6.755.55 9.876.54 17.65.514 1.934-.007 4.155-.014 6.792-.014 19.987 0 38.492-.77 53.232-1.382 9.756-.405 17.862-.742 23.656-.742V0Z" fill="#19043C" fill-opacity=".6"/></g><defs><filter id="a" x="-30" y="-30" width="420" height="125" filterUnits="userSpaceOnUse" color-interpolation-filters="sRGB"><feFlood flood-opacity="0" result="BackgroundImageFix"/><feGaussianBlur in="BackgroundImageFix" stdDeviation="15"/><feComposite in2="SourceAlpha" operator="in" result="effect1_backgroundBlur_6046_6855"/><feBlend in="SourceGraphic" in2="effect1_backgroundBlur_6046_6855" result="shape"/></filter></defs></svg>