<svg width="1440" height="78" fill="none" xmlns="http://www.w3.org/2000/svg"><g filter="url(#a)" fill="#19043C" fill-opacity=".6"><path d="M0 67h1440V0H0zM0 77.757V67h1440v7.382c-58.19 0-174.69 2.124-307.55 2.124-52.96 0-64.03.187-97.77-.5-42.18-.86-72.613 2.722-131.68 1.686-71.287-1.251-85.838-.342-122.5-.764-23.423-.27-24.746-1.923-100.217-1.923-47.783 0-40.735 2.001-134.427 2.001-61.103 0-55.028-1.593-100.856-.842-97.81 1.602-108.786.104-148.649.342-41.851.25-53.975 1.751-84.526.25-30.552-1.5-21.181-2.196-56.825-1.101-24.441.75-28.414-.523-71.492.35C46.5 76.757 17.652 78.675 0 77.758Z"/></g><defs><filter id="a" x="-30" y="-30" width="1500" height="138" filterUnits="userSpaceOnUse" color-interpolation-filters="sRGB"><feFlood flood-opacity="0" result="BackgroundImageFix"/><feGaussianBlur in="BackgroundImageFix" stdDeviation="15"/><feComposite in2="SourceAlpha" operator="in" result="effect1_backgroundBlur_6046_6817"/><feBlend in="SourceGraphic" in2="effect1_backgroundBlur_6046_6817" result="shape"/></filter></defs></svg>