<svg width="768" height="72" viewBox="0 0 768 72" fill="none" xmlns="http://www.w3.org/2000/svg">
<g filter="url(#filter0_b_6046_6834)">
<path fill-rule="evenodd" clip-rule="evenodd" d="M768 0H0V61V71.7567C5.90549 72.332 14.1605 71.7918 24.3653 71.124C30.4289 70.7272 37.1808 70.2854 44.5374 70.0057C56.8588 69.5373 63.1817 69.6862 68.4069 69.8093C72.9248 69.9157 76.6221 70.0028 82.6666 69.6548C96.425 68.8627 97.608 69.0079 103.389 69.7176C105.595 69.9885 108.472 70.3416 112.973 70.7562C123.407 71.7172 129.811 71.4475 138.928 71.0634C144.049 70.8477 150.026 70.596 158.054 70.506C165.188 70.4261 170.587 70.5416 176.584 70.6699C188.457 70.924 202.672 71.2282 237.333 70.1639C250.173 69.7697 255.373 70.0221 262.141 70.3505C268.257 70.6473 275.653 71.0062 291.123 71.0062C320.274 71.0062 331.14 70.3251 340.193 69.7576C346.659 69.3523 352.2 69.005 362.818 69.005C390.035 69.005 399.171 69.7607 406.096 70.3335C409.412 70.6079 412.222 70.8403 416.267 70.9276C423.608 71.0861 429.287 71.057 435.53 71.025C445.913 70.9717 457.855 70.9105 481.6 71.6916C498.459 72.2461 510.944 71.478 522.357 70.7758C532.27 70.1659 541.373 69.6058 551.83 70.0055C566.241 70.5563 572.897 70.5458 589.483 70.5197C593.608 70.5133 598.347 70.5058 603.972 70.5058C646.611 70.5057 686.09 69.7367 717.535 69.1242C738.347 68.7188 755.639 68.382 768 68.382L768 61V0Z" fill="#19043C" fill-opacity="0.6"/>
</g>
<defs>
<filter id="filter0_b_6046_6834" x="-30" y="-30" width="828" height="132" filterUnits="userSpaceOnUse" color-interpolation-filters="sRGB">
<feFlood flood-opacity="0" result="BackgroundImageFix"/>
<feGaussianBlur in="BackgroundImageFix" stdDeviation="15"/>
<feComposite in2="SourceAlpha" operator="in" result="effect1_backgroundBlur_6046_6834"/>
<feBlend mode="normal" in="SourceGraphic" in2="effect1_backgroundBlur_6046_6834" result="shape"/>
</filter>
</defs>
</svg>
