<svg width="360" height="65" viewBox="0 0 360 65" fill="none" xmlns="http://www.w3.org/2000/svg">
<g filter="url(#filter0_b_6046_6855)">
<path fill-rule="evenodd" clip-rule="evenodd" d="M360 0H0V54H3.05176e-05V64.7567C2.76822 65.332 6.63777 64.7918 11.4213 64.124C14.2636 63.7272 17.4286 63.2854 20.8769 63.0057C26.6526 62.5373 29.6165 62.6862 32.0658 62.8093C34.1835 62.9157 35.9166 63.0028 38.75 62.6548C45.1992 61.8627 45.7537 62.0079 48.4635 62.7176C49.4979 62.9885 50.8462 63.3416 52.9561 63.7562C57.847 64.7172 60.8488 64.4475 65.1225 64.0634C67.523 63.8477 70.3247 63.596 74.0877 63.506C77.4318 63.4261 79.9627 63.5416 82.7735 63.6699C88.3393 63.924 95.0027 64.2282 111.25 63.1639C117.268 62.7697 119.706 63.0221 122.879 63.3505C125.746 63.6473 129.213 64.0062 136.464 64.0062C150.128 64.0062 155.222 63.3251 159.466 62.7576C162.496 62.3523 165.094 62.005 170.071 62.005C182.829 62.005 187.111 62.7607 190.357 63.3335C191.912 63.6079 193.229 63.8403 195.125 63.9276C198.566 64.0861 201.228 64.057 204.155 64.025C209.022 63.9717 214.62 63.9105 225.75 64.6916C233.653 65.2461 239.505 64.478 244.855 63.7758C249.501 63.1659 253.769 62.6058 258.67 63.0055C265.425 63.5563 268.546 63.5458 276.32 63.5197C278.254 63.5133 280.475 63.5058 283.112 63.5058C303.099 63.5057 321.604 62.7367 336.344 62.1242C346.1 61.7188 354.206 61.382 360 61.382L360 54V0Z" fill="#19043C" fill-opacity="0.6"/>
</g>
<defs>
<filter id="filter0_b_6046_6855" x="-30" y="-30" width="420" height="125" filterUnits="userSpaceOnUse" color-interpolation-filters="sRGB">
<feFlood flood-opacity="0" result="BackgroundImageFix"/>
<feGaussianBlur in="BackgroundImageFix" stdDeviation="15"/>
<feComposite in2="SourceAlpha" operator="in" result="effect1_backgroundBlur_6046_6855"/>
<feBlend mode="normal" in="SourceGraphic" in2="effect1_backgroundBlur_6046_6855" result="shape"/>
</filter>
</defs>
</svg>
