<svg width="1440" height="727" viewBox="0 0 1440 727" fill="none" xmlns="http://www.w3.org/2000/svg">
<g clip-path="url(#clip0_6033_398)">
<path d="M0 726.128V705H1440L1440 722C1440 722 1265.31 723.671 1132.45 723.671C1079.49 723.671 1068.11 727.476 1034.68 722.688C995.983 717.146 965.431 728.164 906.365 726.128C835.078 723.672 814.71 726.957 778.048 726.128C754.625 725.598 755.753 720.723 680.283 720.723C638.529 720.723 639.547 724.654 545.856 724.654C484.752 724.654 491.881 720.232 446.054 721.706C348.243 724.852 336.068 720.232 296.351 723.672C256.634 727.111 242.376 727.111 211.825 724.163C181.273 721.215 183.31 717.591 147.666 719.741C123.225 721.215 126.28 717.284 83.5077 722.689C49.2899 727.013 17.6521 727.93 0 726.128Z" fill="url(#paint0_linear_6033_398)"/>
<path d="M0.00012207 0.871871V22H1440V8C1381.81 8 1265.31 3.32926 1132.45 3.32883C1079.49 3.32866 1075.42 4.80248 1034.68 4.31153C940.948 3.18185 965.432 -1.16355 906.365 0.871871C835.078 3.32841 814.71 0.0425567 778.048 0.871871C754.625 1.40171 751.57 4.80247 694.54 11.1901C637.511 17.5776 620.198 0.871662 545.856 0.871662C484.753 0.871662 481.697 4.80248 445.036 4.80248C347.008 4.80248 336.068 6.76809 296.351 3.32841C256.634 -0.111268 242.376 -0.110835 211.825 2.83706C181.273 5.78496 183.31 9.4089 147.666 7.25924C123.225 5.78518 126.28 9.71599 83.5078 4.31111C49.29 -0.0127831 17.6522 -0.929753 0.00012207 0.871871Z" fill="url(#paint1_linear_6033_398)"/>
<rect y="22" width="1440" height="683" fill="url(#paint2_linear_6033_398)"/>
<circle cx="1214.5" cy="488.5" r="249.5" fill="url(#paint3_radial_6033_398)"/>
<circle cx="784.5" cy="306.5" r="239.5" fill="url(#paint4_radial_6033_398)"/>
</g>
<defs>
<linearGradient id="paint0_linear_6033_398" x1="0.000242306" y1="715.81" x2="1437" y2="714.499" gradientUnits="userSpaceOnUse">
<stop offset="0.00580739" stop-color="#5024AE"/>
<stop offset="0.0776002" stop-color="#562AB4"/>
<stop offset="0.147201" stop-color="#5F34BC"/>
<stop offset="0.260822" stop-color="#6A40C6"/>
<stop offset="0.344402" stop-color="#764DD0"/>
<stop offset="0.409006" stop-color="#774ED1"/>
<stop offset="0.509808" stop-color="#754CCE"/>
<stop offset="0.592723" stop-color="#734ACB"/>
<stop offset="0.648411" stop-color="#6B43C2"/>
<stop offset="0.726228" stop-color="#613AB6"/>
<stop offset="0.806614" stop-color="#5731AA"/>
<stop offset="0.894462" stop-color="#4C279D"/>
<stop offset="1" stop-color="#472397"/>
</linearGradient>
<linearGradient id="paint1_linear_6033_398" x1="1428.86" y1="13.5008" x2="17.2715" y2="3.24543" gradientUnits="userSpaceOnUse">
<stop stop-color="#7048C8"/>
<stop offset="0.0459168" stop-color="#734BCC"/>
<stop offset="0.115153" stop-color="#754CCE"/>
<stop offset="0.180876" stop-color="#774ED0"/>
<stop offset="0.225756" stop-color="#784FD1"/>
<stop offset="0.28009" stop-color="#754BCF"/>
<stop offset="0.434748" stop-color="#6237BE"/>
<stop offset="0.540891" stop-color="#5529B3"/>
<stop offset="0.616069" stop-color="#4F24AE"/>
<stop offset="0.685041" stop-color="#4E23AB"/>
<stop offset="0.734077" stop-color="#4C21A9"/>
<stop offset="0.79467" stop-color="#4B20A8"/>
<stop offset="0.890459" stop-color="#4B20A8"/>
<stop offset="1" stop-color="#4B20A8"/>
</linearGradient>
<linearGradient id="paint2_linear_6033_398" x1="190.5" y1="141.462" x2="1496.45" y2="1201.7" gradientUnits="userSpaceOnUse">
<stop offset="0.02" stop-color="#4B20A8"/>
<stop offset="0.153776" stop-color="#5125B0"/>
<stop offset="0.363798" stop-color="#784FD2"/>
<stop offset="0.511517" stop-color="#734ACC"/>
<stop offset="0.730042" stop-color="#4A259A"/>
<stop offset="1" stop-color="#3D1A8A"/>
</linearGradient>
<radialGradient id="paint3_radial_6033_398" cx="0" cy="0" r="1" gradientUnits="userSpaceOnUse" gradientTransform="translate(1214.5 488.5) rotate(90) scale(184.5)">
<stop stop-color="#00FFA3" stop-opacity="0.34"/>
<stop offset="0.697917" stop-color="#00FFA3" stop-opacity="0.112749"/>
<stop offset="0.863729" stop-color="#00FFA3" stop-opacity="0.05"/>
<stop offset="1" stop-color="#00FFA3" stop-opacity="0"/>
</radialGradient>
<radialGradient id="paint4_radial_6033_398" cx="0" cy="0" r="1" gradientUnits="userSpaceOnUse" gradientTransform="translate(784.5 306.5) rotate(90) scale(177.105)">
<stop stop-color="#00FFA3" stop-opacity="0.34"/>
<stop offset="0.697917" stop-color="#00FFA3" stop-opacity="0.112749"/>
<stop offset="0.863729" stop-color="#00FFA3" stop-opacity="0.05"/>
<stop offset="1" stop-color="#00FFA3" stop-opacity="0"/>
</radialGradient>
<clipPath id="clip0_6033_398">
<rect width="1440" height="727" fill="white"/>
</clipPath>
</defs>
</svg>
