<svg width="128" height="54" viewBox="0 0 128 54" fill="none" xmlns="http://www.w3.org/2000/svg">
<g opacity="0.32">
<path d="M17.5737 3.28374C2.35611 8.04148 -0.447141 23.1077 0.0534388 30.046C2.55649 47.3919 11.066 51.8524 21.0776 53.3392C31.0892 54.826 81.1472 53.3392 89.1564 53.3392C97.1657 53.3392 102.172 52.348 106.176 51.8524C110.181 51.3568 130.705 44.4184 127.701 26.5769C124.698 8.7354 116.188 5.76173 110.181 3.28374C104.174 0.805753 36.5957 -2.66343 17.5737 3.28374Z" fill="#593EE7"/>
<path d="M17.5737 3.28374C2.35611 8.04148 -0.447141 23.1077 0.0534388 30.046C2.55649 47.3919 11.066 51.8524 21.0776 53.3392C31.0892 54.826 81.1472 53.3392 89.1564 53.3392C97.1657 53.3392 102.172 52.348 106.176 51.8524C110.181 51.3568 130.705 44.4184 127.701 26.5769C124.698 8.7354 116.188 5.76173 110.181 3.28374C104.174 0.805753 36.5957 -2.66343 17.5737 3.28374Z" fill="url(#paint0_linear_6036_775)"/>
</g>
<defs>
<linearGradient id="paint0_linear_6036_775" x1="56.4265" y1="-13.2453" x2="75.3123" y2="110.043" gradientUnits="userSpaceOnUse">
<stop stop-color="#5E44FC"/>
<stop offset="1" stop-color="#250858"/>
</linearGradient>
</defs>
</svg>
