<svg width="418" height="69" viewBox="0 0 418 69" fill="none" xmlns="http://www.w3.org/2000/svg">
<path d="M22.8477 5.36733C2.45271 11.4591 0.283263 27.2918 0 34C0 43.7903 3.89051 54.6487 8.98925 59C14.088 63.3513 28.3008 69 44.4468 69C60.5928 69 276.085 67.3731 310.077 67.917C344.068 68.4609 384.858 66.357 398.455 60.8462C409.055 56.5498 418 46.2323 418 38.002C418 32.0091 416.3 23.3164 411.202 17.3334C406.103 11.3504 398.455 5.36733 378.91 2.64784C359.365 -0.0716479 191.106 0.472144 186.857 0.472144C182.608 0.472144 48.3414 -2.2474 22.8477 5.36733Z" fill="#1D0744"/>
</svg>
