<svg width="54" height="54" viewBox="0 0 54 54" fill="none" xmlns="http://www.w3.org/2000/svg">
<path fill-rule="evenodd" clip-rule="evenodd" d="M19.2711 34.2803C18.9782 33.9874 18.9363 33.5545 19.1775 33.3133L33.1532 19.3375C33.3944 19.0963 33.8274 19.1382 34.1203 19.4311C34.4132 19.724 34.4551 20.157 34.2139 20.3982L20.2381 34.3739C19.9969 34.6151 19.5639 34.5732 19.2711 34.2803Z" fill="white"/>
<path fill-rule="evenodd" clip-rule="evenodd" d="M34.2711 33.9697C33.9782 34.2626 33.5452 34.3045 33.304 34.0633L19.3282 20.0875C19.087 19.8463 19.1289 19.4133 19.4218 19.1204C19.7147 18.8275 20.1477 18.7856 20.3889 19.0268L34.3646 33.0026C34.6058 33.2438 34.5639 33.6768 34.2711 33.9697Z" fill="white"/>
</svg>
