<svg width="16" height="12" viewBox="0 0 16 12" fill="none" xmlns="http://www.w3.org/2000/svg">
<path fill-rule="evenodd" clip-rule="evenodd" d="M15.3516 5.68431C15.3516 5.3355 15.0551 5.05273 14.6893 5.05273L0.66564 5.05273C0.29991 5.05273 0.00342713 5.3355 0.00342713 5.68431C0.00342713 6.03312 0.29991 6.31588 0.66564 6.31588L14.6893 6.31588C15.0551 6.31588 15.3516 6.03312 15.3516 5.68431Z" fill="white"/>
<path fill-rule="evenodd" clip-rule="evenodd" d="M9.86093 0.126352C9.56835 0.335638 9.50905 0.73151 9.72849 1.01056C10.9323 2.54135 12.8975 4.12971 14.377 5.20125C14.7578 5.47708 14.7723 6.01831 14.4308 6.30261C13.0385 7.46159 11.2098 9.10569 9.72849 10.9894C9.50905 11.2685 9.56835 11.6644 9.86093 11.8736C10.1535 12.0829 10.5686 12.0264 10.788 11.7473C12.1872 9.96808 13.9352 8.39177 15.3017 7.25425C16.2941 6.4281 16.2072 4.94074 15.1779 4.19529C13.7188 3.13849 11.8765 1.63678 10.788 0.252667C10.5686 -0.0263802 10.1535 -0.0829334 9.86093 0.126352Z" fill="white"/>
</svg>
