<svg width="35" height="27" viewBox="0 0 35 27" fill="none" xmlns="http://www.w3.org/2000/svg">
<path d="M22.2295 2.25781H12.7656V18.8667H22.2295V2.25781Z" fill="#FB8205"/>
<path d="M13.368 10.5675C13.3662 8.9677 13.7373 7.3885 14.453 5.94947C15.1687 4.51043 16.2104 3.2493 17.499 2.26156C15.9034 1.03701 13.9872 0.275531 11.9694 0.0641602C9.95162 -0.147211 7.91363 0.200052 6.08837 1.06626C4.2631 1.93247 2.72422 3.28268 1.64758 4.96257C0.570945 6.64245 0 8.58425 0 10.566C0 12.5478 0.570945 14.4896 1.64758 16.1695C2.72422 17.8494 4.2631 19.1996 6.08837 20.0658C7.91363 20.932 9.95162 21.2793 11.9694 21.0679C13.9872 20.8565 15.9034 20.095 17.499 18.8705C16.2108 17.883 15.1694 16.6224 14.4537 15.1839C13.7379 13.7454 13.3667 12.1668 13.368 10.5675Z" fill="#EA001B"/>
<path d="M35.0006 10.5648C35.0006 12.5467 34.4295 14.4886 33.3527 16.1686C32.2758 17.8485 30.7367 19.1987 28.9112 20.0648C27.0857 20.9309 25.0475 21.2779 23.0296 21.0662C21.0117 20.8546 19.0955 20.0927 17.5 18.8678C18.7878 17.8795 19.8289 16.6185 20.5448 15.1799C21.2607 13.7413 21.6326 12.1628 21.6326 10.5633C21.6326 8.96389 21.2607 7.38533 20.5448 5.94676C19.8289 4.5082 18.7878 3.24719 17.5 2.25888C19.0955 1.03394 21.0117 0.272093 23.0296 0.0604187C25.0475 -0.151256 27.0857 0.195784 28.9112 1.06187C30.7367 1.92795 32.2758 3.27814 33.3527 4.95808C34.4295 6.63803 35.0006 8.57995 35.0006 10.5619V10.5648Z" fill="#FFB533"/>
<path d="M6.34137 26.3911V24.576C6.34137 23.8817 5.92103 23.427 5.19945 23.427C4.83866 23.427 4.44635 23.5468 4.17664 23.9416C3.96647 23.6103 3.66523 23.427 3.21336 23.427C2.91212 23.427 2.61088 23.5186 2.37269 23.8499V23.4869H1.74219V26.3911H2.37269V24.7875C2.37269 24.2729 2.64241 24.0297 3.06274 24.0297C3.48308 24.0297 3.69325 24.3011 3.69325 24.7875V26.3911H4.32375V24.7875C4.32375 24.2729 4.62499 24.0297 5.0138 24.0297C5.43414 24.0297 5.64431 24.3011 5.64431 24.7875V26.3911H6.34137ZM15.6938 23.4869H14.671V22.6093H14.0405V23.4869H13.4696V24.0614H14.0405V25.3937C14.0405 26.0598 14.3102 26.4511 15.0318 26.4511C15.3015 26.4511 15.6028 26.3594 15.8129 26.2396L15.6308 25.6933C15.4487 25.8131 15.2385 25.8448 15.0879 25.8448C14.7866 25.8448 14.6675 25.6616 14.6675 25.362V24.0614H15.6903V23.4869H15.6938ZM21.0461 23.4235C20.6853 23.4235 20.4436 23.6067 20.293 23.8464V23.4834H19.6625V26.3876H20.293V24.7522C20.293 24.2694 20.5032 23.9944 20.8955 23.9944C21.0146 23.9944 21.1652 24.0262 21.2878 24.0544L21.47 23.4481C21.3439 23.4235 21.1652 23.4235 21.0461 23.4235ZM12.9582 23.7266C12.6569 23.5151 12.2366 23.4235 11.7847 23.4235C11.0631 23.4235 10.5833 23.7865 10.5833 24.361C10.5833 24.8439 10.944 25.1188 11.5746 25.2069L11.8758 25.2386C12.2051 25.2985 12.3872 25.3902 12.3872 25.5417C12.3872 25.7532 12.1455 25.9048 11.7252 25.9048C11.3048 25.9048 10.9721 25.7532 10.7619 25.6016L10.4607 26.0845C10.7899 26.3277 11.2418 26.4475 11.6936 26.4475C12.5343 26.4475 13.0177 26.0528 13.0177 25.51C13.0177 24.9954 12.6254 24.724 12.0264 24.6324L11.7252 24.6007C11.4555 24.5689 11.2453 24.509 11.2453 24.3293C11.2453 24.1178 11.4555 23.998 11.7882 23.998C12.149 23.998 12.5098 24.1495 12.6919 24.2412L12.9582 23.7266ZM29.7331 23.4235C29.3723 23.4235 29.1306 23.6067 28.98 23.8464V23.4834H28.3495V26.3876H28.98V24.7522C28.98 24.2694 29.1901 23.9944 29.5825 23.9944C29.7016 23.9944 29.8522 24.0262 29.9748 24.0544L30.1569 23.4552C30.0343 23.4235 29.8557 23.4235 29.7331 23.4235ZM21.6766 24.939C21.6766 25.8166 22.2791 26.4511 23.2109 26.4511C23.6312 26.4511 23.9324 26.3594 24.2337 26.1198L23.9324 25.6052C23.6907 25.7884 23.4526 25.8766 23.1793 25.8766C22.6679 25.8766 22.3071 25.5135 22.3071 24.939C22.3071 24.3927 22.6679 24.0297 23.1793 24.0015C23.4491 24.0015 23.6907 24.0931 23.9324 24.2729L24.2337 23.7583C23.9324 23.5151 23.6312 23.427 23.2109 23.427C22.2791 23.4235 21.6766 24.0614 21.6766 24.939ZM27.5088 24.939V23.4869H26.8783V23.8499C26.6681 23.5785 26.3669 23.427 25.9746 23.427C25.1619 23.427 24.5314 24.0614 24.5314 24.939C24.5314 25.8166 25.1619 26.4511 25.9746 26.4511C26.3949 26.4511 26.6962 26.2995 26.8783 26.0281V26.3911H27.5088V24.939ZM25.1934 24.939C25.1934 24.4244 25.5227 24.0015 26.0656 24.0015C26.5771 24.0015 26.9378 24.3962 26.9378 24.939C26.9378 25.4536 26.5771 25.8766 26.0656 25.8766C25.5262 25.8448 25.1934 25.4501 25.1934 24.939ZM17.6484 23.4235C16.8077 23.4235 16.2053 24.0297 16.2053 24.9355C16.2053 25.8448 16.8077 26.4475 17.6799 26.4475C18.1003 26.4475 18.5206 26.3277 18.8534 26.0528L18.5521 25.5981C18.3104 25.7814 18.0092 25.9012 17.7115 25.9012C17.3191 25.9012 16.9303 25.718 16.8393 25.2069H18.9725C18.9725 25.1153 18.9725 25.0553 18.9725 24.9637C19.0005 24.0297 18.4576 23.4235 17.6484 23.4235ZM17.6484 23.9698C18.0407 23.9698 18.3104 24.213 18.37 24.6641H16.8673C16.9268 24.2729 17.1966 23.9698 17.6484 23.9698ZM33.3129 24.939V22.3379H32.6824V23.8499C32.4723 23.5785 32.171 23.427 31.7787 23.427C30.9661 23.427 30.3356 24.0614 30.3356 24.939C30.3356 25.8166 30.9661 26.4511 31.7787 26.4511C32.1991 26.4511 32.5003 26.2995 32.6824 26.0281V26.3911H33.3129V24.939ZM30.9976 24.939C30.9976 24.4244 31.3269 24.0015 31.8698 24.0015C32.3812 24.0015 32.742 24.3962 32.742 24.939C32.742 25.4536 32.3812 25.8766 31.8698 25.8766C31.3269 25.8448 30.9976 25.4501 30.9976 24.939ZM9.88971 24.939V23.4869H9.2592V23.8499C9.04903 23.5785 8.74779 23.427 8.35548 23.427C7.54283 23.427 6.91232 24.0614 6.91232 24.939C6.91232 25.8166 7.54283 26.4511 8.35548 26.4511C8.77581 26.4511 9.07705 26.2995 9.2592 26.0281V26.3911H9.88971V24.939ZM7.54633 24.939C7.54633 24.4244 7.87559 24.0015 8.41853 24.0015C8.92994 24.0015 9.29073 24.3962 9.29073 24.939C9.29073 25.4536 8.92994 25.8766 8.41853 25.8766C7.87559 25.8448 7.54633 25.4501 7.54633 24.939Z" fill="#F2F3F7"/>
</svg>
