<svg width="44" height="54" viewBox="0 0 44 54" fill="none" xmlns="http://www.w3.org/2000/svg">
<path fill-rule="evenodd" clip-rule="evenodd" d="M12.3594 26.5867C12.3594 26.1289 12.7485 25.7578 13.2285 25.7578H31.6337C32.1137 25.7578 32.5028 26.1289 32.5028 26.5867C32.5028 27.0445 32.1137 27.4157 31.6337 27.4157H13.2285C12.7485 27.4157 12.3594 27.0445 12.3594 26.5867Z" fill="white"/>
<path fill-rule="evenodd" clip-rule="evenodd" d="M19.5571 19.2908C19.9411 19.5655 20.0189 20.0851 19.7309 20.4513C18.151 22.4605 15.5719 24.5451 13.6301 25.9515C13.1303 26.3135 13.1113 27.0239 13.5595 27.397C15.3868 28.9181 17.7868 31.076 19.7309 33.5483C20.0189 33.9146 19.9411 34.4342 19.5571 34.7088C19.1731 34.9835 18.6284 34.9093 18.3404 34.5431C16.504 32.2078 14.2099 30.139 12.4165 28.646C11.114 27.5617 11.2281 25.6096 12.5789 24.6312C14.4939 23.2442 16.9119 21.2732 18.3404 19.4566C18.6284 19.0904 19.1731 19.0162 19.5571 19.2908Z" fill="white"/>
</svg>
