<svg width="72" height="21" viewBox="0 0 72 21" fill="none" xmlns="http://www.w3.org/2000/svg">
<g clip-path="url(#clip0_6038_1261)">
<g clip-path="url(#clip1_6038_1261)">
<path fill-rule="evenodd" clip-rule="evenodd" d="M19.8035 0.875V0.883406C19.7948 0.883406 17.0597 0.875 16.3304 3.40524C15.6618 5.72533 13.7776 12.1308 13.7256 12.3073H13.2046C13.2046 12.3073 11.277 5.75895 10.5997 3.39683C9.87039 0.866594 7.12662 0.875 7.12662 0.875H0.875V20.125H7.12662V8.69269H7.64759L11.2944 20.125H15.6358L19.2825 8.70109H19.8035V20.125H26.0551V0.875H19.8035Z" fill="#0FB94E"/>
<path fill-rule="evenodd" clip-rule="evenodd" d="M42.6395 0.875004C42.6395 0.875004 40.8075 1.03472 39.9479 2.89247L35.5196 12.3073H34.9987V0.875004H28.747V20.125H34.6513C34.6513 20.125 36.5703 19.9569 37.4298 18.1075L41.7712 8.69269H42.2922V20.125H48.5438V0.875004H42.6395Z" fill="#0FB94E"/>
<path fill-rule="evenodd" clip-rule="evenodd" d="M51.3225 9.61737V20.125H57.5741V13.9885H64.3467C67.2989 13.9885 69.7995 12.1644 70.7286 9.61737H51.3225Z" fill="#0FB94E"/>
<path fill-rule="evenodd" clip-rule="evenodd" d="M64.3465 0.875H50.4453C51.1399 4.54006 53.9792 7.4822 57.652 8.4405C58.4856 8.65906 59.3626 8.77675 60.2656 8.77675H70.9801C71.0757 8.33963 71.1191 7.8941 71.1191 7.43177C71.1191 3.80873 68.0888 0.875 64.3465 0.875Z" fill="#05A4F0"/>
</g>
</g>
<defs>
<clipPath id="clip0_6038_1261">
<rect width="72" height="21" fill="white"/>
</clipPath>
<clipPath id="clip1_6038_1261">
<rect width="70.2439" height="19.25" fill="white" transform="translate(0.875 0.875)"/>
</clipPath>
</defs>
</svg>
