<svg width="36" height="29" viewBox="0 0 36 29" fill="none" xmlns="http://www.w3.org/2000/svg">
<path d="M22.8671 2.42578H13.1328V20.265H22.8671V2.42578Z" fill="#7673C0"/>
<path d="M13.7499 11.35C13.7481 9.63169 14.1298 7.93551 14.8659 6.38988C15.6021 4.84425 16.6735 3.4897 17.999 2.4288C16.3578 1.11353 14.3869 0.295652 12.3114 0.0686235C10.236 -0.158405 8.13973 0.214582 6.26232 1.14495C4.38491 2.07533 2.80205 3.52555 1.69465 5.32987C0.587257 7.1342 0 9.21983 0 11.3484C0 13.477 0.587257 15.5626 1.69465 17.3669C2.80205 19.1713 4.38491 20.6215 6.26232 21.5518C8.13973 22.4822 10.236 22.8552 12.3114 22.6282C14.3869 22.4011 16.3578 21.5833 17.999 20.268C16.6739 19.2074 15.6028 17.8534 14.8666 16.3083C14.1305 14.7633 13.7486 13.0677 13.7499 11.35V11.35Z" fill="#EB001B"/>
<path d="M36.0006 11.3474C36.0006 13.4761 35.4132 15.5619 34.3056 17.3663C33.198 19.1706 31.6149 20.6208 29.7373 21.5511C27.8596 22.4813 25.7632 22.8541 23.6876 22.6267C21.612 22.3994 19.6411 21.5811 18 20.2654C19.3246 19.2039 20.3954 17.8495 21.1318 16.3043C21.8681 14.7592 22.2507 13.0637 22.2507 11.3458C22.2507 9.62788 21.8681 7.9324 21.1318 6.38727C20.3954 4.84214 19.3246 3.48772 18 2.4262C19.6411 1.11053 21.612 0.292248 23.6876 0.0648941C25.7632 -0.16246 27.8596 0.210286 29.7373 1.14053C31.6149 2.07077 33.198 3.52096 34.3056 5.32535C35.4132 7.12973 36.0006 9.2155 36.0006 11.3442V11.3474Z" fill="#00A1DF"/>
<path d="M11.1188 28.1751V26.2445C11.1296 26.0821 11.1072 25.9192 11.0532 25.7666C10.9991 25.614 10.9146 25.4752 10.8053 25.3595C10.696 25.2438 10.5644 25.1538 10.4192 25.0956C10.2741 25.0374 10.1187 25.0122 9.96358 25.0218C9.76052 25.008 9.55763 25.0515 9.37606 25.1477C9.19449 25.2439 9.04088 25.3893 8.93124 25.5688C8.83132 25.3947 8.68841 25.2519 8.51754 25.1557C8.34667 25.0594 8.15417 25.0132 7.96032 25.0218C7.79135 25.013 7.62308 25.0504 7.4722 25.1306C7.32131 25.2107 7.19302 25.3307 7.10004 25.4788V25.0991H6.46094V28.1751H7.10616V26.4698C7.09221 26.3645 7.10068 26.2574 7.13097 26.156C7.16126 26.0546 7.21263 25.9615 7.28136 25.8834C7.3501 25.8052 7.43451 25.744 7.52853 25.7041C7.62254 25.6642 7.72383 25.6466 7.82512 25.6526C8.24912 25.6526 8.46422 25.9421 8.46422 26.4633V28.1751H9.10946V26.4698C9.09655 26.3647 9.10576 26.258 9.13644 26.1571C9.16712 26.0562 9.21852 25.9636 9.28704 25.8857C9.35556 25.8078 9.43954 25.7466 9.53306 25.7063C9.62659 25.666 9.7274 25.6477 9.82842 25.6526C10.2647 25.6526 10.4736 25.9421 10.4736 26.4633V28.1751H11.1188ZM14.7198 26.637V25.0991H14.0807V25.4723C13.9716 25.3251 13.8304 25.2074 13.669 25.129C13.5076 25.0506 13.3306 25.0139 13.1528 25.0218C12.7568 25.0422 12.3834 25.2212 12.1101 25.5219C11.8367 25.8226 11.6842 26.2219 11.6842 26.6371C11.6842 27.0523 11.8367 27.4516 12.1101 27.7523C12.3834 28.0529 12.7568 28.232 13.1528 28.2523C13.3306 28.2603 13.5076 28.2235 13.669 28.1452C13.8304 28.0668 13.9716 27.9491 14.0807 27.8018V28.1751H14.7198V26.637ZM12.3417 26.637C12.3516 26.4555 12.4121 26.281 12.5155 26.1351C12.619 25.9891 12.761 25.878 12.9241 25.8156C13.0871 25.7531 13.2641 25.742 13.4331 25.7836C13.6021 25.8252 13.7558 25.9176 13.8752 26.0496C13.9946 26.1816 14.0745 26.3472 14.1051 26.5262C14.1357 26.7052 14.1156 26.8896 14.0473 27.0567C13.9789 27.2239 13.8654 27.3664 13.7207 27.4668C13.5759 27.5672 13.4063 27.621 13.2327 27.6216C13.111 27.6233 12.9903 27.5986 12.8782 27.5491C12.7661 27.4995 12.665 27.4262 12.5813 27.3337C12.4976 27.2412 12.4331 27.1315 12.3918 27.0116C12.3506 26.8917 12.3335 26.7642 12.3417 26.637ZM28.3945 25.0182C28.6103 25.016 28.8244 25.0581 29.0248 25.1419C29.2116 25.22 29.382 25.3357 29.5262 25.4824C29.6682 25.6283 29.7809 25.8025 29.8575 25.9947C30.0171 26.4066 30.0171 26.8675 29.8575 27.2794C29.7809 27.4717 29.6683 27.6459 29.5262 27.7918C29.382 27.9386 29.2116 28.0542 29.0248 28.1322C28.6194 28.2972 28.1696 28.2972 27.7642 28.1322C27.5777 28.0544 27.4078 27.9387 27.2642 27.7918C27.123 27.6455 27.0109 27.4714 26.9345 27.2794C26.775 26.8674 26.775 26.4067 26.9345 25.9947C27.011 25.8028 27.123 25.6287 27.2642 25.4824C27.4078 25.3355 27.5777 25.2198 27.7642 25.1419C27.9646 25.0581 28.1787 25.016 28.3945 25.0182V25.0182ZM28.3945 25.651C28.2695 25.6499 28.1455 25.6744 28.0295 25.7233C27.9203 25.7692 27.8211 25.8381 27.7382 25.9256C27.6547 26.015 27.589 26.121 27.5449 26.2372C27.4508 26.4947 27.4508 26.7795 27.5449 27.037C27.5889 27.1533 27.6546 27.2592 27.7382 27.3486C27.8211 27.4361 27.9203 27.505 28.0295 27.5509C28.2641 27.6473 28.5248 27.6473 28.7594 27.5509C28.869 27.5047 28.9687 27.4359 29.0523 27.3486C29.1366 27.2595 29.2029 27.1535 29.2472 27.037C29.3412 26.7795 29.3412 26.4947 29.2472 26.2372C29.2029 26.1207 29.1366 26.0147 29.0523 25.9256C28.9686 25.8383 28.869 25.7695 28.7594 25.7233C28.6435 25.6744 28.5195 25.6499 28.3945 25.651V25.651ZM18.1973 26.637C18.1912 25.6782 17.6258 25.0218 16.8024 25.0218C16.4038 25.0437 16.0288 25.2265 15.7561 25.5317C15.4834 25.8369 15.3341 26.2408 15.3397 26.6587C15.3453 27.0767 15.5052 27.4761 15.7859 27.7732C16.0667 28.0704 16.4464 28.2421 16.8454 28.2523C17.2838 28.2684 17.7125 28.1149 18.0498 27.8211L17.7364 27.3256C17.4937 27.5293 17.1932 27.6425 16.8823 27.6474C16.6711 27.666 16.4613 27.5978 16.2973 27.4573C16.1333 27.3168 16.0279 27.1149 16.0035 26.8945H18.185C18.1911 26.8108 18.1973 26.7272 18.1973 26.637ZM16.0097 26.3668C16.0209 26.1603 16.1088 25.9666 16.2547 25.8271C16.4005 25.6876 16.5927 25.6134 16.7901 25.6203C16.9831 25.6164 17.1698 25.6928 17.3091 25.8327C17.4485 25.9726 17.5292 26.1647 17.5336 26.3668H16.0097ZM20.8886 25.8842C20.6098 25.7162 20.2947 25.6254 19.9731 25.6203C19.6228 25.6203 19.4139 25.7555 19.4139 25.9807C19.4139 26.1867 19.6351 26.2445 19.9116 26.2831L20.2127 26.3282C20.8518 26.4247 21.2389 26.7078 21.2389 27.2484C21.2389 27.834 20.7473 28.2523 19.8993 28.2523C19.4454 28.2655 18.9995 28.1256 18.6273 27.8533L18.9284 27.3321C19.2104 27.5511 19.5545 27.6644 19.9055 27.6538C20.3417 27.6538 20.5752 27.5187 20.5752 27.2806C20.5752 27.1068 20.4093 27.0103 20.0591 26.9589L19.758 26.9138C19.1005 26.8173 18.7441 26.5084 18.7441 26.0064C18.7441 25.3951 19.2233 25.0218 19.9669 25.0218C20.3875 25.0067 20.8034 25.1184 21.1652 25.3436L20.8886 25.8842ZM23.9594 25.7104H22.9148V27.1005C22.9148 27.4093 23.0193 27.6152 23.3388 27.6152C23.5383 27.6083 23.7328 27.5485 23.9042 27.4415L24.0885 28.0143C23.8489 28.1707 23.572 28.2532 23.2896 28.2523C22.5338 28.2523 22.2696 27.8276 22.2696 27.1133V25.7104H21.6735V25.0991H22.2696L22.2694 24.166H22.9146L22.9148 25.0991H23.9594V25.7104ZM26.1711 25.0218C26.3261 25.0225 26.4799 25.0508 26.6259 25.1056L26.4292 25.7362C26.3022 25.6832 26.1665 25.657 26.0298 25.6589C25.6119 25.6589 25.403 25.9421 25.403 26.4504V28.1751H24.764V25.0991H25.3969V25.4723C25.4753 25.3312 25.5886 25.2149 25.7249 25.1356C25.8611 25.0563 26.0153 25.017 26.1711 25.0218V25.0218ZM30.5955 27.7273C30.6352 27.727 30.6746 27.7352 30.7112 27.7513C30.7465 27.7667 30.7786 27.789 30.8058 27.817C30.8329 27.8449 30.8545 27.878 30.8695 27.9146C30.8849 27.9521 30.8929 27.9925 30.8929 28.0333C30.8929 28.0741 30.8849 28.1145 30.8695 28.152C30.8544 28.1884 30.8328 28.2214 30.8058 28.2492C30.7785 28.2772 30.7464 28.2995 30.7112 28.3152C30.6747 28.3316 30.6353 28.3399 30.5955 28.3396C30.5369 28.3402 30.4795 28.3228 30.4304 28.2894C30.3813 28.256 30.3426 28.2083 30.3193 28.152C30.3039 28.1145 30.296 28.0741 30.296 28.0333C30.296 27.9925 30.3039 27.9521 30.3193 27.9146C30.3343 27.8781 30.3558 27.845 30.3827 27.817C30.41 27.7888 30.4422 27.7665 30.4777 27.7513C30.515 27.7352 30.5551 27.727 30.5955 27.7273V27.7273ZM30.5955 28.2721C30.6258 28.2723 30.6558 28.2659 30.6837 28.2533C30.7104 28.2412 30.7347 28.2239 30.7553 28.2023C30.7817 28.1747 30.8012 28.1408 30.8122 28.1035C30.8231 28.0661 30.8251 28.0266 30.8181 27.9882C30.811 27.9499 30.795 27.914 30.7716 27.8836C30.7482 27.8532 30.718 27.8293 30.6837 27.814C30.6558 27.8016 30.6258 27.7953 30.5955 27.7956C30.5646 27.7953 30.5341 27.8016 30.5056 27.814C30.4784 27.8257 30.4537 27.8429 30.4329 27.8646C30.3904 27.9095 30.3665 27.9702 30.3665 28.0334C30.3665 28.0967 30.3904 28.1574 30.4329 28.2023C30.4543 28.2246 30.4796 28.2422 30.5075 28.2542C30.5354 28.2661 30.5653 28.2722 30.5955 28.2721V28.2721ZM30.6127 27.8901C30.6415 27.8881 30.67 27.8968 30.6933 27.9146C30.7026 27.9226 30.71 27.9327 30.7149 27.9443C30.7198 27.9558 30.7221 27.9683 30.7216 27.9809C30.7219 27.9917 30.7201 28.0025 30.7162 28.0125C30.7123 28.0225 30.7065 28.0315 30.6991 28.039C30.6812 28.0556 30.6587 28.0655 30.6349 28.0672L30.7238 28.1745H30.6543L30.5719 28.0679H30.5454V28.1745H30.4873V27.8901H30.6127ZM30.5454 27.9434V28.0192H30.612C30.6248 28.0199 30.6375 28.0166 30.6486 28.0098C30.6531 28.0066 30.6567 28.0023 30.659 27.9973C30.6614 27.9922 30.6625 27.9866 30.6621 27.9809C30.6624 27.9754 30.6613 27.9699 30.659 27.9649C30.6566 27.96 30.653 27.9558 30.6486 27.9527C30.6375 27.946 30.6248 27.9428 30.612 27.9434H30.5454Z" fill="#F2F3F7"/>
</svg>
