<svg width="71" height="23" viewBox="0 0 71 23" fill="none" xmlns="http://www.w3.org/2000/svg">
<g clip-path="url(#clip0_6038_1265)">
<path d="M25.2308 8.25838C25.1613 8.18781 25.1206 8.12322 25.0631 8.03352C25.0331 7.98811 25.0007 7.93902 24.9647 7.8864C25.0643 7.77159 25.1482 7.63884 25.2117 7.49289L25.4658 6.91527L24.8401 6.82558C24.7346 6.80998 24.5644 6.76575 24.3655 6.71313C23.9819 6.61269 23.4893 6.48351 22.9523 6.42726C23.1357 6.34713 23.2915 6.20245 23.4006 6.00634L23.5036 5.82096C23.5036 5.82096 23.4761 5.56138 23.3754 5.48007C23.4137 5.39994 23.4437 5.31142 23.4641 5.21456L23.5492 4.80074L23.1488 4.66438C23.0865 4.64285 23.0242 4.62731 22.9631 4.61776C22.9403 4.54237 22.9068 4.46229 22.8612 4.37735L22.6239 3.94321L22.1959 4.19317C22.0893 4.25534 21.9994 4.32711 21.9263 4.40725C21.8628 4.39526 21.7944 4.38933 21.7225 4.38933C21.7225 4.38933 21.478 4.36181 21.2083 4.45986L20.8631 4.1023L20.4544 3.66691C20.072 3.25911 19.5542 3.13828 19.0268 3.33925C18.8255 3.13828 18.5114 2.97207 18.0236 2.97207C17.8582 2.97207 17.7132 2.99236 17.628 3.00316C17.628 3.00316 16.9568 3.12511 16.5792 3.48273L16.1214 3.26504C15.8145 3.74705 15.2896 3.90015 15.2896 3.90015C15.2536 3.75903 15.1925 3.62746 15.105 3.50664L15.1349 3.33681C15.1349 3.33207 15.238 2.75675 15.552 2.26881L16.0986 1.41963L15.3243 1.50694C15.3267 1.43037 15.3231 1.33949 15.3123 1.23183L15.2428 0.571633L14.6363 0.845563C14.5691 0.875459 14.5128 0.905355 14.4601 0.932877L14.3402 0.678111L14.0622 0.821659C14.0346 0.753439 13.9986 0.675736 13.9495 0.585987L13.6294 0L13.1752 0.489124C13.1284 0.539367 13.0888 0.585987 13.0553 0.630237L12.7797 0.356374L12.5015 0.631486C12.4668 0.587235 12.4284 0.540554 12.3817 0.490311L11.9226 0L11.6014 0.588423C11.5523 0.678111 11.5175 0.754627 11.49 0.822842L11.2131 0.679298L11.0931 0.934064C11.0405 0.906537 10.9841 0.876641 10.917 0.845563L10.3081 0.572881L10.241 1.23545C10.2302 1.34187 10.2266 1.43162 10.229 1.50813L9.45349 1.42082L10.0013 2.27C10.3165 2.75675 10.4172 3.33207 10.4172 3.33681L10.4459 3.50664C10.3584 3.62865 10.2961 3.76022 10.2614 3.90133C10.2614 3.90133 9.76517 3.68963 9.43308 3.26504L8.96565 3.48754C8.43223 3.12873 8.10142 2.9888 7.52609 2.97207C7.03826 2.95891 6.72421 3.13828 6.52283 3.33925C5.99428 3.13947 5.47763 3.26029 5.0965 3.6681C5.0965 3.6681 4.846 3.93959 4.68779 4.10349C4.52957 4.2685 4.29583 4.40487 4.29583 4.40487C4.29583 4.40487 3.96382 4.33073 3.62218 4.40843C3.54908 4.3283 3.45803 4.25658 3.35013 4.19317L2.921 3.94321L2.68488 4.37972C2.63932 4.46348 2.60696 4.54237 2.58543 4.61776C2.52429 4.62731 2.46196 4.64285 2.39962 4.66438L2.00166 4.80315L2.08439 5.21456C2.10473 5.31387 2.13352 5.40234 2.17307 5.48247C2.15029 5.52676 2.12995 5.57335 2.11318 5.62244L2.04603 5.82213L2.14791 6.00751C2.25581 6.20245 2.41039 6.3484 2.595 6.42849C2.05679 6.48469 1.56539 6.61391 1.18063 6.7143C0.982866 6.76575 0.81264 6.81126 0.707189 6.8268L0.0791052 6.91768L0.221732 7.24057L0.335633 7.4977C0.400344 7.64129 0.485459 7.774 0.583712 7.8888C0.546539 7.94147 0.388327 8.18899 0.317609 8.25961L0 8.58132L0.304467 8.91618C0.342767 8.95683 0.684406 9.31449 1.23695 9.31567C1.38797 9.31567 1.53779 9.28934 1.68643 9.23671C1.83387 9.46633 2.00885 9.69957 2.16832 9.81438C1.87461 10.1588 1.54023 10.4578 1.06435 10.6839L0.666446 10.8728L0.8378 11.3261C0.949321 11.6 1.16623 11.9002 1.58573 12.0151C1.49586 12.2829 1.45274 12.5365 1.41438 12.7625C1.32445 13.2996 1.28608 13.522 0.812641 13.6882L0.387139 13.8366L0.509424 14.2695C0.607681 14.6223 0.755127 14.8556 0.914525 15.0099L0.63165 15.3208C0.63165 15.3208 1.30292 15.8231 1.96091 15.8841C1.97049 15.8853 2.53148 15.9212 2.7832 15.6007C2.88389 15.9643 3.04329 16.2991 3.18829 16.6029C3.48556 17.2272 3.64377 17.5968 3.44482 17.9341L2.99535 18.6948L3.87871 18.6577C4.26466 18.6421 4.62307 18.6182 4.93348 18.5416C4.93348 18.5584 4.9323 18.5739 4.93112 18.5895L4.85918 19.2425L5.63347 19.0798C5.715 19.0559 5.79167 19.0236 5.86121 18.9865C6.34068 19.5463 7.15574 19.9828 8.25362 19.9828H8.31716L7.05503 20.4994L7.97439 20.9767C8.57971 21.2912 9.25211 21.5543 10.0192 21.778L9.91251 22.1452L10.374 22.2803C10.6401 22.3581 11.6026 22.6128 12.7748 22.6128C13.9471 22.6128 14.9084 22.3581 15.1757 22.2803L15.6359 22.1452L15.5293 21.7792C16.2975 21.5556 16.97 21.2924 17.5753 20.9779L18.4947 20.5007L17.2313 19.984H17.2948C18.3928 19.984 19.2066 19.5475 19.6861 18.9877C19.7556 19.0249 19.8323 19.0571 19.9138 19.081L20.6881 19.2436L20.6173 18.5919C20.6162 18.5763 20.615 18.5595 20.615 18.5428C20.9243 18.6193 21.2838 18.6421 21.6686 18.6589L22.5519 18.6959L22.1049 17.9364C21.9047 17.5992 22.0641 17.2296 22.3602 16.6053C22.5052 16.3015 22.6646 15.9666 22.7653 15.603C22.9355 15.7322 23.1189 15.81 23.3011 15.8506C23.3011 15.8506 23.4426 15.8925 23.578 15.896C23.9688 15.908 24.164 15.7968 24.4326 15.6282L24.9204 15.322L24.6351 15.011C24.7946 14.8579 24.942 14.6247 25.0403 14.2731L25.1638 13.8389L24.737 13.6906C24.2624 13.5244 24.2252 13.3019 24.1353 12.7649C24.097 12.5389 24.0551 12.2841 23.9639 12.0174C24.3834 11.9014 24.5992 11.6012 24.7106 11.3285L24.8809 10.874L24.4829 10.6851C24.007 10.4591 23.6727 10.16 23.3778 9.8156C23.5384 9.70075 23.7134 9.46751 23.862 9.23789C24.0095 9.29051 24.1593 9.31567 24.3115 9.31685C24.8641 9.31685 25.2069 8.95924 25.2441 8.91858L25.5485 8.58368L25.2308 8.25838Z" fill="white"/>
<path fill-rule="evenodd" clip-rule="evenodd" d="M8.87985 14.1511V10.5032C8.87985 10.1635 8.78155 9.82387 8.66406 9.51172H11.5012C11.7613 9.86815 12.2336 10.1074 12.7754 10.1074C13.3147 10.1074 13.787 9.86815 14.0483 9.51172H16.8854C16.7656 9.82509 16.6685 10.1635 16.6685 10.5032V14.1511H8.87985ZM12.7742 19.136C12.3775 18.7425 12.0945 18.6994 11.0254 18.6994C9.74763 18.6994 8.87985 17.9519 8.87985 16.7571V14.3651H16.6673V16.7571C16.6673 17.9519 15.8007 18.6994 14.5205 18.6994C13.4526 18.6982 13.1697 18.7425 12.7742 19.136Z" fill="#FFDD2D"/>
<path d="M9.32935 19.5898V20.3182L8.69531 20.573C9.2311 20.8158 9.89631 21.0574 10.6778 21.2355L11.0374 20.0671C10.2703 19.9104 9.7357 19.7466 9.32935 19.5898Z" fill="white"/>
<path d="M12.7691 20.5766C12.02 20.5766 11.3895 20.4988 11.1378 20.4414L10.7578 21.6673C11.3547 21.8132 12.0535 21.9208 12.7691 21.9208C13.4823 21.9208 14.1811 21.8144 14.7804 21.6673L14.3993 20.4414C14.1476 20.5 13.5195 20.5766 12.7691 20.5766Z" fill="white"/>
<path d="M16.2158 19.5898C15.8083 19.7466 15.275 19.9092 14.5078 20.0682L14.8686 21.2368C15.6513 21.0585 16.3141 20.817 16.8499 20.5742L16.217 20.3195V19.5898H16.2158Z" fill="white"/>
<path d="M8.00396 7.83895C8.9964 7.30435 11.4224 6.12749 9.77787 4.85854C9.55377 4.68627 9.30681 4.5308 9.09948 4.33826C8.84297 4.5356 9.19537 5.02597 9.28404 5.20536C9.28404 5.20536 8.73631 5.26039 8.60564 5.26039C7.75945 5.25676 6.8725 4.75688 7.32193 3.79883C6.98511 3.86823 6.94439 4.19115 6.84132 4.46739C6.62553 4.32153 6.25041 4.00816 5.9615 4.05241C6.19646 4.80229 7.18531 5.47804 7.95242 5.63114C7.17695 6.05212 5.73858 6.36549 4.98223 5.45891C4.45126 6.48388 5.19079 6.91206 5.91596 7.44907C3.15554 8.70606 3.56308 10.1162 1.75199 11.226C1.98693 11.3361 3.0345 11.1148 3.128 11.1016C2.73486 11.61 2.55143 11.8253 2.4364 12.0728C2.32613 12.3048 2.27694 12.5668 2.16792 13.1313C2.08281 13.5774 1.92698 14.0223 1.38281 14.3178C1.59616 14.7028 2.0696 14.4014 2.26736 14.35C2.24101 14.3906 2.17387 14.8547 1.9965 15.0783C2.92661 15.0186 2.49629 13.0619 3.42646 13.5331C3.68894 13.6647 3.76804 13.9733 3.64701 14.2256C3.0357 15.4838 4.42491 16.5925 4.34938 17.6953C4.69095 17.6928 5.04454 17.6832 5.26751 17.2228C5.38381 17.4525 5.56356 17.7754 5.66427 18.0863L5.94236 17.6139C6.1137 18.3961 6.84486 19.1185 7.83258 19.183C7.36151 18.4391 7.92607 17.4238 6.78137 16.3438C6.92399 16.2289 7.25362 16.0077 7.37106 15.8569C5.96631 16.0221 4.50039 14.9133 5.16566 14.3871C5.60073 14.0438 5.79129 14.7566 6.46256 14.637L6.2 14.411C6.29231 14.3201 6.39779 14.2017 6.50687 14.112C6.22159 14.0773 5.90996 13.8955 5.90996 13.8955L6.08016 13.6145C4.43449 13.612 4.39249 12.3562 5.06141 12.306C5.37536 12.2833 5.7817 12.861 6.79455 12.7402C6.66507 12.5847 6.61358 12.3491 6.55241 12.1757C6.79691 12.153 7.08465 12.1554 7.31593 12.043C6.82091 11.9795 6.69625 11.8132 6.28395 11.5023L6.76219 11.3277C6.06821 10.982 6.11016 10.3804 6.08857 9.75379C6.45174 9.96187 6.8785 10.2848 7.33397 10.1353C7.44177 10.0994 7.51131 10.0492 7.51372 9.93676C6.86409 9.67718 6.44697 8.67855 8.00396 7.83895ZM6.81855 7.93704C5.9495 8.86388 6.3259 9.41888 6.50092 9.58989C6.17724 9.52054 5.69422 9.10913 5.80447 8.71086C5.7014 8.83401 5.59596 8.96799 5.48807 9.1055C5.27228 9.39259 5.07936 9.67365 4.90793 9.94632C4.64421 10.7285 5.1273 11.5358 5.9495 11.8934C5.03618 11.7594 4.62624 10.9486 4.62868 10.4319C4.19236 11.2547 3.98383 12.0059 4.00298 12.6361C4.01137 12.8705 4.03177 13.0894 4.06293 13.2963C4.27265 13.6934 4.60947 13.8393 5.20997 13.9122C4.66461 13.947 4.37573 13.9218 4.13841 13.6731C4.50996 15.2674 6.24795 16.6475 6.95517 17.8292C6.24677 16.9106 4.7809 15.5424 4.26789 14.5534C4.22834 14.9109 4.32422 15.8271 4.77004 16.3904C4.11325 15.7458 4.06168 14.7698 4.10487 14.1981C3.93827 13.7867 3.83275 13.3275 3.81836 12.8047C3.80522 12.324 3.83876 11.9066 3.91186 11.5322C3.49718 12.1206 2.89782 12.3479 2.603 13.2437C2.66051 12.0884 3.52472 12.0704 4.17196 10.6675C4.42247 10.054 4.7869 9.52408 5.18961 8.92375C4.67781 9.09114 4.29424 9.2108 3.70214 9.8578C4.12283 8.86515 6.55363 7.74926 7.66715 6.66921C7.3327 6.73983 5.96754 6.7745 5.40058 6.39654C6.42774 6.67402 8.71354 6.35711 9.57654 5.7687C8.98081 6.6238 7.68392 6.67284 6.10534 8.3736C6.30672 8.21334 6.57522 8.05184 6.81855 7.93704Z" fill="white"/>
<path d="M23.3871 13.129C23.278 12.5645 23.23 12.3026 23.1198 12.0705C23.0059 11.8229 22.8213 11.6077 22.427 11.0994C22.5205 11.1125 23.5704 11.3338 23.8042 11.2238C21.9931 10.1138 22.4006 8.70377 19.6389 7.44678C20.3641 6.90978 21.1037 6.48164 20.5727 5.45544C19.8164 6.36316 18.378 6.04988 17.6025 5.62763C18.3709 5.47452 19.3585 4.8 19.5934 4.04892C19.3034 4.00467 18.9282 4.31804 18.7125 4.46278C18.6093 4.18648 18.5698 3.86356 18.233 3.79297C18.6825 4.75218 17.7943 5.25212 16.9469 5.25574C16.8175 5.25574 16.2709 5.20067 16.2709 5.20067C16.3583 5.02132 16.7107 4.53093 16.4531 4.33358C16.2457 4.52731 16.0012 4.68159 15.7758 4.85385C14.1301 6.1228 16.5585 7.30084 17.551 7.83431C19.1056 8.67386 18.6921 9.67254 18.0412 9.92849C18.0436 10.0409 18.1131 10.0911 18.2222 10.127C18.6753 10.2777 19.1044 9.95482 19.4651 9.74547C19.4448 10.3722 19.488 10.975 18.794 11.3195L19.271 11.494C18.8586 11.805 18.7352 11.9712 18.2402 12.0346C18.4703 12.147 18.7604 12.1447 19.0037 12.1674C18.9414 12.3408 18.8875 12.5764 18.7604 12.7319C19.7745 12.8515 20.1819 12.275 20.4936 12.2978C21.16 12.348 21.1205 13.6038 19.4736 13.6062L19.6438 13.8873C19.6438 13.8873 19.3321 14.069 19.0457 14.1038C19.1547 14.1922 19.2614 14.3118 19.3537 14.4028L19.0913 14.6288C19.7612 14.7484 19.953 14.0356 20.3881 14.3788C21.0533 14.905 19.5886 16.0137 18.1827 15.8487C18.3013 15.9994 18.6309 16.2219 18.7736 16.3367C17.6277 17.4154 18.191 18.4321 17.7224 19.1772C18.7077 19.1114 19.4388 18.389 19.6126 17.6068L19.8907 18.0793C19.9902 17.7683 20.1724 17.4454 20.2863 17.2157C20.508 17.6762 20.8639 17.6858 21.2068 17.6881C21.1289 16.5855 22.5168 15.4767 21.908 14.2186C21.7857 13.9674 21.8648 13.6588 22.1273 13.526C23.0598 13.0548 22.6271 15.0115 23.5585 15.0713C23.3799 14.8476 23.314 14.3836 23.2888 14.343C23.4854 14.3944 23.9576 14.6958 24.171 14.3094C23.6304 14.02 23.4745 13.5751 23.3871 13.129ZM21.6455 11.5287C21.7186 11.9043 21.7558 12.3205 21.7389 12.8013C21.7234 13.3239 21.6191 13.7832 21.4525 14.1946C21.4944 14.7663 21.4441 15.7422 20.7872 16.3869C21.2319 15.8224 21.329 14.9075 21.2895 14.5498C20.7741 15.539 19.3094 16.9072 18.5998 17.8257C19.3081 16.644 21.0461 15.2627 21.4189 13.6696C21.1792 13.9172 20.8928 13.9434 20.3462 13.9088C20.9455 13.8358 21.2823 13.6899 21.492 13.2929C21.5232 13.0872 21.5436 12.8671 21.552 12.6327C21.5723 12.0024 21.3626 11.2512 20.9263 10.4284C20.9299 10.9451 20.5199 11.756 19.6054 11.8899C20.4252 11.5312 20.9095 10.7238 20.6471 9.94281C20.4768 9.67014 20.2851 9.3879 20.0669 9.10209C19.959 8.96452 19.8535 8.83059 19.7492 8.7074C19.8595 9.10562 19.3765 9.51703 19.0528 9.58647C19.229 9.41537 19.6042 8.86046 18.7364 7.93352C18.9798 8.04838 19.2483 8.20982 19.4508 8.36773C17.8723 6.66702 16.5765 6.61911 15.9784 5.76284C16.8426 6.35124 19.1284 6.66937 20.1544 6.39072C19.5886 6.76868 18.2222 6.73396 17.8878 6.66339C19.0013 7.74334 21.4345 8.85928 21.854 9.85194C21.2619 9.20493 20.8772 9.08527 20.3677 8.91784C20.7716 9.51943 21.1336 10.0481 21.3841 10.6616C22.0326 12.0646 22.898 12.0813 22.9543 13.2378C22.6595 12.3444 22.0613 12.1172 21.6455 11.5287Z" fill="white"/>
<path d="M14.0516 9.51172C13.7915 9.86815 13.3181 10.1073 12.7799 10.1073C12.654 10.1073 12.533 10.093 12.4179 10.0714C12.4503 10.2185 12.5258 10.3704 12.6828 10.5008C12.6193 10.9278 12.8039 11.3272 13.263 11.4313C13.3121 11.649 13.4463 11.8128 13.6741 11.8905L13.354 12.2589C13.2306 12.4 13.07 12.4455 12.9405 12.4287L11.5118 12.2673C11.5741 12.1095 11.4087 11.9264 10.9556 12.0042L11.5166 10.4374L11.1749 9.71142L10.5265 10.264L10.4786 11.9073L10.1992 11.7722C9.83966 11.6167 9.73305 12.2709 10.0758 12.2733L10.2137 12.2744C10.2041 12.3415 10.2257 12.4156 10.2796 12.4395C10.2148 12.4658 10.1957 12.5866 10.276 12.6297C10.1945 12.6691 10.1825 12.7935 10.2484 12.8473C10.1777 12.9682 10.1645 13.2301 10.415 13.2959C10.6212 13.3497 10.7506 13.1296 10.7926 13.0016L13.016 13.6882C13.3289 13.7779 13.5542 13.7276 13.8155 13.4992L14.3957 12.9932C14.3225 13.3245 14.4412 13.6223 14.6941 13.7217C14.6941 13.7217 14.6545 14.0254 14.6701 14.151L15.448 14.1522H16.673V10.5044C16.673 10.1647 16.7701 9.82509 16.89 9.51172H15.448H14.0516Z" fill="white"/>
<path d="M10.716 15.6497L10.7592 15.7035C10.8191 15.7776 10.855 15.7597 10.9234 15.7202L11.024 15.6664C11.0876 15.6186 11.5011 15.7764 11.5239 15.4332C11.5694 15.6891 11.2638 16.2285 11.4484 16.5299L11.6965 16.9354L10.8862 16.9473C10.7976 16.9473 10.7508 17.0011 10.7268 17.049L10.5147 17.4879C10.4596 17.6039 10.4631 17.7235 10.5326 17.8037L10.6764 17.9651C10.6764 17.9651 10.7939 17.8659 10.8323 17.7355L10.7688 17.6697C10.716 17.6195 10.716 17.5716 10.7448 17.5095L10.8754 17.2391C10.9258 17.1327 10.9773 17.11 11.0924 17.1375L11.748 17.2787C11.796 17.2906 11.8739 17.3133 11.9206 17.2332C12.001 17.0908 12.1424 17.0813 12.2862 17.104C12.6458 17.1578 13.4764 17.2439 13.7725 16.8983C14.1201 17.3587 14.7997 17.3587 14.7554 17.6003L14.6116 18.3921H14.8273L14.9592 17.5824C14.9735 17.4879 15.0322 17.3587 14.9303 17.2858C14.8884 17.2535 14.8692 17.2368 14.7745 17.0741C14.6511 16.8588 14.6571 16.5359 14.5384 16.2572C14.6511 16.1245 14.7733 16.079 14.88 16.1042C15.1197 16.1628 15.1845 16.5754 15.5249 16.9115C15.4865 16.7619 15.4698 16.5981 15.3894 16.4557C15.3894 16.4557 15.6256 16.6387 15.6867 16.8529C15.725 16.9868 15.7646 17.0849 15.8857 17.1471C15.966 17.1758 16.0618 17.1375 16.1577 17.0227C16.1577 17.0227 15.9336 16.7045 15.7694 16.4965C15.544 16.2106 15.2432 15.9235 14.8333 15.957C14.7038 15.9678 14.5792 16.0264 14.4605 16.097C13.9942 15.8363 13.6323 16.1126 13.4884 16.1126L12.6158 16.0611C12.4444 16.0503 12.309 15.8517 12.309 15.8517C12.2874 15.115 11.6941 14.822 11.4892 14.822C11.4892 14.822 11.5083 14.6893 11.4544 14.6426L11.2722 14.8711L10.7664 14.6869L11.1631 15.011L10.7328 15.5097C10.6885 15.5587 10.6945 15.6234 10.716 15.6497Z" fill="white"/>
<path d="M10.1502 16.684C10.0279 16.7785 10.0339 16.9101 10.1071 17.0572L10.1802 17.1936L10.3708 17.0488L10.3276 16.9555C10.2965 16.8897 10.2976 16.8228 10.3516 16.7809L10.6249 16.5753C10.7016 16.519 10.7255 16.513 10.8071 16.525L11.3836 16.6458C11.3836 16.6458 11.2961 16.519 11.2673 16.3898L10.7243 16.3181C10.6476 16.3085 10.6009 16.3408 10.5338 16.3922L10.1502 16.684Z" fill="white"/>
<path d="M13.8359 18.39H14.0541L14.4041 17.53C14.4161 17.5001 14.4328 17.487 14.446 17.4619C14.289 17.3997 14.1967 17.3566 14.0661 17.2812C14.1536 17.3985 14.2219 17.4487 14.1859 17.5576L13.8359 18.39Z" fill="white"/>
<path d="M14.0251 6.75997L14.4291 4.44336L12.8984 4.9624V7.35083L14.0251 6.75997ZM13.1573 5.19682L14.1726 4.82361C14.1726 4.82361 13.9748 4.98393 13.7387 5.14537C13.5289 5.2901 13.1573 5.44438 13.1573 5.44438V5.19682ZM13.1573 5.75776L14.0863 5.42648C14.0863 5.42648 13.9748 5.54369 13.7399 5.70513C13.5301 5.84863 13.1585 6.00292 13.1585 6.00292V5.75776H13.1573ZM13.1573 6.35337L13.9748 6.03999C13.9748 6.03999 13.9748 6.1393 13.7387 6.29952C13.5289 6.44424 13.1573 6.59853 13.1573 6.59853V6.35337Z" fill="white"/>
<path d="M11.2945 8.80974L11.328 8.86353H11.6433L11.6469 8.91851C11.6505 8.97118 11.6625 9.02498 11.6804 9.07996C11.7296 9.22949 11.8266 9.38617 11.9825 9.5129C12.1635 9.65885 12.4248 9.76414 12.7724 9.76414C13.5264 9.76414 13.8668 9.2773 13.8991 8.91851L13.9015 8.86353H14.2179L14.2515 8.80974C14.5487 8.34561 14.9119 7.83018 15.3338 7.75603L14.1832 7.08984L12.7724 7.85533L11.3604 7.08984L10.2109 7.75603C10.6329 7.82895 10.996 8.34561 11.2945 8.80974Z" fill="white"/>
<path d="M12.6533 7.35083V4.9624L11.125 4.44336L11.5265 6.75997L12.6533 7.35083ZM12.3955 6.60093C12.3955 6.60093 12.024 6.44542 11.8142 6.30192C11.5781 6.14166 11.5781 6.04117 11.5781 6.04117L12.3967 6.35455V6.60093H12.3955ZM12.3955 5.19682V5.44438C12.3955 5.44438 12.024 5.2901 11.8142 5.14537C11.5769 4.98393 11.3779 4.82361 11.3779 4.82361L12.3955 5.19682ZM12.3955 5.75776V6.00409C12.3955 6.00409 12.024 5.84981 11.8142 5.70631C11.5769 5.54487 11.4666 5.42766 11.4666 5.42766L12.3955 5.75776Z" fill="white"/>
<path d="M12.7736 3.42383C11.8999 3.42383 11.2442 3.70968 11.1016 4.04452L12.7736 4.70353L14.4433 4.04452C14.3019 3.70968 13.6474 3.42383 12.7736 3.42383Z" fill="white"/>
<path d="M12.771 2.46662C13.4147 2.46662 14.0595 2.66153 14.4934 2.91393C14.5641 2.68069 14.6397 2.51442 14.7427 2.32426L14.3472 2.3853L14.0272 1.70356L13.4291 2.0205L12.771 1.37109L12.1118 2.0205L11.5149 1.70356L11.1925 2.3853L10.7969 2.32426C10.9 2.51442 10.9743 2.68069 11.0474 2.91393C11.4825 2.66153 12.1249 2.46662 12.771 2.46662Z" fill="white"/>
<path d="M23.6836 7.717C23.8993 7.68949 24.0731 7.61769 24.2853 7.45978C23.8286 7.33904 22.8721 6.99339 22.0559 7.14886C21.7861 7.18475 21.6363 7.29358 21.7322 7.35576C22.1709 7.64638 22.7127 8.31977 23.107 9.10552C23.4534 8.67616 23.3084 8.11282 23.2353 7.95137C23.9257 8.36641 24.1066 8.56856 24.4267 8.48961C24.2553 8.22767 24.0144 7.99203 23.6836 7.717Z" fill="white"/>
<path d="M2.43688 9.10319C2.83121 8.3174 3.37299 7.64405 3.81289 7.35343C3.91114 7.2912 3.75894 7.18237 3.49165 7.14648C2.67419 6.99219 1.71529 7.33666 1.25862 7.4575C1.47316 7.61532 1.64339 7.68711 1.86155 7.71462C1.52954 7.99092 1.2886 8.2253 1.11719 8.48723C1.43961 8.56618 1.61941 8.36403 2.30864 7.94904C2.23792 8.11171 2.09166 8.67383 2.43688 9.10319Z" fill="white"/>
<path fill-rule="evenodd" clip-rule="evenodd" d="M7.22553 16.396C7.54317 16.1448 7.8069 16.0193 7.79367 15.4105C7.31661 15.6544 5.96336 15.6413 5.39762 14.8639C5.23824 14.6427 5.40844 14.5314 5.56305 14.706C5.95018 15.1438 6.66698 14.9452 6.9283 14.8197C6.88631 14.6689 6.77005 14.4728 6.67293 14.3891C6.77128 14.2934 7.04815 14.1499 7.10446 13.9035C6.95703 13.8234 6.38288 13.766 6.38288 13.766C6.47519 13.6775 6.59026 13.5543 6.52073 13.2254C5.93459 13.4048 5.20942 13.1608 5.04522 12.9443C4.88343 12.7315 5.04886 12.5317 5.18547 12.6728C5.47793 12.979 6.91871 13.3295 7.4545 12.7972C7.25548 12.7422 7.0362 12.5652 6.99661 12.4552C7.49286 12.4049 7.88839 12.1131 7.92075 11.7495C7.64624 11.7495 7.12841 11.7292 6.95107 11.5977C7.1884 11.5103 7.33938 11.4242 7.41491 11.1587C6.50755 11.1037 6.43565 10.4315 6.43088 10.3203C7.02179 10.66 8.06218 10.5092 7.79249 9.67204C7.30102 9.64575 6.806 8.85284 8.15685 8.12447C9.38543 7.46065 10.7818 6.74547 10.6584 5.56739C10.5781 4.81391 9.33512 4.29959 9.17687 3.91812C8.65791 4.16447 8.55356 4.45031 8.7873 4.9299C8.7873 4.9299 7.63065 5.04475 7.53957 4.33429C7.50004 4.01617 7.71337 3.71834 7.94233 3.48991C7.81285 3.48991 6.94144 3.25668 6.67898 3.96474C6.19114 3.63228 5.77279 3.64419 5.44439 3.99583C5.9694 4.30676 6.29417 5.37363 7.16204 5.68818C6.54473 6.02186 5.54628 5.88194 4.96374 4.85575C4.41238 5.6846 4.09478 6.50507 5.27778 7.38169C3.12624 8.35889 3.14182 10.227 1.26959 11.1168C1.45897 11.6252 1.85931 11.6252 2.36993 11.5462C1.56085 12.5951 2.25008 13.693 0.96875 14.1415C1.0886 14.5697 1.32954 14.9117 1.80179 14.7862C1.66755 14.9955 1.57887 14.9907 1.37028 15.2203C2.07027 15.6604 2.90094 15.3423 3.08913 13.9299C3.12267 13.6775 3.47026 13.8354 3.35041 14.0829C2.5521 15.7299 4.57059 16.9689 3.85621 18.1768C4.48548 18.1506 4.9661 18.1015 5.22747 17.8898C5.35568 18.1434 5.43362 18.3945 5.4048 18.6421C5.75243 18.5715 5.87946 18.367 5.90341 18.1302C6.13115 18.794 6.94626 19.5032 8.25033 19.5032C7.55875 18.5177 8.20243 17.5191 7.22553 16.396ZM5.93823 17.61L5.66018 18.0823C5.56064 17.7714 5.37967 17.4485 5.26337 17.2189C5.03927 17.6793 4.68568 17.6889 4.34523 17.6913C4.42077 16.5886 3.03155 15.4799 3.64286 14.2216C3.76515 13.9705 3.68479 13.6619 3.42232 13.5292C2.49102 13.058 2.92247 15.0146 1.99236 15.0744C2.16978 14.8508 2.23687 14.3867 2.26328 14.3461C2.06546 14.3975 1.59201 14.6989 1.37867 14.3138C1.92283 14.0184 2.07866 13.5734 2.16377 13.1273C2.27167 12.5628 2.32198 12.3009 2.43107 12.0688C2.54615 11.8213 2.72953 11.606 3.12267 11.0977C3.02917 11.1108 1.98278 11.3321 1.74666 11.2221C3.55775 10.1122 3.15021 8.70209 5.91064 7.4451C5.18665 6.90809 4.44712 6.47996 4.97696 5.45498C5.73326 6.36152 7.1704 6.04819 7.94706 5.62717C7.17999 5.47406 6.19114 4.79959 5.95736 4.04844C6.24627 4.00419 6.62144 4.31756 6.83595 4.46348C6.94026 4.186 6.98102 3.86426 7.31779 3.79492C6.86831 4.7529 7.75532 5.25279 8.60155 5.25642C8.73335 5.25642 9.27995 5.20139 9.27995 5.20139C9.19246 5.022 8.83888 4.53164 9.09534 4.33429C9.30277 4.52808 9.54964 4.68236 9.77383 4.85457C11.4195 6.1247 8.99226 7.30155 7.99982 7.83616C6.44283 8.6758 6.85995 9.67566 7.50963 9.93043C7.50717 10.0428 7.43773 10.0931 7.32983 10.129C6.87436 10.2796 6.44765 9.9555 6.08448 9.74746C6.10602 10.3741 6.06289 10.9769 6.75806 11.3214L6.27981 11.4948C6.69098 11.8069 6.81682 11.972 7.31184 12.0366C7.08051 12.149 6.79405 12.1466 6.54827 12.1693C6.61062 12.3427 6.66098 12.5783 6.79041 12.7339C5.77757 12.8535 5.37126 12.2769 5.05722 12.2996C4.38841 12.3499 4.43035 13.6057 6.07602 13.6081L5.90587 13.8892C5.90587 13.8892 6.21745 14.071 6.50396 14.1056C6.39488 14.1942 6.28945 14.3138 6.19714 14.4047L6.4596 14.6307C5.7872 14.7503 5.59782 14.0375 5.16152 14.3807C4.49631 14.907 5.96218 16.0157 7.36701 15.8506C7.24953 16.0014 6.91871 16.2238 6.77728 16.3386C7.92193 17.4174 7.35737 18.434 7.82839 19.1791C6.84077 19.1145 6.10965 18.3909 5.93823 17.61Z" fill="#12181C"/>
<path fill-rule="evenodd" clip-rule="evenodd" d="M4.13579 13.6732C4.37435 13.9207 4.66198 13.947 5.20738 13.9124C4.60685 13.8394 4.27002 13.6935 4.06031 13.2964C4.03033 13.0907 4.00993 12.8706 4.00154 12.6362C3.98239 12.0059 4.19092 11.2548 4.62725 10.4319C4.62487 10.9475 5.03358 11.7583 5.94813 11.8934C5.12584 11.5347 4.64283 10.7274 4.90651 9.94638C5.07789 9.6737 5.27091 9.39147 5.48665 9.1056C5.59455 8.96804 5.69998 8.83411 5.80306 8.71092C5.6928 9.10918 6.17587 9.5206 6.4995 9.58999C6.32448 9.41893 5.94813 8.8652 6.81709 7.93831C6.57503 8.05312 6.30648 8.21456 6.10279 8.37248C7.68009 6.67171 8.97822 6.62394 9.57395 5.76758C8.71094 6.35598 6.42519 6.67412 5.39794 6.39541C5.9649 6.77338 7.33015 6.7387 7.66455 6.66818C6.55222 7.74818 4.12145 8.86402 3.69952 9.85668C4.29162 9.20849 4.67519 9.09006 5.1882 8.92381C4.78426 9.5254 4.4211 10.054 4.17058 10.6675C3.52335 12.0693 2.65795 12.0872 2.60156 13.2426C2.89645 12.3468 3.49575 12.1195 3.91049 11.5311C3.83733 11.9066 3.80259 12.3228 3.8158 12.8037C3.83019 13.3263 3.93564 13.7856 4.10224 14.197C4.06031 14.7686 4.11063 15.7446 4.76749 16.3893C4.3216 15.8259 4.22571 14.9098 4.26527 14.5522C4.77944 15.5413 6.2454 16.9095 6.9538 17.8281C6.2454 16.6476 4.50859 15.2674 4.13579 13.6732Z" fill="#12181C"/>
<path fill-rule="evenodd" clip-rule="evenodd" d="M20.358 8.92268C20.8675 9.0901 21.2522 9.20854 21.8443 9.85673C21.4248 8.86407 18.9904 7.74818 17.8781 6.66823C18.2125 6.73757 19.579 6.77342 20.1447 6.39546C19.1186 6.67416 16.8329 6.35603 15.9688 5.76758C16.5657 6.62394 17.8626 6.67176 19.4411 8.37253C19.2386 8.21461 18.9701 8.05312 18.7267 7.93836C19.5945 8.86525 19.2194 9.4202 19.0432 9.59121C19.3668 9.52182 19.8498 9.11041 19.7395 8.71214C19.8438 8.83533 19.9493 8.96927 20.0572 9.10683C20.2741 9.39387 20.4659 9.67493 20.6374 9.9476C20.901 10.7298 20.4168 11.5371 19.5969 11.8948C20.5115 11.7607 20.9214 10.9487 20.9166 10.4333C21.3541 11.2561 21.5626 12.0072 21.5435 12.6374C21.5351 12.8719 21.5147 13.0907 21.4836 13.2976C21.2726 13.6947 20.9358 13.8406 20.3365 13.9136C20.8831 13.9471 21.1695 13.9219 21.4092 13.6744C21.0364 15.2686 19.2997 16.6488 18.5901 17.8305C19.2997 16.912 20.7632 15.5437 21.2798 14.5546C21.3194 14.9122 21.2235 15.8284 20.7775 16.3917C21.4344 15.7471 21.4847 14.7711 21.4428 14.1995C21.6082 13.788 21.7125 13.3287 21.7292 12.8061C21.7448 12.3252 21.7077 11.9079 21.6358 11.5335C22.0517 12.122 22.6498 12.3492 22.9459 13.245C22.8895 12.0885 22.0242 12.0706 21.3757 10.6689C21.1239 10.0517 20.762 9.52309 20.358 8.92268Z" fill="#12181C"/>
<path fill-rule="evenodd" clip-rule="evenodd" d="M23.1725 11.545C23.6818 11.6251 24.0822 11.6251 24.2728 11.1168C22.4005 10.227 22.4161 8.36006 20.2646 7.38168C21.4476 6.50624 21.1288 5.68459 20.5786 4.85574C19.9973 5.88194 18.9952 6.02185 18.3804 5.68822C19.2457 5.37362 19.573 4.30677 20.098 3.99583C19.7696 3.6442 19.3501 3.63227 18.8622 3.96475C18.5985 3.25668 17.7283 3.48991 17.5977 3.48991C17.8255 3.71716 18.0411 4.01499 18.0004 4.33429C17.9105 5.04474 16.7538 4.92989 16.7538 4.92989C16.9876 4.45032 16.8833 4.16447 16.3643 3.91806C16.2061 4.29959 14.9643 4.81391 14.8828 5.56738C14.7582 6.74546 16.1569 7.46064 17.3843 8.12447C18.7351 8.85283 18.2401 9.64697 17.7499 9.67203C17.4778 10.5092 18.5182 10.66 19.1104 10.3203C19.1079 10.4315 19.0324 11.1037 18.1251 11.1587C18.2018 11.4242 18.3517 11.5104 18.5889 11.5977C18.4115 11.7304 17.8937 11.7495 17.6205 11.7495C17.6528 12.1131 18.0496 12.4062 18.5458 12.4552C18.5062 12.5652 18.2857 12.7422 18.0879 12.7972C18.6237 13.3295 20.0644 12.979 20.3569 12.6728C20.4911 12.5317 20.6553 12.7314 20.4947 12.9443C20.3293 13.162 19.6054 13.406 19.018 13.2254C18.9509 13.5531 19.0636 13.6775 19.1559 13.766C19.1559 13.766 18.5818 13.8234 18.4331 13.9035C18.4894 14.1499 18.7675 14.2922 18.8646 14.3891C18.7663 14.4728 18.65 14.6689 18.6081 14.8197C18.8718 14.9465 19.5886 15.1438 19.9734 14.706C20.1292 14.5326 20.2994 14.6427 20.1399 14.8639C19.5742 15.6413 18.2209 15.6533 17.7427 15.4105C17.7295 16.0193 17.9932 16.1448 18.3108 16.396C17.3328 17.519 17.9788 18.5177 17.2872 19.5008C18.5902 19.5008 19.4052 18.7916 19.6329 18.1278C19.6593 18.3634 19.784 18.5692 20.1304 18.6397C20.104 18.3921 20.1807 18.1409 20.3077 17.8874C20.5715 18.0992 21.0521 18.1482 21.6814 18.1745C20.9682 16.9665 22.9867 15.7274 22.186 14.0805C22.0673 13.8329 22.4149 13.6751 22.4484 13.9274C22.6355 15.34 23.4673 15.6581 24.1685 15.218C23.9575 14.9883 23.87 14.9931 23.7358 14.7838C24.208 14.9094 24.4478 14.5673 24.5688 14.1391C23.2935 13.6918 23.9828 12.5939 23.1725 11.545ZM23.2803 14.3484C23.3054 14.3891 23.3714 14.8531 23.5501 15.0768C22.6187 15.017 23.0502 13.0603 22.1189 13.5316C21.8563 13.6631 21.7785 13.9717 21.8995 14.2241C22.5084 15.4822 21.1204 16.5909 21.1984 17.6936C20.8555 17.6913 20.4996 17.6817 20.2778 17.2213C20.1639 17.4509 19.9805 17.7738 19.8811 18.0848L19.603 17.6123C19.4304 18.3945 18.6992 19.1169 17.7139 19.1827C18.1826 18.4388 17.6192 17.4221 18.7651 16.3422C18.6213 16.2274 18.2917 16.0049 18.173 15.8542C19.579 16.0193 21.0437 14.9106 20.3784 14.3843C19.9434 14.0411 19.7516 14.7539 19.0815 14.6343L19.3441 14.4083C19.2518 14.3173 19.1451 14.1989 19.036 14.1092C19.3225 14.0746 19.6341 13.8928 19.6341 13.8928L19.4639 13.6117C21.1096 13.6093 21.1492 12.3535 20.484 12.3033C20.1711 12.2806 19.7636 12.8582 18.7507 12.7374C18.879 12.582 18.9317 12.3464 18.9941 12.1729C18.7495 12.1502 18.4607 12.1526 18.2305 12.0402C18.7256 11.9767 18.8503 11.8105 19.2613 11.4995L18.7844 11.325C19.4783 10.9793 19.4339 10.3777 19.4555 9.75099C19.0935 9.95912 18.6644 10.2821 18.2126 10.1325C18.1047 10.0966 18.034 10.0464 18.0316 9.93401C18.6825 9.67801 19.0971 8.67937 17.5414 7.83978C16.5501 7.30518 14.1217 6.12832 15.7662 4.85937C15.9915 4.6871 16.2361 4.53164 16.4422 4.33909C16.6999 4.53644 16.3475 5.0268 16.2601 5.20619C16.2601 5.20619 16.8066 5.26117 16.9361 5.26117C17.7835 5.25763 18.6716 4.7577 18.2222 3.79848C18.559 3.86788 18.5985 4.19199 18.7016 4.46823C18.9173 4.32237 19.2913 4.01018 19.5826 4.05443C19.3465 4.8043 18.36 5.48004 17.5917 5.63315C18.3672 6.05412 19.8055 6.3675 20.5619 5.46096C21.0916 6.48589 20.3533 6.91412 19.6281 7.45108C22.3897 8.70689 21.981 10.1182 23.7933 11.228C23.5596 11.3381 22.5096 11.1168 22.4161 11.1037C22.8117 11.612 22.9962 11.8273 23.1089 12.0749C23.2191 12.3068 23.2671 12.5676 23.3762 13.1333C23.4625 13.5794 23.6195 14.0243 24.1613 14.3198C23.9491 14.7013 23.4769 14.3999 23.2803 14.3484Z" fill="#12181C"/>
<path fill-rule="evenodd" clip-rule="evenodd" d="M10.1395 17.4344L10.5339 17.1007L10.474 16.9811C10.4308 16.895 10.4536 16.8902 10.4991 16.8567L10.7077 16.7025C10.7556 16.6629 10.806 16.6677 10.8647 16.6821L11.4892 16.828H10.8299C10.6777 16.8376 10.6333 16.8962 10.5782 17.0086L10.5327 17.1007L10.3637 17.4475C10.3061 17.5672 10.2761 17.7262 10.4272 17.9056L10.547 18.0479L10.3049 18.5371H10.5087L10.6765 18.1974C10.6897 18.1855 10.9378 17.9594 10.9905 17.7262C10.9186 17.6676 10.8683 17.6269 10.9078 17.5456L10.9833 17.383C11.0086 17.3291 11.0169 17.3076 11.0888 17.3208L11.7433 17.4619C11.8248 17.4846 11.9446 17.5205 12.0321 17.3889C12.122 17.2526 12.134 17.267 12.3425 17.2872L12.677 17.3231C13.1336 17.3662 13.5904 17.2526 13.7677 17.1115C13.83 17.2526 13.9535 17.3615 14.011 17.4715C14.0326 17.5121 13.9967 17.5696 13.9691 17.6413L13.5939 18.5359H14.1729L14.5001 17.7202C14.53 17.6425 14.5744 17.5803 14.6079 17.5492L14.4198 18.5371H14.9819L15.1306 17.56C15.1629 17.3423 15.1437 17.273 15.0395 17.1832C14.8057 16.9859 14.8105 16.5721 14.735 16.3209C14.7745 16.2982 14.8213 16.2862 14.8764 16.2934C14.9987 16.3042 15.091 16.6163 15.2348 16.8172C15.5225 17.2203 15.9144 17.6652 16.3639 17.0385C16.3208 16.9667 16.274 16.9022 16.2189 16.84L16.093 16.6929C16.0199 16.6115 15.6724 16.2144 15.5273 16.0721C15.1977 15.7408 14.6919 15.7911 14.4905 15.9526C14.0338 15.7133 13.552 15.9645 13.4382 15.9549L12.6519 15.9071C12.6159 15.9047 12.5619 15.8927 12.5236 15.8317L12.6698 15.7839C12.5331 15.2158 12.1892 14.741 11.5886 14.6584C11.5886 14.6584 11.5539 14.4791 11.4616 14.4444L11.2818 14.6549C11.2315 14.6621 11.1763 14.6776 11.1308 14.6967L10.3637 14.4121L10.939 14.9922C10.939 14.9922 10.6406 15.4143 10.5554 15.5004C10.4991 15.5794 10.5039 15.6404 10.5674 15.7157L10.6789 15.8616C10.7364 15.937 10.8 15.9346 10.8923 15.888L11.0181 15.8222C11.0732 15.7767 11.2578 15.8664 11.3369 15.7946C11.2866 15.9597 11.2614 16.1188 11.2494 16.2444L10.7329 16.1822C10.6202 16.1666 10.5686 16.1822 10.5003 16.236L10.0592 16.5745C9.91541 16.6845 9.87105 16.8746 9.95972 17.0601L10.1395 17.4344ZM14.4066 17.5313L14.0566 18.3924H13.8384L14.1884 17.5587C14.2243 17.4511 14.1561 17.4009 14.0686 17.2837C14.198 17.3567 14.2915 17.4044 14.4485 17.4643C14.4353 17.4882 14.4185 17.5014 14.4066 17.5313ZM11.0312 15.6667L10.9318 15.7193C10.8623 15.7588 10.8275 15.7767 10.7676 15.7026L10.7244 15.6476C10.7029 15.6212 10.6957 15.5579 10.74 15.5076L11.1691 15.0089L10.7736 14.6848L11.277 14.8702L11.4616 14.6405C11.5155 14.686 11.4964 14.8187 11.4964 14.8187C11.7001 14.8187 12.2934 15.1129 12.3162 15.8497C12.3162 15.8497 12.4504 16.047 12.6219 16.0578L13.4956 16.1104C13.6407 16.1104 14.0027 15.8353 14.4677 16.0949C14.5852 16.0243 14.711 15.9681 14.8405 15.9537C15.2504 15.9239 15.5525 16.2085 15.7766 16.4955C15.9408 16.7036 16.1661 17.0218 16.1661 17.0218C16.0691 17.1366 15.9744 17.1748 15.8941 17.1461C15.773 17.084 15.7334 16.9871 15.6951 16.8519C15.634 16.6379 15.3979 16.4548 15.3979 16.4548C15.4782 16.5984 15.4949 16.7611 15.5333 16.9105C15.1917 16.5732 15.1269 16.1618 14.8884 16.1044C14.783 16.0782 14.6595 16.1236 14.5456 16.2551C14.6655 16.5338 14.6595 16.8567 14.783 17.0732C14.8764 17.2347 14.8968 17.249 14.9387 17.2849C15.0395 17.3567 14.9831 17.487 14.9676 17.5815L14.8381 18.3912H14.62L14.7638 17.5994C14.8081 17.3579 14.1285 17.3579 13.7809 16.8974C13.4848 17.243 12.6542 17.1569 12.2946 17.1031C12.1496 17.0816 12.0082 17.0912 11.9291 17.2334C11.8823 17.3136 11.8044 17.2897 11.7564 17.2777L11.1008 17.1366C10.9857 17.1102 10.9354 17.1329 10.8851 17.2382L10.7544 17.5086C10.7256 17.5719 10.7268 17.6186 10.7795 17.67L10.8419 17.7358C10.8048 17.8649 10.6861 17.9643 10.6861 17.9643L10.5434 17.804C10.474 17.7226 10.4703 17.6054 10.5255 17.4906L10.7376 17.0481C10.7628 16.999 10.8083 16.9464 10.897 16.9464L11.7073 16.9344L11.4592 16.5314C11.2746 16.2288 11.5814 15.6894 11.5347 15.4347C11.5095 15.7756 11.096 15.62 11.0312 15.6667ZM10.1515 16.6833L10.535 16.3914C10.6034 16.34 10.6489 16.3065 10.7269 16.3161L11.2686 16.3879C11.2986 16.5171 11.3849 16.6439 11.3849 16.6439L10.8083 16.523C10.7268 16.5135 10.7029 16.5171 10.6262 16.5721L10.3528 16.7778C10.2989 16.8197 10.2965 16.8866 10.3277 16.9524L10.3721 17.0469L10.1815 17.1904L10.1083 17.0541C10.0341 16.9094 10.0293 16.7766 10.1515 16.6833Z" fill="#12181C"/>
<path fill-rule="evenodd" clip-rule="evenodd" d="M11.8155 6.30245C12.0252 6.44722 12.3969 6.6015 12.3969 6.6015V6.35507L11.5781 6.04297C11.5781 6.04297 11.5781 6.14336 11.8155 6.30245Z" fill="#12181C"/>
<path fill-rule="evenodd" clip-rule="evenodd" d="M12.3977 6.0054V5.75906L11.4688 5.42773C11.4688 5.42773 11.579 5.54499 11.8164 5.70644C12.0261 5.84993 12.3977 6.0054 12.3977 6.0054Z" fill="#12181C"/>
<path fill-rule="evenodd" clip-rule="evenodd" d="M12.3927 5.44489V5.19738L11.375 4.82422C11.375 4.82422 11.574 4.98449 11.8113 5.14598C12.021 5.29061 12.3927 5.44489 12.3927 5.44489Z" fill="#12181C"/>
<path fill-rule="evenodd" clip-rule="evenodd" d="M15.25 8.81035H16.2904C16.2473 8.6597 16.0854 8.50781 15.7821 8.50781C15.4945 8.50781 15.3219 8.67289 15.25 8.81035Z" fill="#12181C"/>
<path fill-rule="evenodd" clip-rule="evenodd" d="M14.1716 4.82422L13.1562 5.19738V5.44489C13.1562 5.44489 13.5279 5.29061 13.7376 5.14598C13.9737 4.98449 14.1716 4.82422 14.1716 4.82422Z" fill="#12181C"/>
<path fill-rule="evenodd" clip-rule="evenodd" d="M13.9737 6.04297L13.1562 6.35625V6.60268C13.1562 6.60268 13.5279 6.44722 13.7376 6.30368C13.9737 6.14336 13.9737 6.04297 13.9737 6.04297Z" fill="#12181C"/>
<path fill-rule="evenodd" clip-rule="evenodd" d="M14.0852 5.42773L13.1562 5.75906V6.0054C13.1562 6.0054 13.529 5.85111 13.7376 5.70762C13.9749 5.54499 14.0852 5.42773 14.0852 5.42773Z" fill="#12181C"/>
<path fill-rule="evenodd" clip-rule="evenodd" d="M9.75815 8.50781C9.45492 8.50781 9.29308 8.6597 9.25 8.81035H10.2916C10.2173 8.67289 10.047 8.50781 9.75815 8.50781Z" fill="#12181C"/>
<path fill-rule="evenodd" clip-rule="evenodd" d="M14.8406 4.15906C14.8406 3.57544 13.8577 3.05273 12.7729 3.05273C11.6882 3.05273 10.7053 3.57544 10.7053 4.15906L10.7281 4.3026L11.1596 6.78191L9.10996 7.97431C8.89176 8.10227 8.61853 8.45389 8.58377 8.80797H8.95776C9.02006 8.45389 9.29934 8.06166 9.82313 8.08554C10.2966 8.1107 10.5771 8.39774 10.8552 8.80797L10.9271 8.91557L11.0301 9.07702H8.01562C8.23736 9.52079 8.4471 9.99199 8.4471 10.5027V16.7566C8.4471 18.3652 9.68528 19.1318 11.0265 19.1318C12.0622 19.1318 12.2024 19.0852 12.7741 19.6557C13.3435 19.0852 13.4837 19.1318 14.5217 19.1318C15.8618 19.1318 17.1011 18.3652 17.1011 16.7566V10.5039C17.1011 9.99317 17.3109 9.52197 17.5326 9.0782H14.5157L14.62 8.91675L14.6919 8.80915C14.9688 8.39892 15.2504 8.11188 15.7239 8.08672C16.2453 8.06283 16.527 8.45507 16.5881 8.80915H16.9609C16.9273 8.45507 16.6528 8.10227 16.4359 7.97549L14.3863 6.78314L14.819 4.30379L14.8406 4.15906ZM11.1248 4.44372L12.6543 4.96281V7.35119L11.5276 6.76038L11.1248 4.44372ZM11.5012 9.51118C11.7026 9.78626 12.0286 9.98963 12.4145 10.0685C12.4469 10.2132 12.526 10.3723 12.6794 10.5003C12.6159 10.9272 12.7993 11.3255 13.2596 11.4308C13.3075 11.6485 13.4429 11.8123 13.6695 11.89L13.3495 12.2584C13.2272 12.3995 13.0678 12.445 12.936 12.4282L11.5072 12.2668C11.5695 12.1089 11.4041 11.9259 10.9522 12.0037L11.5144 10.4369L11.1716 9.71093L10.5219 10.2635L10.474 11.9068L10.1983 11.7716C9.83508 11.6162 9.72964 12.2704 10.0749 12.2728L10.2115 12.2739C10.2031 12.3409 10.2235 12.4151 10.2762 12.4378C10.2115 12.4653 10.1923 12.5873 10.2738 12.6303C10.1911 12.6687 10.1803 12.7931 10.2462 12.8469C10.1743 12.9676 10.1635 13.2296 10.414 13.2953C10.619 13.3491 10.7473 13.1291 10.7893 13.0011L13.0114 13.6876C13.3266 13.7774 13.5497 13.7271 13.8109 13.4987L14.3911 12.9928C14.3179 13.3241 14.4378 13.6218 14.6907 13.7211C14.6907 13.7211 14.6547 14.0189 14.6656 14.1517H8.87981V10.5039C8.87981 10.1642 8.78151 9.82456 8.66412 9.51118H11.5012ZM13.8912 10.895C13.769 11.1282 13.7809 11.3961 13.9248 11.6389L13.8289 11.7322C13.4118 11.6807 13.2476 11.06 13.2476 11.06C13.2392 11.1162 13.2344 11.17 13.2356 11.2251C12.9923 11.1354 12.8388 10.9201 12.8509 10.6247C12.9432 10.6761 13.0462 10.712 13.1565 10.7311L13.1852 10.5493C12.894 10.4991 12.7238 10.3173 12.6591 10.102C12.6447 10.1008 12.6327 10.0972 12.6195 10.096C12.6711 10.0996 12.7226 10.1044 12.7753 10.1044C12.9479 10.1044 13.1121 10.0781 13.2656 10.0326C13.3866 10.2049 13.6011 10.3281 13.8169 10.352C13.7822 10.4955 13.7989 10.6737 13.8912 10.895ZM14.5086 12.5358C14.4666 12.5921 14.433 12.6567 14.4114 12.7273L14.1789 12.9402C14.2257 12.6005 13.9967 12.1998 13.7882 12.0359L14.035 11.7943L14.0842 11.8446C14.0015 12.0611 14.1633 12.4857 14.5086 12.5358ZM13.3854 12.4295L13.5772 12.2416C13.7714 12.4115 14.0279 12.7906 13.9476 13.1518L13.739 13.3432C13.6959 13.385 13.6516 13.415 13.606 13.4425C13.7366 13.1207 13.57 12.6256 13.3854 12.4295ZM12.9731 12.5885H12.9791C13.0486 12.5992 13.1229 12.5873 13.19 12.5598C13.3363 12.7679 13.4501 13.2415 13.2752 13.537C13.1757 13.5393 13.0786 13.5214 12.9875 13.4951L12.9156 13.4736C13.063 13.2451 13.0426 12.8409 12.9731 12.5885ZM12.49 12.5287L12.7597 12.5622C12.8029 12.7859 12.7741 13.1721 12.6315 13.3922L12.3174 13.3013C12.4553 13.1147 12.52 12.7308 12.49 12.5287ZM11.9279 12.4605L12.2551 12.4988C12.2875 12.6782 12.2263 13.0597 12.1029 13.2415L11.7697 13.1459C11.9027 12.97 11.9507 12.6603 11.9279 12.4605ZM10.6034 12.3732C10.4512 12.4223 10.3841 12.3122 10.3901 12.2189C10.6885 12.1101 10.8216 12.1807 10.9091 12.2357C10.9894 12.2859 11.0565 12.4295 11.1644 12.5191C11.1464 12.6411 11.1092 12.8182 11.0649 12.9366C10.7593 12.8588 10.7437 12.5897 10.8575 12.4258C10.794 12.3517 10.7269 12.3326 10.6034 12.3732ZM10.3901 12.9676C10.3901 12.9676 10.4812 13.0059 10.5962 13.0143C10.5831 13.0776 10.5339 13.1374 10.456 13.1207C10.3913 13.1064 10.3625 13.0274 10.3901 12.9676ZM10.0892 12.0946C10.0137 12.0443 10.0472 11.9343 10.1312 11.9343C10.2235 11.9367 10.3457 12.0408 10.4668 12.0922C10.4668 12.0922 10.1491 12.1352 10.0892 12.0946ZM10.3997 12.7285C10.4656 12.7918 10.6634 12.7679 10.6634 12.7679L10.6706 12.8073C10.5843 12.9222 10.3445 12.8707 10.3997 12.7285ZM10.6658 12.5981C10.5243 12.6543 10.3793 12.5777 10.4236 12.4868C10.4896 12.5467 10.673 12.5168 10.673 12.5168L10.6658 12.5981ZM10.8743 10.956L10.6034 11.9403L10.6957 10.352L11.1152 9.99434L11.3286 10.462L10.7893 12.0049L10.9319 10.9667C10.945 10.8926 10.8863 10.8842 10.8743 10.956ZM10.8935 12.1496C10.8935 12.1496 11.1955 12.1352 11.2806 12.1675C11.343 12.1938 11.301 12.2991 11.2195 12.2871C11.1344 12.2764 10.8935 12.1496 10.8935 12.1496ZM11.3669 12.3888L11.6954 12.4295C11.7205 12.6088 11.6738 12.9126 11.5563 13.0824L11.2387 12.9904C11.3226 12.7906 11.343 12.6029 11.3669 12.3888ZM16.6684 16.7578C16.6684 17.5184 16.3161 18.0961 15.7299 18.4167L15.9397 17.9909H15.7359L15.4662 18.5362C15.187 18.6415 14.8705 18.7001 14.5205 18.7001C13.4514 18.7001 13.1684 18.7431 12.7729 19.1366C12.3762 18.7431 12.0933 18.7001 11.0254 18.7001C10.6778 18.7001 10.3613 18.6439 10.0832 18.5386H10.0905L10.3601 17.9909H10.1575L9.92138 18.4705C9.86507 18.4441 9.80995 18.4155 9.75723 18.3843L9.95138 17.9909H9.75005L9.60616 18.2839C9.14832 17.9478 8.87863 17.4216 8.87863 16.7578V14.3658H16.6661V16.7578H16.6684ZM16.8854 9.51118C16.7644 9.82456 16.6672 10.1642 16.6672 10.5039V14.1517H16.2417C16.0488 13.9651 15.8858 13.3432 15.8858 13.3432C15.7802 13.5668 15.9013 14.0201 16.014 14.1517H15.4662C15.3308 13.9687 15.2133 13.3204 15.2133 13.3204C15.0491 13.5071 15.1534 14.0105 15.2553 14.1517H14.8909C14.8681 13.8921 14.9424 13.6099 14.9424 13.6099C14.7519 13.5752 14.5493 13.4747 14.5505 13.2642C14.6464 13.3539 14.6859 13.3528 14.819 13.3503L14.9736 13.2284C14.4606 13.2451 14.4366 12.683 14.8441 12.4199C14.4378 12.433 14.1346 12.1915 14.282 11.7609C13.9931 11.6114 13.8912 11.1234 14.1046 10.9093C13.95 10.7419 13.9248 10.413 14.0231 10.1893C13.8181 10.1893 13.588 10.108 13.4597 9.9681C13.4501 9.97281 13.4382 9.97644 13.4274 9.98002C13.6839 9.87596 13.9008 9.71333 14.047 9.51241H16.8854V9.51118ZM15.3344 7.75544C14.9125 7.82841 14.5493 8.34385 14.252 8.80915L14.2185 8.86295H13.9008L13.8996 8.91797C13.8672 9.27676 13.5257 9.76355 12.7729 9.76355C12.4253 9.76355 12.1628 9.65708 11.9831 9.51241C11.8272 9.38559 11.7289 9.22895 11.681 9.07947C11.663 9.02557 11.6522 8.9706 11.6474 8.91797L11.6451 8.86295H11.3298L11.2962 8.80915C10.9978 8.34512 10.6346 7.82959 10.2139 7.75544L11.3634 7.08926L12.7753 7.85475L14.1849 7.08926L15.3344 7.75544ZM14.0183 6.76038L12.8928 7.35119V4.96281L14.4223 4.44372L14.0183 6.76038ZM12.7741 4.70205L11.1021 4.04303C11.2435 3.70819 11.8991 3.42234 12.7741 3.42234C13.6479 3.42234 14.3023 3.70819 14.4438 4.04303L12.7741 4.70205Z" fill="#12181C"/>
<path fill-rule="evenodd" clip-rule="evenodd" d="M16.4973 11.8693L16.5009 11.6863C15.9387 11.6731 15.8093 11.0117 15.8093 11.0117C15.6451 11.4985 16.0742 11.8621 16.4973 11.8693Z" fill="#12181C"/>
<path fill-rule="evenodd" clip-rule="evenodd" d="M15.7795 12.9913L15.7232 12.8179C15.2438 12.9399 14.9957 12.1816 14.9957 12.1816C14.8422 12.733 15.3768 13.1229 15.7795 12.9913Z" fill="#12181C"/>
<path fill-rule="evenodd" clip-rule="evenodd" d="M16.1151 12.2869C15.5421 12.3779 15.3072 11.7129 15.3072 11.7129C15.2436 12.0753 15.4786 12.4425 15.8586 12.4807C15.7723 12.9532 16.2122 13.1959 16.5933 13.0273L16.5382 12.8623C16.2074 12.9735 15.897 12.6469 16.1151 12.2869Z" fill="#12181C"/>
<path fill-rule="evenodd" clip-rule="evenodd" d="M15.7781 10.3869L15.7828 10.2039C15.0266 10.0484 15.0901 9.5293 15.0901 9.5293C14.9271 10.0185 15.3562 10.3797 15.7781 10.3869Z" fill="#12181C"/>
<path fill-rule="evenodd" clip-rule="evenodd" d="M10.974 17.9922L10.7031 18.5399H10.9069L11.1766 17.9922H10.974Z" fill="#12181C"/>
<path fill-rule="evenodd" clip-rule="evenodd" d="M11.3869 17.9922L11.1172 18.5399H11.3222L11.5895 17.9922H11.3869Z" fill="#12181C"/>
<path fill-rule="evenodd" clip-rule="evenodd" d="M13.0197 17.9922L12.75 18.5399H12.9525L13.2234 17.9922H13.0197Z" fill="#12181C"/>
<path fill-rule="evenodd" clip-rule="evenodd" d="M13.4362 17.9922L13.1641 18.5399H13.369L13.6375 17.9922H13.4362Z" fill="#12181C"/>
<path fill-rule="evenodd" clip-rule="evenodd" d="M12.6146 17.9922L12.3438 18.5399H12.5475L12.8172 17.9922H12.6146Z" fill="#12181C"/>
<path fill-rule="evenodd" clip-rule="evenodd" d="M15.0078 18.5399H15.2116L15.4812 17.9922H15.2775L15.0078 18.5399Z" fill="#12181C"/>
<path fill-rule="evenodd" clip-rule="evenodd" d="M11.801 17.9922L11.5312 18.5399H11.735L12.0047 17.9922H11.801Z" fill="#12181C"/>
<path fill-rule="evenodd" clip-rule="evenodd" d="M12.2072 17.9922L11.9375 18.5399H12.1425L12.4122 17.9922H12.2072Z" fill="#12181C"/>
<path fill-rule="evenodd" clip-rule="evenodd" d="M11.2805 15.0449C11.2433 15.0449 11.2109 15.0808 11.2109 15.1275C11.2109 15.1729 11.2433 15.21 11.2805 15.21C11.3188 15.21 11.3524 15.1729 11.3524 15.1275C11.3512 15.0808 11.3188 15.0449 11.2805 15.0449Z" fill="#12181C"/>
<path fill-rule="evenodd" clip-rule="evenodd" d="M12.7771 2.6844C13.6162 2.6844 14.2886 2.96189 14.659 3.25972C14.659 3.25972 14.7704 2.59472 15.1456 2.0111L14.4696 2.08643L14.116 1.33536L13.4364 1.68818L12.7771 1.03516L12.1179 1.68818L11.4359 1.33536L11.0823 2.08643L10.4062 2.0111C10.7826 2.59472 10.8929 3.25972 10.8929 3.25972C11.2645 2.96189 11.9381 2.6844 12.7771 2.6844ZM11.1985 2.38545L11.521 1.70372L12.1179 2.02065L12.7771 1.37125L13.4364 2.02065L14.0333 1.70372L14.3521 2.38545L14.7489 2.32441C14.647 2.51458 14.5703 2.68084 14.4995 2.91408C14.0657 2.66168 13.4208 2.46677 12.7771 2.46677C12.1311 2.46677 11.4875 2.66168 11.0536 2.91408C10.9816 2.68084 10.9061 2.51458 10.803 2.32441L11.1985 2.38545Z" fill="#12181C"/>
<path fill-rule="evenodd" clip-rule="evenodd" d="M13.4595 1.33982C13.5578 1.34818 13.6453 1.27403 13.6537 1.17711C13.6633 1.07906 13.5194 0.818359 13.5194 0.818359C13.5194 0.818359 13.3049 1.04916 13.2977 1.14721C13.2881 1.24289 13.3624 1.3302 13.4595 1.33982Z" fill="#12181C"/>
<path fill-rule="evenodd" clip-rule="evenodd" d="M14.5712 1.74201C14.6588 1.78863 14.7654 1.75399 14.8121 1.66668C14.8601 1.58055 14.8289 1.28516 14.8289 1.28516C14.8289 1.28516 14.5436 1.4131 14.4969 1.50042C14.4513 1.58654 14.485 1.69414 14.5712 1.74201Z" fill="#12181C"/>
<path fill-rule="evenodd" clip-rule="evenodd" d="M12.0827 1.33982C12.1822 1.3302 12.2553 1.24414 12.2469 1.14721C12.2374 1.04916 12.0252 0.818359 12.0252 0.818359C12.0252 0.818359 11.8826 1.08024 11.891 1.17711C11.8982 1.27403 11.9856 1.34818 12.0827 1.33982Z" fill="#12181C"/>
<path fill-rule="evenodd" clip-rule="evenodd" d="M10.9779 1.74201C11.0654 1.69414 11.0978 1.58654 11.0522 1.50042C11.0066 1.4131 10.7202 1.28516 10.7202 1.28516C10.7202 1.28516 10.6902 1.58055 10.7382 1.66668C10.7825 1.75399 10.8904 1.78863 10.9779 1.74201Z" fill="#12181C"/>
<path fill-rule="evenodd" clip-rule="evenodd" d="M24.2594 7.81706C24.4955 7.73329 24.6777 7.50849 24.7688 7.30035C24.1683 7.21428 22.5729 6.54565 21.2616 7.08991C21.7531 6.62461 22.1942 6.56483 22.2361 5.89506C22.4398 6.04101 22.7839 6.1235 22.9781 5.7754C22.8426 5.37718 22.501 5.70007 22.4531 5.59007C22.3859 5.43697 22.8834 5.63676 22.99 5.11883C22.6029 4.98608 22.4878 5.30185 22.4183 5.22888C22.3547 5.15953 22.664 5.02673 22.4363 4.60938C22.0335 4.84498 22.2433 5.10932 22.1582 5.13918C22.0551 5.17984 22.1366 4.85572 21.6907 4.87127C21.6464 5.34845 22.109 5.36399 22.0335 5.43942C21.9412 5.53147 21.8214 5.16547 21.4846 5.3509C21.4906 5.73597 21.8034 5.94769 22.1258 5.85681C22.0731 6.58871 21.3995 6.45242 20.8984 7.27765C21.9604 7.82064 22.441 8.76783 23.0943 9.42322C23.3101 9.27021 23.6792 8.59084 23.6792 8.59084C24.3864 9.13746 24.8838 8.59319 24.8838 8.59319C24.6405 8.34445 24.6309 8.15554 24.2594 7.81706ZM23.2286 7.94981C23.3017 8.11126 23.4467 8.67455 23.1003 9.10396C22.7059 8.31817 22.1642 7.64478 21.7254 7.3542C21.6296 7.29197 21.7782 7.18314 22.0491 7.14725C22.8654 6.99296 23.823 7.33743 24.2785 7.45827C24.0664 7.61609 23.8938 7.68788 23.6769 7.71422C24.0077 7.99165 24.2498 8.22607 24.42 8.48682C24.0999 8.56695 23.9189 8.3648 23.2286 7.94981Z" fill="#12181C"/>
<path fill-rule="evenodd" clip-rule="evenodd" d="M16.413 20.1661V19.2715C15.7202 19.5884 14.8392 19.8456 13.7053 19.9472L13.6538 20.2666C13.7497 20.2797 13.872 20.2917 14.035 20.3025C13.6154 20.3599 13.0724 20.3874 12.7753 20.3874C12.4768 20.3874 11.935 20.3599 11.5143 20.3025C11.6761 20.2917 11.7983 20.2797 11.8943 20.2666L11.8427 19.9472C10.7088 19.8456 9.82666 19.5884 9.13504 19.2715V20.1661L8.19531 20.5512C8.89171 20.9125 9.69241 21.2067 10.6177 21.4446L10.5074 21.819C11.0372 21.9745 11.8846 22.1323 12.7728 22.1323C13.661 22.1323 14.5072 21.9733 15.0382 21.819L14.9291 21.4446C15.8533 21.2067 16.6563 20.9125 17.3528 20.5512L16.413 20.1661ZM8.69751 20.5715L9.3316 20.3168V19.5884C9.73908 19.7451 10.2737 19.9078 11.0408 20.0668L10.6812 21.2354C9.89856 21.0559 9.23329 20.8143 8.69751 20.5715ZM12.774 21.9183C12.0584 21.9183 11.3597 21.8118 10.7627 21.6647L11.1427 20.4388C11.3944 20.4974 12.0249 20.5739 12.774 20.5739C13.5244 20.5739 14.1512 20.4962 14.4042 20.4388L14.7853 21.6647C14.186 21.8118 13.4884 21.9183 12.774 21.9183ZM14.868 21.2354L14.5084 20.0668C15.2755 19.909 15.8101 19.7451 16.2176 19.5884V20.3168L16.8505 20.5715C16.3148 20.8143 15.6519 21.0559 14.868 21.2354Z" fill="#12181C"/>
<path fill-rule="evenodd" clip-rule="evenodd" d="M1.86085 8.59084C1.86085 8.59084 2.23003 9.27021 2.44456 9.42322C3.09899 8.76905 3.58082 7.82181 4.6416 7.27765C4.13937 6.45242 3.46579 6.59116 3.41541 5.85681C3.73784 5.94769 4.04951 5.7348 4.0567 5.3509C3.71869 5.16547 3.59884 5.53387 3.50772 5.43942C3.43225 5.36164 3.89368 5.34845 3.85056 4.87127C3.40465 4.8569 3.48613 5.17984 3.38187 5.13918C3.29795 5.10932 3.50772 4.8438 3.10381 4.60938C2.87726 5.02796 3.18767 5.15953 3.12296 5.22888C3.05468 5.30185 2.93722 4.9873 2.5512 5.11883C2.65553 5.63676 3.15532 5.43697 3.08823 5.59007C3.04029 5.70007 2.69984 5.37718 2.5656 5.7754C2.75742 6.12468 3.10262 6.04219 3.30514 5.89624C3.34833 6.56718 3.78822 6.62343 4.28081 7.08991C2.96838 6.54565 1.37301 7.21428 0.770091 7.30153C0.8624 7.50849 1.04458 7.73329 1.28071 7.81461C0.909148 8.15672 0.899511 8.34568 0.65625 8.59319C0.65625 8.59319 1.15248 9.13746 1.86085 8.59084ZM1.11768 8.488C1.28909 8.22729 1.53004 7.99165 1.86323 7.71539C1.64506 7.68788 1.47365 7.61609 1.2603 7.45827C1.71697 7.33743 2.67587 6.99178 3.49333 7.14725C3.76181 7.18314 3.91289 7.29197 3.81457 7.3542C3.37586 7.64478 2.83289 8.31817 2.43855 9.10396C2.09335 8.67455 2.2396 8.11244 2.31032 7.95099C1.62109 8.3648 1.44129 8.56695 1.11768 8.488Z" fill="#12181C"/>
<path fill-rule="evenodd" clip-rule="evenodd" d="M12.2031 8.0918V8.48526C12.3386 8.32141 12.6023 8.35373 12.6023 8.35373V8.92183C12.6023 8.92183 12.5927 9.20166 12.4944 9.32127H12.7785H13.0626C12.9631 9.20166 12.9547 8.92183 12.9547 8.92183V8.35491C12.9547 8.35491 13.2172 8.32259 13.3526 8.48648V8.09297H12.7785H12.2031V8.0918Z" fill="#12181C"/>
<path d="M33.6837 14.5236V10.7236H35.9329V9.34078H29.7969V10.7236H32.046V14.5236H33.6837ZM38.2261 9.34078H36.5883V14.5236H38.2261V9.34078ZM39.4245 9.34078V14.5236H40.9312V11.66L43.7372 14.5236H45.1347V9.34078H43.628V12.1826L40.8875 9.34078H39.4245ZM48.3536 12.5637L50.2422 14.5236H52.3495L49.7183 11.8233L52.2513 9.34078H50.2644L48.3536 11.2898H47.9166V9.34078H46.3336V14.5236H47.9166V12.5637H48.3536ZM55.6071 9.19922C53.478 9.19922 52.2007 10.3969 52.2007 11.9431C52.2007 13.4892 53.478 14.6869 55.6071 14.6869C57.7253 14.6869 59.0026 13.4892 59.0026 11.9431C59.0026 10.3969 57.7253 9.19922 55.6071 9.19922ZM55.6071 13.4239C54.548 13.4239 53.8711 12.7923 53.8711 11.9431C53.8711 11.0938 54.548 10.4732 55.6071 10.4732C56.6553 10.4732 57.3431 11.0938 57.3431 11.9431C57.3431 12.7923 56.6553 13.4239 55.6071 13.4239ZM65.0062 9.34078H59.7551V14.5236H61.3376V12.7161H64.7776V11.5729H61.3376V10.6582H65.0062V9.34078ZM70.9668 9.34078H65.7148V14.5236H67.2982V12.7161H70.7377V11.5729H67.2982V10.6582H70.9668V9.34078Z" fill="white"/>
</g>
<defs>
<clipPath id="clip0_6038_1265">
<rect width="71" height="23" fill="white"/>
</clipPath>
</defs>
</svg>
