<svg width="127" height="52" viewBox="0 0 127 52" fill="none" xmlns="http://www.w3.org/2000/svg">
<g filter="url(#filter0_d_2015_713)">
<path d="M21.3507 20.5236C21.0969 19.9535 20.2562 19.9427 19.9975 20.5106C19.3607 21.9089 18.3256 24.0771 17.0763 26.3079C16.9429 26.546 16.958 26.84 17.1126 27.0649C17.6742 27.8826 19.0493 29.9689 20.1468 32.3188C20.4196 32.9029 21.3198 32.9013 21.5719 32.308C22.2146 30.7949 23.2276 28.6088 24.294 27.0837C24.4592 26.8474 24.4776 26.5376 24.3313 26.2892C23.8021 25.3908 22.5053 23.1174 21.3507 20.5236Z" fill="url(#paint0_linear_2015_713)"/>
</g>
<g filter="url(#filter1_d_2015_713)">
<path d="M33.2161 44.8088C32.7324 44.8562 32.4451 45.3723 32.6597 45.8084L33.3407 47.1923C33.584 47.6868 34.0872 48 34.6383 48H50.4909C50.987 48 51.4485 47.7458 51.7135 47.3264L53 45.2908C47.1044 43.052 40.9475 29.3511 40.8267 29.0812C40.823 29.0728 40.8229 29.073 40.8188 29.0648L28.5537 4.26269C28.2981 3.74596 27.5611 3.74632 27.3061 4.2633L24.1657 10.6294C23.6435 11.688 23.6532 12.9257 24.1913 13.9763C27.017 19.493 33.2629 31.8713 35.7485 36.8962C38.7925 43.0519 35.2933 44.4213 33.7381 44.7576L33.2161 44.8088Z" fill="url(#paint1_linear_2015_713)"/>
</g>
<g filter="url(#filter2_d_2015_713)">
<path d="M14.8741 35.5372C14.6104 34.9821 13.7777 34.98 13.5053 35.5309C12.21 38.1495 9.15757 43.4736 5.00003 45.2908L6.14155 48H20.5317C21.1457 48 21.6928 47.6123 21.8963 47.0329L22.508 45.2908C21.4519 44.8264 18.3768 42.9097 14.8741 35.5372Z" fill="url(#paint2_linear_2015_713)"/>
</g>
<path d="M88.2448 34.2552V34.7277L88.574 44.6713C88.8666 44.8904 89.1372 45 89.386 45C89.6347 45 89.7737 44.774 89.8029 44.322C89.8029 44.1851 89.7956 43.8632 89.781 43.3564C89.781 42.836 89.7737 42.2265 89.759 41.528C89.759 40.8294 89.7517 40.083 89.7371 39.2886C89.7224 38.4942 89.7078 37.7478 89.6932 37.0492C89.6786 36.3507 89.6639 35.7481 89.6493 35.2413C89.6347 34.7209 89.6274 34.3921 89.6274 34.2552L89.6493 33.8169L89.6274 33.4471V32.8376C89.5835 32.4678 89.5542 32.0638 89.5396 31.6255C89.5249 31.1735 89.5176 30.7147 89.5176 30.249C89.5323 29.7696 89.5469 29.2971 89.5615 28.8314C89.5761 28.352 89.5981 27.9 89.6274 27.4755C89.5835 27.3385 89.4957 27.2289 89.364 27.1467C89.2323 27.0509 89.086 27.0029 88.9251 27.0029C88.7788 26.9892 88.6325 27.0235 88.4862 27.1057C88.3399 27.1878 88.2448 27.318 88.2009 27.496L88.2448 33.3101V33.9675V34.2552Z" fill="white"/>
<path d="M79.5984 43.3359C79.2034 43.3222 78.8669 43.2126 78.5889 43.0072C78.1793 43.1578 77.9818 43.3701 77.9964 43.6441C78.011 43.9043 78.1866 44.1714 78.5231 44.4453C78.8303 44.5275 79.2326 44.5343 79.7301 44.4658C80.2421 44.3974 80.7834 44.2672 81.354 44.0755C81.9392 43.8837 82.5244 43.6441 83.1096 43.3564C83.6948 43.0551 84.2215 42.7264 84.6897 42.3703C85.1725 42.0005 85.5675 41.6101 85.8747 41.1992C86.182 40.7747 86.3429 40.3364 86.3575 39.8844C86.3283 39.1722 86.1746 38.686 85.8967 38.4257C85.6187 38.1518 85.2676 38.0011 84.8433 37.9737C84.419 37.9327 83.9435 37.9669 83.4169 38.0765C82.8902 38.1723 82.3708 38.2408 81.8587 38.2819C81.3613 38.323 80.8858 38.2819 80.4323 38.1586C79.9934 38.0217 79.635 37.7067 79.357 37.2136C79.2253 36.789 79.2546 36.3165 79.4448 35.796C79.635 35.2756 79.9568 34.8099 80.4104 34.399C80.8639 33.9744 81.4345 33.6457 82.1221 33.4128C82.8097 33.18 83.5851 33.1458 84.4483 33.3101C84.697 33.3375 84.8945 33.2896 85.0408 33.1663C85.1871 33.043 85.2676 32.8787 85.2822 32.6732C85.2968 32.5089 85.2749 32.3856 85.2164 32.3034C85.1725 32.2213 85.0993 32.1596 84.9969 32.1185C84.8945 32.0774 84.7775 32.0569 84.6458 32.0569C84.5287 32.0432 84.3971 32.0295 84.2508 32.0158C83.5193 31.9747 82.7951 32.0706 82.0782 32.3034C81.376 32.5363 80.7322 32.8718 80.147 33.3101C79.5764 33.7484 79.101 34.2826 78.7206 34.9126C78.3548 35.5289 78.15 36.1932 78.1061 36.9054C78.0769 37.645 78.2451 38.1929 78.6109 38.549C78.9766 38.9051 79.4521 39.1311 80.0373 39.227C80.6371 39.3228 81.3101 39.3228 82.0563 39.227C82.8024 39.1311 83.5485 39.001 84.2947 38.8366C84.7043 38.9736 84.9677 39.1585 85.0847 39.3913C85.2017 39.6242 85.209 39.8844 85.1066 40.172C85.0042 40.4459 84.8067 40.7404 84.5141 41.0554C84.2361 41.3568 83.8997 41.6444 83.5046 41.9183C83.1243 42.1922 82.7 42.4456 82.2318 42.6785C81.7783 42.8976 81.3247 43.0688 80.8712 43.1921C80.4323 43.3016 80.008 43.3496 79.5984 43.3359Z" fill="white"/>
<path fill-rule="evenodd" clip-rule="evenodd" d="M99.5246 44.2809C99.3198 43.9933 99.1881 43.6167 99.1296 43.151C99.0857 42.6853 99.0565 42.1991 99.0418 41.6923V40.172C99.0565 39.6653 99.0199 39.2338 98.9321 38.8777C98.2445 40.2884 97.5935 41.391 96.979 42.1854C96.3792 42.9661 95.8232 43.5276 95.3112 43.87C94.8137 44.1988 94.3602 44.3494 93.9506 44.322C93.5409 44.2809 93.1898 44.144 92.8972 43.9111C92.6192 43.6646 92.3998 43.3701 92.2388 43.0277C92.0779 42.6716 91.9901 42.336 91.9755 42.021C91.8731 41.5006 91.8658 40.8774 91.9535 40.1515C92.056 39.4119 92.2242 38.6517 92.4583 37.871C92.707 37.0903 93.0142 36.3302 93.38 35.5906C93.7604 34.8373 94.1846 34.1867 94.6528 33.6388C95.1356 33.091 95.6477 32.6869 96.189 32.4267C96.7303 32.1528 97.2935 32.1048 97.8787 32.2829C98.1714 32.2555 98.4127 32.2692 98.6029 32.324C98.8078 32.3651 98.976 32.4609 99.1077 32.6116C99.2394 32.7623 99.3344 32.9746 99.393 33.2485C99.4515 33.5087 99.4954 33.8443 99.5246 34.2552C99.4954 35.5837 99.532 36.7137 99.6344 37.645C99.7514 38.5764 99.8831 39.3982 100.029 40.1104C100.176 40.8226 100.315 41.4663 100.446 42.0416C100.593 42.6168 100.68 43.2126 100.71 43.829C100.71 44.0481 100.651 44.2193 100.534 44.3426C100.417 44.4521 100.285 44.5206 100.139 44.548C99.9928 44.5891 99.8538 44.5823 99.7221 44.5275C99.6051 44.4727 99.5393 44.3905 99.5246 44.2809ZM98.2518 33.9059C97.9007 33.4676 97.5203 33.2827 97.1107 33.3512C96.701 33.4197 96.2914 33.6594 95.8817 34.0703C95.4867 34.4675 95.1063 34.9948 94.7406 35.6522C94.3748 36.2959 94.0603 36.9876 93.7969 37.7272C93.5336 38.4668 93.3361 39.2064 93.2044 39.946C93.0874 40.6719 93.0654 41.3157 93.1386 41.8772C93.3434 42.4936 93.5921 42.8634 93.8847 42.9866C94.1773 43.1099 94.4919 43.0688 94.8284 42.8634C95.1649 42.6442 95.5087 42.3018 95.8598 41.8361C96.2109 41.3705 96.5474 40.8705 96.8693 40.3364C97.1911 39.7885 97.4764 39.2475 97.7251 38.7134C97.9885 38.1655 98.2006 37.7067 98.3615 37.3369L98.2518 33.9059Z" fill="white"/>
<path d="M101.719 39.2886C101.748 40.6035 101.785 42.2059 101.829 44.096C101.887 44.2467 101.99 44.3631 102.136 44.4453C102.297 44.5138 102.451 44.5412 102.597 44.5275C102.758 44.5275 102.897 44.4932 103.014 44.4247C103.146 44.3426 103.219 44.2262 103.233 44.0755C103.248 43.6235 103.241 43.0962 103.211 42.4936C103.197 41.8909 103.197 41.254 103.211 40.5829C103.241 39.9118 103.307 39.2407 103.409 38.5695C103.526 37.8847 103.738 37.2341 104.045 36.6178C104.25 36.1932 104.528 35.7892 104.879 35.4057C105.245 35.0222 105.662 34.6935 106.13 34.4195C106.613 34.1319 107.14 33.9196 107.71 33.7827C108.295 33.632 108.917 33.5772 109.576 33.6183C109.707 33.5635 109.81 33.4813 109.883 33.3718C109.971 33.2485 110.007 33.1252 109.993 33.002C109.993 32.865 109.941 32.7417 109.839 32.6322C109.751 32.5226 109.612 32.4473 109.422 32.4062C108.851 32.3103 108.23 32.3171 107.557 32.4267C106.898 32.5363 106.262 32.776 105.647 33.1458C105.033 33.5019 104.477 33.9949 103.98 34.625C103.497 35.255 103.146 36.0426 102.926 36.9876L102.86 32.2624C102.802 32.1391 102.707 32.0501 102.575 31.9953C102.443 31.9405 102.304 31.9268 102.158 31.9542C102.026 31.9679 101.902 32.0158 101.785 32.098C101.668 32.1802 101.602 32.2829 101.587 32.4062V32.9198C101.602 33.1526 101.609 33.5156 101.609 34.0086C101.624 34.488 101.639 35.1591 101.653 36.022C101.668 36.8849 101.69 37.9737 101.719 39.2886Z" fill="white"/>
<path d="M116.116 17.5701C115.147 15.0805 102.694 17.8663 88.3016 23.7925C73.9091 29.7186 63.0271 36.541 63.9959 39.0306" stroke="url(#paint3_linear_2015_713)" stroke-width="2.62745"/>
<path d="M91.6802 12.5071C92.6859 11.8446 94.1216 10.4129 94.8526 8.06074H97.0156V12.4276H100.105V13.7377H97.0156V22.3259C97.0156 23.3739 97.1373 24.1017 97.3807 24.5093C97.6241 24.8975 97.9891 25.0915 98.4759 25.0915C99 25.0915 99.5242 24.9654 100.048 24.7131C100.254 24.5966 100.47 24.4608 100.694 24.3055L101.087 25.1206C100.844 25.3341 100.554 25.5476 100.217 25.7611C99.4306 26.1881 98.5039 26.4016 97.4368 26.4016C96.1451 26.4016 95.1435 26.0425 94.4321 25.3244C93.7208 24.5869 93.3651 23.5292 93.3651 22.1512V13.7377H91.6802V12.5071Z" fill="white"/>
<path fill-rule="evenodd" clip-rule="evenodd" d="M77.4083 26.2269C76.2289 26.2269 75.1618 25.9746 74.207 25.47C73.2523 24.946 72.4754 23.9367 71.8763 22.4423L71.2304 20.812H63.7608L61.4581 26.1105H59.9979L68.2819 6.89624H69.5455L75.8357 22.4423C76.5471 24.2473 77.5206 25.2177 78.7562 25.3535V26.0814C78.4192 26.1784 77.9699 26.2269 77.4083 26.2269ZM64.3505 19.5019H70.6969L67.6079 11.9036L64.3505 19.5019Z" fill="white"/>
<path d="M84.3854 26.4016C82.1951 26.4016 80.688 26.0037 79.8643 25.208C79.5648 24.9169 79.3776 24.5093 79.3027 23.9853C79.2278 23.4418 79.1904 22.6946 79.1904 21.7436H80.1732C80.3417 22.7528 80.7255 23.568 81.3245 24.189C81.9236 24.7907 82.7567 25.0915 83.8238 25.0915C85.6959 25.0915 86.6319 24.4317 86.6319 23.1119C86.6319 22.6073 86.426 22.19 86.0141 21.86C85.621 21.5301 84.9845 21.1614 84.1046 20.7538L82.6444 20.1133C81.4462 19.5699 80.5476 18.9779 79.9486 18.3374C79.3495 17.697 79.05 16.9206 79.05 16.0084C79.05 14.7857 79.5367 13.8347 80.5102 13.1554C81.5024 12.4761 82.7941 12.1365 84.3854 12.1365C86.5757 12.1365 88.0828 12.5344 88.9065 13.3301C89.206 13.6212 89.3932 14.0288 89.4681 14.5528C89.543 15.0768 89.5804 15.8241 89.5804 16.7945H88.5976C88.4291 15.7852 88.0453 14.9798 87.4463 14.3781C86.8472 13.7571 86.0141 13.4465 84.947 13.4465C84.142 13.4465 83.543 13.6309 83.1498 13.9997C82.7567 14.349 82.5601 14.8245 82.5601 15.4262C82.5601 15.9114 82.7192 16.319 83.0375 16.6489C83.3745 16.9595 83.8799 17.27 84.5539 17.5805L86.2388 18.3083C87.6241 18.91 88.6163 19.5213 89.2154 20.1424C89.8332 20.7441 90.1421 21.5398 90.1421 22.5296C90.1421 23.7718 89.6085 24.7325 88.5414 25.4118C87.4931 26.0717 86.1077 26.4016 84.3854 26.4016Z" fill="white"/>
<path d="M111.717 12.7187C112.054 12.971 112.297 13.2525 112.447 13.563C112.597 13.8541 112.671 14.0094 112.671 14.0288L111.239 15.1642C111.108 14.9895 110.94 14.8051 110.734 14.611C110.322 14.2229 109.845 14.0288 109.302 14.0288C108.216 14.0288 107.383 14.3296 106.802 14.9313L106.859 15.368C106.896 15.7173 106.915 16.0376 106.915 16.3287V26.1105H103.264V16.2122C103.264 15.2224 103.133 14.4946 102.871 14.0288C102.628 13.5436 102.113 13.301 101.327 13.301H101.046V12.4276H103.826C104.462 12.4276 104.958 12.5149 105.314 12.6896C105.689 12.8449 105.979 13.1166 106.185 13.5048C107.196 12.5926 108.375 12.1365 109.723 12.1365C110.528 12.1365 111.192 12.3306 111.717 12.7187Z" fill="white"/>
<path fill-rule="evenodd" clip-rule="evenodd" d="M116.664 25.47C117.694 26.0911 118.892 26.4016 120.258 26.4016C121.625 26.4016 122.814 26.0911 123.825 25.47C124.854 24.8295 125.641 23.9756 126.184 22.9081C126.726 21.8212 126.998 20.6082 126.998 19.269C126.998 17.9299 126.726 16.7266 126.184 15.6591C125.641 14.5722 124.854 13.7183 123.825 13.0972C122.814 12.4567 121.625 12.1365 120.258 12.1365C118.892 12.1365 117.694 12.4567 116.664 13.0972C115.653 13.7183 114.876 14.5722 114.333 15.6591C113.79 16.7266 113.519 17.9299 113.519 19.269C113.519 20.6082 113.79 21.8212 114.333 22.9081C114.876 23.9756 115.653 24.8295 116.664 25.47ZM122.449 23.4903C121.943 24.5578 121.213 25.0915 120.258 25.0915C119.304 25.0915 118.574 24.5578 118.068 23.4903C117.563 22.4229 117.31 21.0158 117.31 19.269C117.31 17.5223 117.563 16.1152 118.068 15.0477C118.574 13.9803 119.304 13.4465 120.258 13.4465C121.213 13.4465 121.943 13.9803 122.449 15.0477C122.954 16.1152 123.207 17.5223 123.207 19.269C123.207 21.0158 122.954 22.4229 122.449 23.4903Z" fill="white"/>
<path d="M116.116 17.5703C117.085 20.0599 106.203 26.8823 91.81 32.8084C77.4175 38.7346 64.9647 41.5204 63.9959 39.0308" stroke="white" stroke-width="2.62745"/>
<defs>
<filter id="filter0_d_2015_713" x="4.46231" y="8.03087" width="32.4914" height="37.7111" filterUnits="userSpaceOnUse" color-interpolation-filters="sRGB">
<feFlood flood-opacity="0" result="BackgroundImageFix"/>
<feColorMatrix in="SourceAlpha" type="matrix" values="0 0 0 0 0 0 0 0 0 0 0 0 0 0 0 0 0 0 127 0" result="hardAlpha"/>
<feOffset dy="0.463825"/>
<feGaussianBlur stdDeviation="6.26164"/>
<feComposite in2="hardAlpha" operator="out"/>
<feColorMatrix type="matrix" values="0 0 0 0 0 0 0 0 0 1 0 0 0 0 0.64 0 0 0 0.7 0"/>
<feBlend mode="normal" in2="BackgroundImageFix" result="effect1_dropShadow_2015_713"/>
<feBlend mode="normal" in="SourceGraphic" in2="effect1_dropShadow_2015_713" result="shape"/>
</filter>
<filter id="filter1_d_2015_713" x="19.6064" y="0.396554" width="35.7128" height="50.6183" filterUnits="userSpaceOnUse" color-interpolation-filters="sRGB">
<feFlood flood-opacity="0" result="BackgroundImageFix"/>
<feColorMatrix in="SourceAlpha" type="matrix" values="0 0 0 0 0 0 0 0 0 0 0 0 0 0 0 0 0 0 127 0" result="hardAlpha"/>
<feOffset dx="-0.927651" dy="-0.231913"/>
<feGaussianBlur stdDeviation="1.62339"/>
<feComposite in2="hardAlpha" operator="out"/>
<feColorMatrix type="matrix" values="0 0 0 0 0.368627 0 0 0 0 0.266667 0 0 0 0 0.988235 0 0 0 0.4 0"/>
<feBlend mode="normal" in2="BackgroundImageFix" result="effect1_dropShadow_2015_713"/>
<feBlend mode="normal" in="SourceGraphic" in2="effect1_dropShadow_2015_713" result="shape"/>
</filter>
<filter id="filter2_d_2015_713" x="0.825602" y="31.6407" width="24.0015" height="19.3742" filterUnits="userSpaceOnUse" color-interpolation-filters="sRGB">
<feFlood flood-opacity="0" result="BackgroundImageFix"/>
<feColorMatrix in="SourceAlpha" type="matrix" values="0 0 0 0 0 0 0 0 0 0 0 0 0 0 0 0 0 0 127 0" result="hardAlpha"/>
<feOffset dx="-0.927651" dy="-0.231913"/>
<feGaussianBlur stdDeviation="1.62339"/>
<feComposite in2="hardAlpha" operator="out"/>
<feColorMatrix type="matrix" values="0 0 0 0 0.368627 0 0 0 0 0.266667 0 0 0 0 0.988235 0 0 0 0.4 0"/>
<feBlend mode="normal" in2="BackgroundImageFix" result="effect1_dropShadow_2015_713"/>
<feBlend mode="normal" in="SourceGraphic" in2="effect1_dropShadow_2015_713" result="shape"/>
</filter>
<linearGradient id="paint0_linear_2015_713" x1="20.7159" y1="18.948" x2="20.7159" y2="34.0417" gradientUnits="userSpaceOnUse">
<stop stop-color="#45DEFF"/>
<stop offset="1" stop-color="white"/>
</linearGradient>
<linearGradient id="paint1_linear_2015_713" x1="38.1429" y1="3.00049" x2="45.7738" y2="50.0313" gradientUnits="userSpaceOnUse">
<stop stop-color="#00FDFE"/>
<stop offset="1" stop-color="#0266EF"/>
</linearGradient>
<linearGradient id="paint2_linear_2015_713" x1="13.7394" y1="34.0419" x2="15.007" y2="48.906" gradientUnits="userSpaceOnUse">
<stop stop-color="#00FDFE"/>
<stop offset="1" stop-color="#0266EF"/>
</linearGradient>
<linearGradient id="paint3_linear_2015_713" x1="90.1479" y1="29.2841" x2="87.3335" y2="22.216" gradientUnits="userSpaceOnUse">
<stop stop-color="white"/>
<stop offset="1" stop-color="white" stop-opacity="0"/>
</linearGradient>
</defs>
</svg>
