<svg width="360" height="439" viewBox="0 0 360 439" fill="none" xmlns="http://www.w3.org/2000/svg">
<g clip-path="url(#clip0_6038_1680)">
<path d="M3.05176e-05 0.486642V22H360L360 7.23602C345.452 7.23602 316.328 2.98884 283.112 2.9884C269.873 2.98822 267.105 2.61352 258.67 3.98902C248.125 5.70867 240.517 -1.45564 225.75 0.616889C207.928 3.11822 204.291 1.30036 195.125 2.14479C189.269 2.68429 188.938 5.99005 170.071 5.99005C158.125 5.99005 159.887 1.98756 136.464 1.98756C121.188 1.98756 122.707 5.17308 111.25 3.67214C86.7975 0.468671 84.0534 3.46452 74.0877 2.98797C63.625 2.48766 60.5941 -0.513982 52.9561 2.48766C45.3182 5.48931 47.6609 6.87924 38.75 4.69038C32.6397 3.18944 31.6465 5.73534 20.8769 3.98859C11.625 2.488 4.41302 -1.34783 3.05176e-05 0.486642Z" fill="#19043C"/>
<rect y="22" width="360" height="417" fill="#19043C"/>
</g>
<defs>
<clipPath id="clip0_6038_1680">
<rect width="360" height="439" fill="white"/>
</clipPath>
</defs>
</svg>
