<svg width="768" height="274" viewBox="0 0 768 274" fill="none" xmlns="http://www.w3.org/2000/svg">
<rect y="11" width="768" height="263" fill="#19043C"/>
<path d="M-1.64031e-05 0.243321V11H768L768 3.61801C736.964 3.61801 674.832 1.49442 603.972 1.4942C575.728 1.49411 569.825 1.30676 551.83 1.99451C529.333 2.85433 513.102 -0.727821 481.6 0.308445C443.58 1.55911 435.82 0.650179 416.267 1.0724C403.775 1.34215 403.069 2.99503 362.818 2.99503C337.334 2.99503 341.092 0.993782 291.123 0.993782C258.535 0.993782 261.775 2.58654 237.334 1.83607C185.168 0.234335 179.314 1.73226 158.054 1.49399C135.733 1.24383 129.267 -0.256991 112.973 1.24383C96.6789 2.74465 101.677 3.43962 82.6666 2.34519C69.6313 1.59472 67.5124 2.86767 44.5374 1.9943C24.7999 1.244 9.41444 -0.673916 -1.64031e-05 0.243321Z" fill="#19043C"/>
</svg>
