<svg width="1440" height="308" viewBox="0 0 1440 308" fill="none" xmlns="http://www.w3.org/2000/svg">
<rect y="21" width="1440" height="287" fill="#19043C"/>
<path d="M0.000244141 0.477928V21.6061H1440L1440 7.10645C1381.81 7.10645 1265.31 2.93532 1132.45 2.93489C1079.49 2.93472 1068.42 2.56672 1034.68 3.91759C992.5 5.60645 962.067 -1.42958 903 0.605843C831.713 3.06238 817.162 1.27707 780.5 2.10639C757.077 2.63623 755.754 5.88279 680.283 5.88279C632.5 5.88279 639.548 1.95197 545.856 1.95197C484.753 1.95197 490.828 5.08044 445 3.60639C347.19 0.460279 336.214 3.40248 296.351 2.93447C254.5 2.44312 242.376 -0.504778 211.825 2.44312C181.273 5.39101 190.644 6.75605 155 4.60639C130.559 3.13233 126.586 5.63264 83.5078 3.91717C46.5001 2.44345 17.6523 -1.3237 0.000244141 0.477928Z" fill="#19043C"/>
</svg>
