<svg width="328" height="423" fill="none" xmlns="http://www.w3.org/2000/svg"><path d="M322.82 3.104C328.131 4.81 328 13 328 13H0C0 0 10.964-.992 26.238.684 39.656 2.157 43.823 1.74 69.049 1.74c12.22 0 15.593-.83 23.607.682 14.459 2.73 16.174-3.095 29.803-1.706C140.164 2.52 142.218-.33 151.967.032c9.148.342 5.914 2.237 23.328 2.237 9.635 0 17.048-1.213 30.672-1.213 8.212 0 13.601.623 24.197 0 17.41-1.024 13.869 1.024 31.869-.341 9.366-.71 8.557 0 19.475 1.024 7.737.725 6.306-.342 15.935-.342 6.196 0 3.836 1.448 14.164.342 8.35-.895 5.901-.342 11.213 1.365ZM.022 13H13v397H.022c0-.642 1.998-12.162 1.998-48.765 0-14.589-1.663-37.79-.333-53.067C2.99 293.202-.309 281.033.024 264.01c.384-19.687-.22-25.387.332-35.487.6-10.964 2.662-8.496 2.662-24.63 0-16.812-1.996-26.15-2.329-40.287-.396-16.83 1.17-18.176.998-28.275-.332-19.619 1.903-28.435.998-39.526-1.17-14.353-.998-11.541-.665-23.384.24-8.583 1.996-8.642 1.33-15.855-.955-10.36.667-8.078-.457-20.273C1.968 26.25 1.353 32.62.023 13ZM13 13h302v397H13z" fill="#371980"/><path d="M327.984 13H315v397h12.978c0-.642-1.998-12.162-1.998-48.765 0-14.589 1.663-37.79.333-53.067-1.303-14.966 1.996-27.135 1.663-44.158-.384-19.687.22-25.387-.332-35.487-.599-10.964-2.662-8.496-2.662-24.63 0-16.812 1.996-26.15 2.329-40.287.396-16.83-1.17-18.176-.998-28.275.332-19.619-1.903-28.435-.998-39.526 1.171-14.353.998-11.541.665-23.384-.241-8.583-1.996-8.642-1.331-15.855.956-10.36.211-9.444 1.335-21.639.925-10.043 1.667-15.325 2-21.927ZM322.194 418.829C326.868 417.141 328 410 328 410H0c0 7.298 0 14.265 15.066 12.606 13.236-1.457 24.693-.001 54.933 0 12.053 0 14.712 1.233 22.251-.664 9.17-2.307 15.517.708 28.974-.465 15.482-1.351 19.698.56 28.043 0 5.331-.358 6.191-1.35 23.368-1.35 9.503 0 8.471.337 29.795.337 13.907 0 13.23-1.67 23.661-.675 22.261 2.124 26.453-.357 35.637 1.013 9.055 1.35 10.224 1.35 17.234 0 7.066-1.361 6.782-3.424 14.895-1.973 5.562.995 3.565-.395 13.732.96 7.594 1.012 9.931.728 14.605-.96Z" fill="#371980"/></svg>