<svg width="346" height="467" fill="none" xmlns="http://www.w3.org/2000/svg"><path d="M340.535 3.104C346.138 4.81 346 13 346 13H0C0 0 11.566-.992 27.678.684c14.154 1.473 18.55 1.055 45.16 1.055 12.89 0 16.449-.83 24.903.682 15.252 2.73 17.062-3.095 31.438-1.706C147.856 2.52 150.023-.33 160.307.032c9.649.342 6.239 2.237 24.608 2.237 10.163 0 17.983-1.213 32.355-1.213 8.663 0 14.347.623 25.525 0C261.16.032 257.425 2.08 276.413.715c9.88-.71 9.027 0 20.544 1.024 8.161.725 6.652-.342 16.809-.342 6.536 0 4.046 1.448 14.941.342 8.808-.895 6.225-.342 11.828 1.365ZM.022 13H13v441H.022c0-.713 1.998-13.51 1.998-54.17 0-16.206-1.663-41.978-.333-58.948C2.99 324.257-.309 310.739.024 291.83c.384-21.87-.22-28.201.332-39.421.6-12.179 2.662-9.437 2.662-27.359 0-18.675-1.996-29.048-2.329-44.752-.396-18.695 1.17-20.19.998-31.408-.332-21.794 1.903-31.588.998-43.908-1.17-15.944-.998-12.82-.665-25.975.24-9.535 1.996-9.6 1.33-17.612-.955-11.509.667-8.974-.457-22.52C1.968 27.718 1.353 34.794.023 13ZM13 13h320v441H13z" fill="#371980"/><path d="M345.984 13H333v441h12.978c0-.713-1.998-13.51-1.998-54.17 0-16.206 1.663-41.978.333-58.948-1.303-16.625 1.996-30.143 1.663-49.052-.384-21.87.22-28.201-.332-39.421-.599-12.179-2.662-9.437-2.662-27.359 0-18.675 1.996-29.048 2.329-44.752.396-18.695-1.17-20.19-.998-31.408.332-21.794-1.903-31.588-.998-43.908 1.171-15.944.998-12.82.665-25.975-.241-9.535-1.996-9.6-1.331-17.612.956-11.509.211-10.491 1.335-24.038.925-11.156 1.667-17.023 2-24.357ZM339.875 462.829C344.806 461.141 346 454 346 454H0c0 7.298 0 14.265 15.893 12.606 13.962-1.457 26.048-.001 57.948 0 12.714 0 15.519 1.233 23.472-.664 9.673-2.307 16.368.708 30.564-.465 16.331-1.351 20.779.56 29.581 0 5.624-.358 6.531-1.35 24.651-1.35 10.025 0 8.936.337 31.43.337 14.67 0 13.956-1.67 24.959-.675 23.484 2.124 27.905-.357 37.593 1.013 9.552 1.35 10.785 1.35 18.18 0 7.454-1.361 7.154-3.424 15.712-1.973 5.868.995 3.761-.395 14.485.96 8.012 1.012 10.477.728 15.407-.96Z" fill="#371980"/></svg>