<svg width="526" height="717" fill="none" xmlns="http://www.w3.org/2000/svg"><path d="M517.692 3.104C526.21 4.81 526 13 526 13H0C0 0 17.583-.992 42.077.684c21.517 1.473 28.2 1.055 68.654 1.055 19.595 0 25.006-.83 37.857.682 23.187 2.73 25.938-3.095 47.794-1.706C224.775 2.52 228.07-.33 243.703.032c14.67.342 9.485 2.237 37.411 2.237 15.45 0 27.338-1.213 49.187-1.213 13.169 0 21.811.623 38.803 0 27.92-1.024 22.241 1.024 51.107-.341 15.02-.71 13.723 0 31.232 1.024 12.408.725 10.112-.342 25.553-.342 9.938 0 6.152 1.448 22.714.342 13.392-.895 9.465-.342 17.982 1.365ZM.022 13H13v691H.022c0-1.117 1.998-21.168 1.998-84.878 0-25.393-1.663-65.776-.333-92.366 1.303-26.05-1.996-47.231-1.663-76.859.384-34.267-.22-44.188.332-61.768.6-19.083 2.662-14.788 2.662-42.87 0-29.261-1.996-45.514-2.329-70.121-.396-29.294 1.17-31.636.998-49.214-.332-34.148 1.903-49.493.998-68.798-1.17-24.982-.998-20.087-.665-40.701.24-14.939 1.996-15.041 1.33-27.596-.955-18.032.667-14.06-.457-35.286C1.968 36.06 1.353 47.148.023 13ZM13 13h500v691H13zM525.984 13H513v691h12.978c0-1.117-1.998-21.168-1.998-84.878 0-25.393 1.663-65.776.333-92.366-1.303-26.05 1.996-47.231 1.663-76.859-.384-34.267.22-44.188-.332-61.768-.599-19.083-2.662-14.788-2.662-42.87 0-29.261 1.996-45.514 2.329-70.121.396-29.294-1.17-31.636-.998-49.214.332-34.148-1.903-49.493-.998-68.798 1.171-24.982.998-20.087.665-40.701-.241-14.939-1.996-15.041-1.331-27.596.956-18.032.211-16.438 1.335-37.663.925-17.482 1.667-26.674 2-38.166ZM516.689 712.829C524.184 711.141 526 704 526 704H0c0 7.298 0 14.265 24.16 12.606 21.226-1.457 39.6-.001 88.095 0 19.328 0 23.593 1.233 35.683-.664 14.705-2.307 24.883.708 46.464-.465 24.828-1.351 31.589.56 44.971 0 8.549-.358 9.929-1.35 37.475-1.35 15.24 0 13.584.337 47.781.337 22.302 0 21.217-1.67 37.943-.675 35.701 2.124 42.422-.357 57.15 1.013 14.522 1.35 16.395 1.35 27.638 0 11.332-1.361 10.876-3.424 23.886-1.973 8.921.995 5.717-.395 22.021.96 12.18 1.012 15.927.728 23.422-.96Z" fill="#19043C"/></svg>