<svg width="348" height="467" fill="none" xmlns="http://www.w3.org/2000/svg"><path d="M342.504 3.104C348.139 4.81 348 13 348 13H0C0 0 11.633-.992 27.838.684 42.074 2.157 46.495 1.74 73.26 1.74c12.963 0 16.543-.83 25.045.682 15.341 2.73 17.161-3.095 31.621-1.706C148.71 2.52 150.89-.33 161.233.032c9.706.342 6.275 2.237 24.751 2.237 10.222 0 18.087-1.213 32.542-1.213 8.713 0 14.43.623 25.672 0C262.67.032 258.913 2.08 278.01.715c9.938-.71 9.08 0 20.663 1.024 8.209.725 6.691-.342 16.906-.342 6.575 0 4.071 1.448 15.028.342 8.859-.895 6.261-.342 11.897 1.365ZM.022 13H13v441H.022c0-.713 1.998-13.51 1.998-54.17 0-16.206-1.663-41.978-.333-58.948C2.99 324.257-.309 310.739.024 291.83c.384-21.87-.22-28.201.332-39.421.6-12.179 2.662-9.437 2.662-27.359 0-18.675-1.996-29.048-2.329-44.752-.396-18.695 1.17-20.19.998-31.408-.332-21.794 1.903-31.588.998-43.908-1.17-15.944-.998-12.82-.665-25.975.24-9.535 1.996-9.6 1.33-17.612-.955-11.509.667-8.974-.457-22.52C1.968 27.718 1.353 34.794.023 13ZM13 13h322v441H13z" fill="#19043C"/><path d="M347.984 13H335v441h12.978c0-.713-1.998-13.51-1.998-54.17 0-16.206 1.663-41.978.333-58.948-1.303-16.625 1.996-30.143 1.663-49.052-.384-21.87.22-28.201-.332-39.421-.599-12.179-2.662-9.437-2.662-27.359 0-18.675 1.996-29.048 2.329-44.752.396-18.695-1.17-20.19-.998-31.408.332-21.794-1.903-31.588-.998-43.908 1.171-15.944.998-12.82.665-25.975-.241-9.535-1.996-9.6-1.331-17.612.956-11.509.211-10.491 1.335-24.038.925-11.156 1.667-17.023 2-24.357ZM341.84 462.829C346.799 461.141 348 454 348 454H0c0 7.298 0 14.265 15.985 12.606 14.042-1.457 26.199-.001 58.282 0 12.788 0 15.61 1.233 23.609-.664 9.728-2.307 16.462.708 30.74-.465 16.426-1.351 20.899.56 29.752 0 5.656-.358 6.569-1.35 24.794-1.35 10.082 0 8.987.337 31.611.337 14.755 0 14.037-1.67 25.104-.675 23.619 2.124 28.066-.357 37.81 1.013 9.607 1.35 10.847 1.35 18.285 0 7.497-1.361 7.196-3.424 15.803-1.973 5.902.995 3.782-.395 14.569.96 8.058 1.012 10.537.728 15.496-.96Z" fill="#19043C"/></svg>