<svg width="360" height="828" fill="none" xmlns="http://www.w3.org/2000/svg"><path d="M0 .476V12h360V4.364c-14.548 0-43.672-2.548-76.888-2.548-13.239 0-14.258.804-24.442.536-23.433-.616-17.312-2.987-32.079-1.876-17.822 1.34-22.913-.453-32.079 0-5.856.289-6.619 2.144-20.877 5.628C159.378 9.588 155.05.475 136.464.475c-15.276 0-16.04 2.145-25.205 2.145-24.507 0-27.242 1.072-37.171-.805C64.158-.06 60.594-.06 52.956 1.547c-7.638 1.608-7.129 3.585-16.04 2.413-6.11-.804-5.346 1.34-16.04-1.608C12.323-.007 4.414-.508 0 .476Z" fill="url(#a)"/><path d="M0 12h360v804H0V12Z" fill="url(#b)"/><path d="M0 827.524V816h360v9.273s-43.672.911-76.888.911c-13.239 0-16.085 2.076-24.442-.536-9.674-3.023-17.312 2.987-32.079 1.876-17.822-1.339-22.914.453-32.079 0-5.856-.289-5.574-2.948-24.441-2.948-10.439 0-10.184 2.144-33.607 2.144-15.276 0-13.494-2.412-24.951-1.608-24.452 1.716-27.496-.804-37.425 1.073-9.93 1.876-13.494 1.875-21.132.268-7.638-1.608-7.129-3.585-16.04-2.413-6.11.804-5.346-1.34-16.04 1.608-8.554 2.359-16.463 2.859-20.876 1.876Z" fill="url(#c)"/><defs><linearGradient id="a" x1="357.215" y1="7.364" x2="4.303" y2="6.189" gradientUnits="userSpaceOnUse"><stop stop-color="#7048C8"/><stop offset=".046" stop-color="#734BCC"/><stop offset=".115" stop-color="#754CCE"/><stop offset=".181" stop-color="#774ED0"/><stop offset=".226" stop-color="#784FD1"/><stop offset=".28" stop-color="#754BCF"/><stop offset=".435" stop-color="#6237BE"/><stop offset=".541" stop-color="#5529B3"/><stop offset=".616" stop-color="#4F24AE"/><stop offset=".685" stop-color="#4E23AB"/><stop offset=".734" stop-color="#4C21A9"/><stop offset=".795" stop-color="#4B20A8"/><stop offset=".89" stop-color="#4B20A8"/><stop offset="1" stop-color="#4B20A8"/></linearGradient><linearGradient id="b" x1="47.625" y1="152.625" x2="573.663" y2="243.324" gradientUnits="userSpaceOnUse"><stop offset=".02" stop-color="#4B20A8"/><stop offset=".154" stop-color="#5125B0"/><stop offset=".364" stop-color="#784FD2"/><stop offset=".512" stop-color="#734ACC"/><stop offset=".73" stop-color="#4A259A"/><stop offset="1" stop-color="#3D1A8A"/></linearGradient><linearGradient id="c" x1="0" y1="821.896" x2="359.25" y2="821.746" gradientUnits="userSpaceOnUse"><stop offset=".006" stop-color="#5024AE"/><stop offset=".078" stop-color="#562AB4"/><stop offset=".147" stop-color="#5F34BC"/><stop offset=".261" stop-color="#6A40C6"/><stop offset=".344" stop-color="#764DD0"/><stop offset=".409" stop-color="#774ED1"/><stop offset=".51" stop-color="#754CCE"/><stop offset=".593" stop-color="#734ACB"/><stop offset=".648" stop-color="#6B43C2"/><stop offset=".726" stop-color="#613AB6"/><stop offset=".807" stop-color="#5731AA"/><stop offset=".894" stop-color="#4C279D"/><stop offset="1" stop-color="#472397"/></linearGradient></defs></svg>