<svg width="128" height="54" fill="none" xmlns="http://www.w3.org/2000/svg"><g opacity=".32"><path d="M17.574 3.284C2.356 8.04-.447 23.108.054 30.046c2.502 17.346 11.012 21.806 21.024 23.293 10.011 1.487 60.07 0 68.078 0 8.01 0 13.016-.991 17.02-1.487 4.005-.495 24.529-7.434 21.525-25.275-3.003-17.842-11.513-20.815-17.52-23.293-6.007-2.478-73.585-5.947-92.607 0Z" fill="#593EE7"/><path d="M17.574 3.284C2.356 8.04-.447 23.108.054 30.046c2.502 17.346 11.012 21.806 21.024 23.293 10.011 1.487 60.07 0 68.078 0 8.01 0 13.016-.991 17.02-1.487 4.005-.495 24.529-7.434 21.525-25.275-3.003-17.842-11.513-20.815-17.52-23.293-6.007-2.478-73.585-5.947-92.607 0Z" fill="url(#a)"/></g><defs><linearGradient id="a" x1="56.426" y1="-13.245" x2="75.312" y2="110.043" gradientUnits="userSpaceOnUse"><stop stop-color="#5E44FC"/><stop offset="1" stop-color="#250858"/></linearGradient></defs></svg>