<svg width="1440" height="727" fill="none" xmlns="http://www.w3.org/2000/svg"><g clip-path="url(#a)"><path d="M0 726.128V705h1440v17s-174.69 1.671-307.55 1.671c-52.96 0-64.34 3.805-97.77-.983-38.697-5.542-69.249 5.476-128.315 3.44-71.287-2.456-91.655.829-128.317 0-23.423-.53-22.295-5.405-97.765-5.405-41.754 0-40.736 3.931-134.427 3.931-61.104 0-53.975-4.422-99.802-2.948-97.811 3.146-109.986-1.474-149.703 1.966-39.717 3.439-53.975 3.439-84.526.491-30.552-2.948-28.515-6.572-64.159-4.422-24.441 1.474-21.386-2.457-64.158 2.948C49.29 727.013 17.652 727.93 0 726.128Z" fill="url(#b)"/><path d="M0 .872V22h1440V8c-58.19 0-174.69-4.67-307.55-4.671-52.96 0-57.03 1.473-97.77.983-93.732-1.13-69.248-5.476-128.315-3.44-71.287 2.456-91.655-.83-128.317 0-23.423.53-26.478 3.93-83.508 10.318C637.511 17.578 620.198.872 545.856.872c-61.103 0-64.159 3.93-100.82 3.93-98.028 0-108.968 1.966-148.685-1.474s-53.975-3.439-84.526-.49c-30.552 2.947-28.515 6.57-64.159 4.421-24.441-1.474-21.386 2.457-64.158-2.948C49.29-.013 17.652-.929 0 .871Z" fill="url(#c)"/><path fill="url(#d)" d="M0 22h1440v683H0z"/><circle cx="1214.5" cy="488.5" r="249.5" fill="url(#e)"/><circle cx="784.5" cy="306.5" r="239.5" fill="url(#f)"/></g><defs><linearGradient id="b" x1="0" y1="715.81" x2="1437" y2="714.499" gradientUnits="userSpaceOnUse"><stop offset=".006" stop-color="#5024AE"/><stop offset=".078" stop-color="#562AB4"/><stop offset=".147" stop-color="#5F34BC"/><stop offset=".261" stop-color="#6A40C6"/><stop offset=".344" stop-color="#764DD0"/><stop offset=".409" stop-color="#774ED1"/><stop offset=".51" stop-color="#754CCE"/><stop offset=".593" stop-color="#734ACB"/><stop offset=".648" stop-color="#6B43C2"/><stop offset=".726" stop-color="#613AB6"/><stop offset=".807" stop-color="#5731AA"/><stop offset=".894" stop-color="#4C279D"/><stop offset="1" stop-color="#472397"/></linearGradient><linearGradient id="c" x1="1428.86" y1="13.501" x2="17.271" y2="3.245" gradientUnits="userSpaceOnUse"><stop stop-color="#7048C8"/><stop offset=".046" stop-color="#734BCC"/><stop offset=".115" stop-color="#754CCE"/><stop offset=".181" stop-color="#774ED0"/><stop offset=".226" stop-color="#784FD1"/><stop offset=".28" stop-color="#754BCF"/><stop offset=".435" stop-color="#6237BE"/><stop offset=".541" stop-color="#5529B3"/><stop offset=".616" stop-color="#4F24AE"/><stop offset=".685" stop-color="#4E23AB"/><stop offset=".734" stop-color="#4C21A9"/><stop offset=".795" stop-color="#4B20A8"/><stop offset=".89" stop-color="#4B20A8"/><stop offset="1" stop-color="#4B20A8"/></linearGradient><linearGradient id="d" x1="190.5" y1="141.462" x2="1496.45" y2="1201.7" gradientUnits="userSpaceOnUse"><stop offset=".02" stop-color="#4B20A8"/><stop offset=".154" stop-color="#5125B0"/><stop offset=".364" stop-color="#784FD2"/><stop offset=".512" stop-color="#734ACC"/><stop offset=".73" stop-color="#4A259A"/><stop offset="1" stop-color="#3D1A8A"/></linearGradient><radialGradient id="e" cx="0" cy="0" r="1" gradientUnits="userSpaceOnUse" gradientTransform="rotate(90 363 851.5) scale(184.5)"><stop stop-color="#00FFA3" stop-opacity=".34"/><stop offset=".698" stop-color="#00FFA3" stop-opacity=".113"/><stop offset=".864" stop-color="#00FFA3" stop-opacity=".05"/><stop offset="1" stop-color="#00FFA3" stop-opacity="0"/></radialGradient><radialGradient id="f" cx="0" cy="0" r="1" gradientUnits="userSpaceOnUse" gradientTransform="rotate(90 239 545.5) scale(177.105)"><stop stop-color="#00FFA3" stop-opacity=".34"/><stop offset=".698" stop-color="#00FFA3" stop-opacity=".113"/><stop offset=".864" stop-color="#00FFA3" stop-opacity=".05"/><stop offset="1" stop-color="#00FFA3" stop-opacity="0"/></radialGradient><clipPath id="a"><path fill="#fff" d="M0 0h1440v727H0z"/></clipPath></defs></svg>