<svg width="769" height="548" fill="none" xmlns="http://www.w3.org/2000/svg"><path d="M0 .476V12h768V4.364c-31.036 0-93.168-2.548-164.028-2.548-28.244 0-30.416.804-52.142.536-49.991-.616-36.933-2.987-68.435-1.876-38.02 1.34-48.883-.453-68.436 0-12.492.289-14.122 2.144-44.537 5.628-30.416 3.484-39.65-5.629-79.299-5.629-32.588 0-34.218 2.145-53.771 2.145-52.281 0-58.116 1.072-79.298-.805-21.183-1.876-28.787-1.875-45.081-.268C96.679 3.155 97.765 5.132 78.755 3.96 65.72 3.156 67.35 5.3 44.538 2.352 26.288-.007 9.413-.508 0 .476Z" fill="url(#a)"/><path d="M0 12h768v524H0V12Z" fill="url(#b)"/><path d="M0 547.524V536h769v9.273s-93.289.911-164.242.911c-28.28 0-34.359 2.076-52.209-.536-20.667-3.023-36.982 2.987-68.525 1.876-38.069-1.339-48.946.453-68.525 0-12.508-.289-11.906-2.948-52.209-2.948-22.298 0-21.754 2.144-71.788 2.144-32.631 0-28.824-2.412-53.297-1.608-52.234 1.716-58.735-.804-79.945 1.073-21.211 1.876-28.824 1.875-45.14.268-16.315-1.608-15.228-3.585-34.262-2.413-13.053.804-11.42-1.34-34.263 1.608-18.273 2.359-35.168 2.859-44.595 1.876Z" fill="url(#c)"/><defs><linearGradient id="a" x1="762.059" y1="7.364" x2="9.21" y2="2.016" gradientUnits="userSpaceOnUse"><stop stop-color="#7048C8"/><stop offset=".046" stop-color="#734BCC"/><stop offset=".115" stop-color="#754CCE"/><stop offset=".181" stop-color="#774ED0"/><stop offset=".226" stop-color="#784FD1"/><stop offset=".28" stop-color="#754BCF"/><stop offset=".435" stop-color="#6237BE"/><stop offset=".541" stop-color="#5529B3"/><stop offset=".616" stop-color="#4F24AE"/><stop offset=".685" stop-color="#4E23AB"/><stop offset=".734" stop-color="#4C21A9"/><stop offset=".795" stop-color="#4B20A8"/><stop offset=".89" stop-color="#4B20A8"/><stop offset="1" stop-color="#4B20A8"/></linearGradient><linearGradient id="b" x1="101.6" y1="103.651" x2="978.022" y2="598.28" gradientUnits="userSpaceOnUse"><stop offset=".02" stop-color="#4B20A8"/><stop offset=".154" stop-color="#5125B0"/><stop offset=".364" stop-color="#784FD2"/><stop offset=".512" stop-color="#734ACC"/><stop offset=".73" stop-color="#4A259A"/><stop offset="1" stop-color="#3D1A8A"/></linearGradient><linearGradient id="c" x1="0" y1="541.896" x2="767.398" y2="541.211" gradientUnits="userSpaceOnUse"><stop offset=".006" stop-color="#5024AE"/><stop offset=".078" stop-color="#562AB4"/><stop offset=".147" stop-color="#5F34BC"/><stop offset=".261" stop-color="#6A40C6"/><stop offset=".344" stop-color="#764DD0"/><stop offset=".409" stop-color="#774ED1"/><stop offset=".51" stop-color="#754CCE"/><stop offset=".593" stop-color="#734ACB"/><stop offset=".648" stop-color="#6B43C2"/><stop offset=".726" stop-color="#613AB6"/><stop offset=".807" stop-color="#5731AA"/><stop offset=".894" stop-color="#4C279D"/><stop offset="1" stop-color="#472397"/></linearGradient></defs></svg>