<svg width="346" height="467" viewBox="0 0 346 467" fill="none" xmlns="http://www.w3.org/2000/svg">
<path d="M340.535 3.10356C346.138 4.8098 346 13 346 13H0C0 0 11.5658 -0.992371 27.6777 0.684211C41.8321 2.15709 46.2277 1.73898 72.8385 1.73873C85.728 1.73862 89.287 0.908175 97.7405 2.42123C112.993 5.15122 114.803 -0.674027 129.179 0.71514C147.856 2.51977 150.023 -0.331228 160.307 0.032455C169.956 0.373703 166.546 2.26892 184.915 2.26892C195.078 2.26892 202.898 1.05615 217.27 1.05615C225.933 1.05615 231.617 1.67928 242.795 1.0562C261.16 0.0324553 257.425 2.07987 276.413 0.714952C286.293 0.00472218 285.44 0.714952 296.957 1.73862C305.118 2.46403 303.609 1.39745 313.766 1.39745C320.302 1.39745 317.812 2.84546 328.707 1.73862C337.515 0.843679 334.932 1.39732 340.535 3.10356Z" fill="#371980"/>
<path d="M0.0222423 13H13L13 454H0.0216407C0.0216407 453.287 2.02012 440.49 2.01984 399.83C2.01972 383.624 0.356778 357.852 1.68711 340.882C2.99046 324.257 -0.308761 310.739 0.0236822 291.83C0.408171 269.96 -0.195552 263.629 0.35631 252.409C0.955351 240.23 3.01789 242.972 3.01789 225.05C3.01789 206.375 1.02177 196.002 0.689042 180.298C0.292933 161.603 1.85851 160.108 1.68724 148.89C1.35451 127.096 3.59043 117.302 2.68544 104.982C1.51431 89.0382 1.68724 92.162 2.01972 79.0065C2.26068 69.4724 4.01636 69.407 3.3509 61.3946C2.39506 49.886 4.01683 52.4208 2.89317 38.8747C1.96771 27.7179 1.35317 34.7936 0.0222423 13Z" fill="#371980"/>
<rect x="13" y="13" width="320" height="441" fill="#371980"/>
<path d="M345.984 13H333V454H345.978C345.978 453.287 343.98 440.49 343.98 399.83C343.98 383.624 345.643 357.852 344.313 340.882C343.01 324.257 346.309 310.739 345.976 291.83C345.592 269.96 346.196 263.629 345.644 252.409C345.045 240.23 342.982 242.972 342.982 225.05C342.982 206.375 344.978 196.002 345.311 180.298C345.707 161.603 344.141 160.108 344.313 148.89C344.645 127.096 342.41 117.302 343.315 104.982C344.486 89.0382 344.313 92.1621 343.98 79.0065C343.739 69.4724 341.984 69.407 342.649 61.3946C343.605 49.8861 342.86 50.9037 343.984 37.3575C344.909 26.2008 345.651 20.334 345.984 13Z" fill="#371980"/>
<path d="M339.875 462.829C344.806 461.141 346 454 346 454H0C0 461.298 -2.52171e-06 468.265 15.8928 466.606C29.8547 465.149 41.9413 466.605 73.8405 466.606C86.5547 466.606 89.3598 467.839 97.3129 465.942C106.986 463.635 113.681 466.65 127.877 465.477C144.208 464.126 148.656 466.037 157.458 465.477C163.082 465.119 163.989 464.127 182.109 464.127C192.134 464.127 191.045 464.464 213.539 464.464C228.209 464.464 227.495 462.794 238.498 463.789C261.982 465.913 266.403 463.432 276.091 464.802C285.643 466.152 286.876 466.152 294.271 464.802C301.725 463.441 301.425 461.378 309.983 462.829C315.851 463.824 313.744 462.434 324.468 463.789C332.48 464.801 334.945 464.517 339.875 462.829Z" fill="#371980"/>
</svg>
