<svg width="348" height="467" viewBox="0 0 348 467" fill="none" xmlns="http://www.w3.org/2000/svg">
<path d="M342.504 3.10356C348.139 4.8098 348 13 348 13H0C0 0 11.6327 -0.992371 27.8377 0.684211C42.0739 2.15709 46.4949 1.73898 73.2595 1.73873C86.2235 1.73862 89.8031 0.908175 98.3055 2.42123C113.646 5.15122 115.466 -0.674027 129.926 0.71514C148.71 2.51977 150.89 -0.331228 161.233 0.032455C170.939 0.373703 167.508 2.26892 185.984 2.26892C196.206 2.26892 204.071 1.05615 218.526 1.05615C227.239 1.05615 232.956 1.67928 244.198 1.0562C262.67 0.0324553 258.913 2.07987 278.01 0.714952C287.948 0.00472218 287.09 0.714952 298.673 1.73862C306.882 2.46403 305.364 1.39745 315.579 1.39745C322.154 1.39745 319.65 2.84546 330.607 1.73862C339.466 0.843679 336.868 1.39732 342.504 3.10356Z" fill="#19043C"/>
<path d="M0.0222423 13H13L13 454H0.0216407C0.0216407 453.287 2.02012 440.49 2.01984 399.83C2.01972 383.624 0.356778 357.852 1.68711 340.882C2.99046 324.257 -0.308761 310.739 0.0236822 291.83C0.408171 269.96 -0.195552 263.629 0.35631 252.409C0.955351 240.23 3.01789 242.972 3.01789 225.05C3.01789 206.375 1.02177 196.002 0.689042 180.298C0.292933 161.603 1.85851 160.108 1.68724 148.89C1.35451 127.096 3.59043 117.302 2.68544 104.982C1.51431 89.0382 1.68724 92.162 2.01972 79.0065C2.26068 69.4724 4.01636 69.407 3.3509 61.3946C2.39506 49.886 4.01683 52.4208 2.89317 38.8747C1.96771 27.7179 1.35317 34.7936 0.0222423 13Z" fill="#19043C"/>
<rect x="13" y="13" width="322" height="441" fill="#19043C"/>
<path d="M347.984 13H335V454H347.978C347.978 453.287 345.98 440.49 345.98 399.83C345.98 383.624 347.643 357.852 346.313 340.882C345.01 324.257 348.309 310.739 347.976 291.83C347.592 269.96 348.196 263.629 347.644 252.409C347.045 240.23 344.982 242.972 344.982 225.05C344.982 206.375 346.978 196.002 347.311 180.298C347.707 161.603 346.141 160.108 346.313 148.89C346.645 127.096 344.41 117.302 345.315 104.982C346.486 89.0382 346.313 92.1621 345.98 79.0065C345.739 69.4724 343.984 69.407 344.649 61.3946C345.605 49.8861 344.86 50.9037 345.984 37.3575C346.909 26.2008 347.651 20.334 347.984 13Z" fill="#19043C"/>
<path d="M341.84 462.829C346.799 461.141 348 454 348 454H0C0 461.298 -2.53629e-06 468.265 15.9847 466.606C30.0273 465.149 42.1837 466.605 74.2673 466.606C87.0551 466.606 89.8763 467.839 97.8755 465.942C107.604 463.635 114.338 466.65 128.616 465.477C145.042 464.126 149.515 466.037 158.368 465.477C164.024 465.119 164.937 464.127 183.162 464.127C193.244 464.127 192.149 464.464 214.773 464.464C229.528 464.464 228.81 462.794 239.877 463.789C263.496 465.913 267.943 463.432 277.687 464.802C287.294 466.152 288.534 466.152 295.972 464.802C303.469 463.441 303.168 461.378 311.775 462.829C317.677 463.824 315.557 462.434 326.344 463.789C334.402 464.801 336.881 464.517 341.84 462.829Z" fill="#19043C"/>
</svg>
