<svg width="328" height="423" viewBox="0 0 328 423" fill="none" xmlns="http://www.w3.org/2000/svg">
<path d="M322.82 3.10356C328.131 4.8098 328 13 328 13H0C0 0 10.9641 -0.992371 26.2378 0.684211C39.6558 2.15709 43.8228 1.73898 69.0492 1.73873C81.2682 1.73862 84.642 0.908175 92.6557 2.42123C107.115 5.15122 108.83 -0.674027 122.459 0.71514C140.164 2.51977 142.218 -0.331228 151.967 0.032455C161.115 0.373703 157.881 2.26892 175.295 2.26892C184.93 2.26892 192.343 1.05615 205.967 1.05615C214.179 1.05615 219.568 1.67928 230.164 1.0562C247.574 0.0324553 244.033 2.07987 262.033 0.714952C271.399 0.00472218 270.59 0.714952 281.508 1.73862C289.245 2.46403 287.814 1.39745 297.443 1.39745C303.639 1.39745 301.279 2.84546 311.607 1.73862C319.957 0.843679 317.508 1.39732 322.82 3.10356Z" fill="#371980"/>
<path d="M0.0222423 13H13L13 410H0.0216407C0.0216407 409.358 2.02012 397.838 2.01984 361.235C2.01972 346.646 0.356778 323.445 1.68711 308.168C2.99046 293.202 -0.308761 281.033 0.0236822 264.01C0.408171 244.323 -0.195552 238.623 0.35631 228.523C0.955351 217.559 3.01789 220.027 3.01789 203.893C3.01789 187.081 1.02177 177.743 0.689042 163.606C0.292933 146.776 1.85851 145.43 1.68724 135.331C1.35451 115.712 3.59043 106.896 2.68544 95.8045C1.51431 81.4516 1.68724 84.2638 2.01972 72.4208C2.26068 63.838 4.01636 63.7791 3.3509 56.5661C2.39506 46.2058 4.01683 48.4876 2.89317 36.2931C1.96771 26.2494 1.35317 32.6192 0.0222423 13Z" fill="#371980"/>
<rect x="13" y="13" width="302" height="397" fill="#371980"/>
<path d="M327.984 13H315V410H327.978C327.978 409.358 325.98 397.838 325.98 361.235C325.98 346.646 327.643 323.445 326.313 308.168C325.01 293.202 328.309 281.033 327.976 264.01C327.592 244.323 328.196 238.623 327.644 228.523C327.045 217.559 324.982 220.027 324.982 203.893C324.982 187.081 326.978 177.743 327.311 163.606C327.707 146.776 326.141 145.43 326.313 135.331C326.645 115.712 324.41 106.896 325.315 95.8045C326.486 81.4516 326.313 84.2638 325.98 72.4208C325.739 63.838 323.984 63.7791 324.649 56.5661C325.605 46.2058 324.86 47.1219 325.984 34.9273C326.909 24.8837 327.651 19.6023 327.984 13Z" fill="#371980"/>
<path d="M322.194 418.829C326.868 417.141 328 410 328 410H0C0 417.298 -2.39052e-06 424.265 15.066 422.606C28.3015 421.149 39.7593 422.605 69.9991 422.606C82.0519 422.606 84.711 423.839 92.2504 421.942C101.42 419.635 107.767 422.65 121.224 421.477C136.706 420.126 140.922 422.037 149.267 421.477C154.598 421.119 155.458 420.127 172.635 420.127C182.138 420.127 181.106 420.464 202.43 420.464C216.337 420.464 215.66 418.794 226.091 419.789C248.352 421.913 252.544 419.432 261.728 420.802C270.783 422.152 271.952 422.152 278.962 420.802C286.028 419.441 285.744 417.378 293.857 418.829C299.419 419.824 297.422 418.434 307.589 419.789C315.183 420.801 317.52 420.517 322.194 418.829Z" fill="#371980"/>
</svg>
