<svg width="526" height="717" viewBox="0 0 526 717" fill="none" xmlns="http://www.w3.org/2000/svg">
<path d="M517.692 3.10356C526.21 4.8098 526 13 526 13H0C0 0 17.5827 -0.992371 42.0765 0.684211C63.5944 2.15709 70.2768 1.73898 110.731 1.73873C130.326 1.73862 135.737 0.908175 148.588 2.42123C171.775 5.15122 174.526 -0.674027 196.382 0.71514C224.775 2.51977 228.07 -0.331228 243.703 0.032455C258.373 0.373703 253.188 2.26892 281.114 2.26892C296.564 2.26892 308.452 1.05615 330.301 1.05615C343.47 1.05615 352.112 1.67928 369.104 1.0562C397.024 0.0324553 391.345 2.07987 420.211 0.714952C435.231 0.00472218 433.934 0.714952 451.443 1.73862C463.851 2.46403 461.555 1.39745 476.996 1.39745C486.934 1.39745 483.148 2.84546 499.71 1.73862C513.102 0.843679 509.175 1.39732 517.692 3.10356Z" fill="#371980"/>
<path d="M0.0222423 13H13L13 704H0.0216407C0.0216407 702.883 2.02012 682.832 2.01984 619.122C2.01972 593.729 0.356778 553.346 1.68711 526.756C2.99046 500.706 -0.308761 479.525 0.0236822 449.897C0.408171 415.63 -0.195552 405.709 0.35631 388.129C0.955351 369.046 3.01789 373.341 3.01789 345.259C3.01789 315.998 1.02177 299.745 0.689042 275.138C0.292933 245.844 1.85851 243.502 1.68724 225.924C1.35451 191.776 3.59043 176.431 2.68544 157.126C1.51431 132.144 1.68724 137.039 2.01972 116.425C2.26068 101.486 4.01636 101.384 3.3509 88.8292C2.39506 70.7965 4.01683 74.7682 2.89317 53.5428C1.96771 36.0613 1.35317 47.1483 0.0222423 13Z" fill="#371980"/>
<rect x="13" y="13" width="500" height="691" fill="#371980"/>
<path d="M525.984 13H513V704H525.978C525.978 702.883 523.98 682.832 523.98 619.122C523.98 593.729 525.643 553.346 524.313 526.756C523.01 500.706 526.309 479.525 525.976 449.897C525.592 415.63 526.196 405.709 525.644 388.129C525.045 369.046 522.982 373.341 522.982 345.259C522.982 315.998 524.978 299.745 525.311 275.138C525.707 245.844 524.141 243.502 524.313 225.924C524.645 191.776 522.41 176.431 523.315 157.126C524.486 132.144 524.313 137.039 523.98 116.425C523.739 101.486 521.984 101.384 522.649 88.8292C523.605 70.7966 522.86 72.391 523.984 51.1656C524.909 33.6842 525.651 24.4917 525.984 13Z" fill="#371980"/>
<path d="M516.689 712.829C524.184 711.141 526 704 526 704H0C0 711.298 -3.83358e-06 718.265 24.1608 716.606C45.386 715.149 63.7604 716.605 112.255 716.606C131.583 716.606 135.848 717.839 147.938 715.942C162.643 713.635 172.821 716.65 194.402 715.477C219.23 714.126 225.991 716.037 239.373 715.477C247.922 715.119 249.302 714.127 276.848 714.127C292.088 714.127 290.432 714.464 324.629 714.464C346.931 714.464 345.846 712.794 362.572 713.789C398.273 715.913 404.994 713.432 419.722 714.802C434.244 716.152 436.117 716.152 447.36 714.802C458.692 713.441 458.236 711.378 471.246 712.829C480.167 713.824 476.963 712.434 493.267 713.789C505.447 714.801 509.194 714.517 516.689 712.829Z" fill="#371980"/>
</svg>
