<svg width="328" height="441" viewBox="0 0 328 441" fill="none" xmlns="http://www.w3.org/2000/svg">
<path d="M322.82 3.10356C328.131 4.8098 328 13 328 13H0C0 0 10.9641 -0.992371 26.2378 0.684211C39.6558 2.15709 43.8228 1.73898 69.0492 1.73873C81.2682 1.73862 84.642 0.908175 92.6557 2.42123C107.115 5.15122 108.83 -0.674027 122.459 0.71514C140.164 2.51977 142.218 -0.331228 151.967 0.032455C161.115 0.373703 157.881 2.26892 175.295 2.26892C184.93 2.26892 192.343 1.05615 205.967 1.05615C214.179 1.05615 219.568 1.67928 230.164 1.0562C247.574 0.0324553 244.033 2.07987 262.033 0.714952C271.399 0.00472218 270.59 0.714952 281.508 1.73862C289.245 2.46403 287.814 1.39745 297.443 1.39745C303.639 1.39745 301.279 2.84546 311.607 1.73862C319.957 0.843679 317.508 1.39732 322.82 3.10356Z" fill="#19043C"/>
<path d="M0.0222423 13H13L13 428H0.0216407C0.0216407 427.329 2.02012 415.287 2.01984 377.024C2.01972 361.773 0.356778 337.52 1.68711 321.551C2.99046 305.906 -0.308761 293.185 0.0236822 275.391C0.408171 254.811 -0.195552 248.852 0.35631 238.294C0.955351 226.834 3.01789 229.413 3.01789 212.548C3.01789 194.974 1.02177 185.213 0.689042 170.435C0.292933 152.841 1.85851 151.435 1.68724 140.878C1.35451 120.369 3.59043 111.153 2.68544 99.5589C1.51431 84.5553 1.68724 87.4949 2.01972 75.115C2.26068 66.143 4.01636 66.0814 3.3509 58.5414C2.39506 47.7114 4.01683 50.0966 2.89317 37.3492C1.96771 26.8502 1.35317 33.5087 0.0222423 13Z" fill="#19043C"/>
<rect x="13" y="13" width="302" height="415" fill="#19043C"/>
<path d="M327.984 13H315V428H327.978C327.978 427.329 325.98 415.287 325.98 377.024C325.98 361.773 327.643 337.52 326.313 321.551C325.01 305.906 328.309 293.185 327.976 275.391C327.592 254.811 328.196 248.852 327.644 238.294C327.045 226.834 324.982 229.413 324.982 212.548C324.982 194.974 326.978 185.213 327.311 170.435C327.707 152.841 326.141 151.435 326.313 140.878C326.645 120.369 324.41 111.153 325.315 99.5589C326.486 84.5553 326.313 87.4949 325.98 75.115C325.739 66.143 323.984 66.0814 324.649 58.5414C325.605 47.7114 324.86 48.669 325.984 35.9215C326.909 25.4225 327.651 19.9017 327.984 13Z" fill="#19043C"/>
<path d="M322.194 436.829C326.868 435.141 328 428 328 428H0C0 435.298 -2.39052e-06 442.265 15.066 440.606C28.3015 439.149 39.7593 440.605 69.9991 440.606C82.0519 440.606 84.711 441.839 92.2504 439.942C101.42 437.635 107.767 440.65 121.224 439.477C136.706 438.126 140.922 440.037 149.267 439.477C154.598 439.119 155.458 438.127 172.635 438.127C182.138 438.127 181.106 438.464 202.43 438.464C216.337 438.464 215.66 436.794 226.091 437.789C248.352 439.913 252.544 437.432 261.728 438.802C270.783 440.152 271.952 440.152 278.962 438.802C286.028 437.441 285.744 435.378 293.857 436.829C299.419 437.824 297.422 436.434 307.589 437.789C315.183 438.801 317.52 438.517 322.194 436.829Z" fill="#19043C"/>
</svg>
