<svg width="1076" height="175" fill="none" xmlns="http://www.w3.org/2000/svg"><path d="M997.549 8.697c13.001-1.152 20.531-2.988 31.961-2.099 11.43.89 15.21-1.025 24.11-.807C1075.61 6.329 1076 14 1076 14H.143S-3.376 3.436 24.5 4C52.374 4.563 160.26-.506 176.1.04c19.147.663 184.72.287 218.062 3.522 33.767 3.277 199.59-.704 245.713 1.44 30.387 1.413 76.028-3.737 136.787 0 38.257 2.353 180.038 7.312 220.886 3.694ZM0 14h1076v137H0zM117.809 168.032c-13.268.626-44.797 2.974-64.481 1.487-19.673-1.486-23.124-1.486-38.745-1.486h-.028C-2.867 168.033.21 151.001.21 151.001L1076 151s0 21.494-12.76 21.494c-12.75-.001-136.687 5.639-173.391-.001-31.008-4.765-193.452 4.024-227.182-.496-29.463-3.948-201.393.821-241.105-3.47-36.703-3.965-81.847 4.661-143.017 2.774-80.368-2.478-108.279-5.748-160.736-3.269Z" fill="#1E0645"/></svg>