<svg width="1076" height="90" fill="none" xmlns="http://www.w3.org/2000/svg"><path d="M145.134 9.29C131.919 8.235 54.217 1.799 42.786 3.45 31.354 5.102 23.59 5.951 14.993 7.5-1.66 10.5.05 26 .05 26h1075.94s1.29-19.276-26.58-18.23C1021.53 8.819 915.861-.942 900.019.076c-19.149 1.23-184.735.532-218.079 6.54-33.77 6.086-199.605-1.308-245.732 2.675-30.39 2.624-75.573-3.546-136.798 0-46.796 2.71-114.049 3.21-154.276 0ZM0 26h1076v40H0zM958.191 83.563c13.268.646 44.799 3.067 64.479 1.533 19.67-1.532 23.13-1.532 38.75-1.532h.03c17.42 0 14.34-17.563 14.34-17.563L0 66s.002 22.164 12.758 22.164c12.756 0 132.427 4.132 173.393 0 31.345-3.162 193.452 4.15 227.182-.512 29.463-4.072 201.394.846 241.105-3.578 36.703-4.089 81.847 4.806 143.017 2.86 80.368-2.555 108.279-5.927 160.736-3.371Z" fill="#19043C"/></svg>